STARTFONT 2.1
COMMENT
COMMENT Converted from OpenType font "IBMPlexSans-Medium.ttf" by "otf2bdf 3.0".
COMMENT
FONT -FreeType-IBM Plex Sans Medm-Medium-R-Normal--60-600-72-72-P-302-ISO10646-1
SIZE 60 72 72
FONTBOUNDINGBOX 90 84 -13 -15
STARTPROPERTIES 19
FOUNDRY "FreeType"
FAMILY_NAME "IBM Plex Sans Medm"
WEIGHT_NAME "Medium"
SLANT "R"
SETWIDTH_NAME "Normal"
ADD_STYLE_NAME ""
PIXEL_SIZE 60
POINT_SIZE 600
RESOLUTION_X 72
RESOLUTION_Y 72
SPACING "P"
AVERAGE_WIDTH 302
CHARSET_REGISTRY "ISO10646"
CHARSET_ENCODING "1"
FONT_ASCENT 61
FONT_DESCENT 16
COPYRIGHT "Copyright 2018 IBM Corp. All rights reserved."
_OTF_FONTFILE "IBMPlexSans-Medium.ttf"
_OTF_PSNAME "IBMPlexSans-Medm"
ENDPROPERTIES
CHARS 844
STARTCHAR 0000
ENCODING 0
SWIDTH 0 0
DWIDTH 0 0
BBX 0 0 0 0
BITMAP
ENDCHAR
STARTCHAR 000D
ENCODING 13
SWIDTH 233 0
DWIDTH 14 0
BBX 0 0 0 0
BITMAP
ENDCHAR
STARTCHAR 0020
ENCODING 32
SWIDTH 233 0
DWIDTH 14 0
BBX 0 0 0 0
BITMAP
ENDCHAR
STARTCHAR 0021
ENCODING 33
SWIDTH 300 0
DWIDTH 18 0
BBX 8 43 5 -1
BITMAP
FE
FE
FE
FE
FE
FE
FE
FE
FE
FE
FE
FE
FE
7E
7E
7E
7E
7E
7E
7E
7C
7C
3C
3C
3C
3C
3C
3C
3C
3C
00
00
00
00
7C
FF
FF
FF
FF
FF
FF
FF
7C
ENDCHAR
STARTCHAR 0022
ENCODING 34
SWIDTH 450 0
DWIDTH 27 0
BBX 17 18 5 26
BITMAP
FC0F80
FC0F80
FC0F80
FC0F80
FC0F80
FC0F80
FC0F80
FC0F80
FC0F80
FC0F80
FC0F80
FC0F80
FC0F80
FC0F80
FC0F80
FC0F80
FC0F80
FC0F80
ENDCHAR
STARTCHAR 0023
ENCODING 35
SWIDTH 683 0
DWIDTH 41 0
BBX 36 42 2 0
BITMAP
0007801E00
000F803E00
000F803E00
000F803E00
000F003C00
000F003C00
001F003C00
001F007C00
001F007C00
001F007C00
001E007800
1FFFFFFFF0
1FFFFFFFF0
1FFFFFFFF0
1FFFFFFFF0
003C00F000
003C00F000
007C00F000
007C01F000
007C01F000
007C01F000
007801F000
007801E000
007801E000
00F803E000
00F803E000
FFFFFFFFC0
FFFFFFFFC0
FFFFFFFFC0
FFFFFFFFC0
01F007C000
01F007C000
01F007C000
01E0078000
01E0078000
03E0078000
03E00F8000
03E00F8000
03E00F8000
03C00F0000
03C00F0000
07C01F0000
ENDCHAR
STARTCHAR 0024
ENCODING 36
SWIDTH 600 0
DWIDTH 36 0
BBX 30 52 3 -5
BITMAP
0007C000
0007C000
0007C000
0007C000
0007C000
003FF000
01FFFE00
07FFFF80
0FFFFFC0
1FFFFFE0
3FFFFFF0
3FE79FF8
7F8783F8
7F0781E0
7E0780C0
7E078080
7E078000
7E078000
7F078000
7F078000
3FC78000
3FF78000
1FFF8000
1FFFF800
0FFFFE00
03FFFF80
00FFFFC0
003FFFF0
0007FFF0
00079FF8
000787F8
000783FC
000781FC
000781FC
000780FC
000780FC
180781FC
3C0781FC
7E0783F8
FF0787F8
FFE79FF0
7FFFFFF0
3FFFFFE0
0FFFFFC0
07FFFF80
01FFFE00
007FF000
0007C000
0007C000
0007C000
0007C000
0007C000
ENDCHAR
STARTCHAR 0025
ENCODING 37
SWIDTH 950 0
DWIDTH 57 0
BBX 49 44 4 -1
BITMAP
03F80000000000
0FFE00000FC000
1FFF00001F8000
3FFF80003F0000
7F0FC0007F0000
7C07C0007E0000
FC07E000FC0000
FC03E001F80000
F803E001F80000
F803E003F00000
F803F007E00000
F803F007E00000
F803F00FC00000
F803F01F800000
F803E01F800000
F803E03F000000
FC03E07E000000
FC07E0FE000000
7C07C0FC000000
7F0FC1F8000000
3FFF83F00FE000
1FFF03F03FF800
0FFE07E0FFFC00
03F80FC1FFFE00
00000FC1F87F00
00001F83F03F00
00003F03F01F80
00003F03E01F80
00007E07E01F80
0000FC07E01F80
0001FC07E00F80
0001F807E00F80
0003F007E00F80
0007F007E00F80
0007E007E01F80
000FC007E01F80
001F8003E01F80
001F8003F01F80
003F0003F03F00
007E0001F87F00
007E0001FFFE00
00FC0000FFFC00
01F800003FF800
000000000FE000
ENDCHAR
STARTCHAR 0026
ENCODING 38
SWIDTH 700 0
DWIDTH 42 0
BBX 37 44 4 -1
BITMAP
001FE00000
007FF80000
01FFFE0000
03FFFF0000
07FFFF8000
07FFFF8000
0FF87FC000
0FE01FC000
0FC00FC000
0FC00FC000
0FC00FC000
0FC00FC000
0FC01FC000
0FE01F8000
0FE03F8000
07F07F0000
07F9FE0000
03FFFC0000
01FFF80000
00FFF00000
00FFC01FF0
03FF801FF0
07FFC01FF0
0FFFE01FF0
1FEFF01FF0
3FC7F83FF0
7F03FC3F00
7F01FE3F00
FE00FF3E00
FE007FFE00
FE007FFE00
FE003FFC00
FE001FFC00
FE000FFC00
FE0007FC00
FF0007FC00
FF800FFE00
7FE03FFF00
7FFFFFFF80
3FFFFFBFC0
1FFFFF1FE0
0FFFFC0FF0
03FFF007F8
007FC00000
ENDCHAR
STARTCHAR 0027
ENCODING 39
SWIDTH 250 0
DWIDTH 15 0
BBX 6 18 5 26
BITMAP
FC
FC
FC
FC
FC
FC
FC
FC
FC
FC
FC
FC
FC
FC
FC
FC
FC
FC
ENDCHAR
STARTCHAR 0028
ENCODING 40
SWIDTH 333 0
DWIDTH 20 0
BBX 17 54 4 -8
BITMAP
003F80
007E00
00FC00
01F800
03F800
03F000
07E000
07E000
0FC000
0FC000
1F8000
1F8000
3F0000
3F0000
3F0000
7E0000
7E0000
7E0000
7E0000
FC0000
FC0000
FC0000
FC0000
FC0000
FC0000
FC0000
FC0000
FC0000
FC0000
FC0000
FC0000
FC0000
FC0000
FC0000
FC0000
7E0000
7E0000
7E0000
7E0000
3F0000
3F0000
3F0000
1F8000
1F8000
0FC000
0FC000
07E000
07E000
03F000
03F800
01F800
00FC00
007E00
003F80
ENDCHAR
STARTCHAR 0029
ENCODING 41
SWIDTH 333 0
DWIDTH 20 0
BBX 16 54 0 -8
BITMAP
FC00
7E00
3F00
1F80
1FC0
0FC0
07E0
07F0
03F0
01F8
01F8
01F8
00FC
00FC
007E
007E
007E
007E
003F
003F
003F
003F
003F
003F
003F
003F
003F
003F
003F
003F
003F
003F
003F
003F
003F
003F
007E
007E
007E
007E
00FC
00FC
01FC
01F8
01F8
03F0
07F0
07E0
0FC0
0FC0
1F80
3F00
7E00
FC00
ENDCHAR
STARTCHAR 002A
ENCODING 42
SWIDTH 516 0
DWIDTH 31 0
BBX 27 25 2 20
BITMAP
001F0000
001F0000
001F0000
001F0000
001F0000
001F0000
401F0080
781F0380
7E1F1FC0
7FDF7FC0
FFFFFFC0
FFFFFFE0
1FFFFE00
01FFF000
007F8000
007FC000
00FFE000
01FBF000
03F3F800
07F1F800
07E0FC00
0FC0FE00
1FC07F00
07803C00
01003000
ENDCHAR
STARTCHAR 002B
ENCODING 43
SWIDTH 600 0
DWIDTH 36 0
BBX 28 30 4 3
BITMAP
001F8000
001F8000
001F8000
001F8000
001F8000
001F8000
001F8000
001F8000
001F8000
001F8000
001F8000
001F8000
FFFFFFF0
FFFFFFF0
FFFFFFF0
FFFFFFF0
FFFFFFF0
FFFFFFF0
001F8000
001F8000
001F8000
001F8000
001F8000
001F8000
001F8000
001F8000
001F8000
001F8000
001F8000
001F8000
ENDCHAR
STARTCHAR 002C
ENCODING 44
SWIDTH 283 0
DWIDTH 17 0
BBX 11 17 2 -9
BITMAP
0F80
1FC0
1FE0
3FE0
3FE0
3FE0
1FE0
1FE0
0FE0
07C0
07C0
0F80
0F80
1F00
1F00
3E00
FC00
ENDCHAR
STARTCHAR 002D
ENCODING 45
SWIDTH 400 0
DWIDTH 24 0
BBX 16 7 4 15
BITMAP
FFFF
FFFF
FFFF
FFFF
FFFF
FFFF
FFFF
ENDCHAR
STARTCHAR 002E
ENCODING 46
SWIDTH 283 0
DWIDTH 17 0
BBX 9 9 4 -1
BITMAP
3E00
7F00
7F80
FF80
FF80
FF80
7F80
7F00
3E00
ENDCHAR
STARTCHAR 002F
ENCODING 47
SWIDTH 416 0
DWIDTH 25 0
BBX 23 53 0 -9
BITMAP
00007E
00007C
0000FC
0000FC
0000F8
0001F8
0001F8
0001F0
0003F0
0003F0
0003E0
0007E0
0007E0
0007C0
000FC0
000FC0
000FC0
000F80
001F80
001F80
001F00
003F00
003F00
003E00
007E00
007E00
007C00
00FC00
00FC00
00F800
01F800
01F800
01F800
01F000
03F000
03F000
03E000
07E000
07E000
07C000
0FC000
0FC000
0F8000
1F8000
1F8000
1F0000
3F0000
3F0000
3E0000
3E0000
7E0000
7E0000
FC0000
ENDCHAR
STARTCHAR 0030
ENCODING 48
SWIDTH 600 0
DWIDTH 36 0
BBX 30 44 3 -1
BITMAP
001FE000
00FFFC00
01FFFE00
07FFFF80
0FFFFFC0
0FFFFFC0
1FF03FE0
3FC00FE0
3F8007F0
3F8007F0
7F0003F8
7F0003F8
7F0003F8
7E0001F8
FE0001FC
FE0001FC
FE0001FC
FE0001FC
FE0001FC
FE0001FC
FE0001FC
FE0001FC
FE0001FC
FE0001FC
FE0001FC
FE0001FC
FE0001FC
FE0001FC
FE0001FC
FE0001FC
7E0001F8
7F0003F8
7F0003F8
7F0003F8
3F8007F0
3F8007F0
3FC00FE0
1FF03FE0
0FFFFFC0
0FFFFFC0
07FFFF80
01FFFE00
00FFFC00
001FE000
ENDCHAR
STARTCHAR 0031
ENCODING 49
SWIDTH 600 0
DWIDTH 36 0
BBX 31 42 3 0
BITMAP
003FF800
007FF800
00FFF800
01FFF800
03FFF800
07FBF800
07F3F800
0FE3F800
1FC3F800
3FC3F800
7F83F800
FF03F800
FE03F800
7C03F800
3803F800
1003F800
0003F800
0003F800
0003F800
0003F800
0003F800
0003F800
0003F800
0003F800
0003F800
0003F800
0003F800
0003F800
0003F800
0003F800
0003F800
0003F800
0003F800
0003F800
0003F800
0003F800
3FFFFFFE
3FFFFFFE
3FFFFFFE
3FFFFFFE
3FFFFFFE
3FFFFFFE
ENDCHAR
STARTCHAR 0032
ENCODING 50
SWIDTH 600 0
DWIDTH 36 0
BBX 29 43 3 0
BITMAP
003FE000
00FFFC00
03FFFE00
07FFFF80
0FFFFFC0
1FFFFFC0
3FE07FE0
3F801FE0
7F000FF0
7F000FF0
FE0007F0
1E0007F0
040007F0
000007F0
000007F0
000007F0
00000FF0
00000FE0
00001FE0
00001FC0
00003FC0
00007F80
0000FF00
0001FF00
0003FE00
0007FC00
000FF800
001FF000
003FC000
007F8000
01FF0000
03FE0000
07FC0000
0FF00000
1FE00000
3FC00000
7F800000
7FFFFFF8
7FFFFFF8
7FFFFFF8
7FFFFFF8
7FFFFFF8
7FFFFFF8
ENDCHAR
STARTCHAR 0033
ENCODING 51
SWIDTH 600 0
DWIDTH 36 0
BBX 29 44 2 -1
BITMAP
001FE000
00FFFC00
03FFFF00
07FFFF80
0FFFFFC0
1FFFFFE0
3FE03FF0
3F800FF0
1F000FF0
0E0007F0
040007F0
000007F0
000007F0
000007F0
000007F0
00000FE0
00001FE0
00007FC0
007FFF80
007FFE00
007FF800
007FFE00
007FFF80
007FFFC0
00003FE0
00000FF0
000007F0
000007F8
000003F8
000003F8
000003F8
000003F8
080003F8
1C0003F8
3C0007F8
7E0007F8
FF800FF0
7FE03FF0
3FFFFFE0
1FFFFFC0
0FFFFF80
07FFFF00
01FFFC00
003FE000
ENDCHAR
STARTCHAR 0034
ENCODING 52
SWIDTH 600 0
DWIDTH 36 0
BBX 32 42 2 0
BITMAP
00007FC0
0000FFC0
0000FFC0
0001FFC0
0003FFC0
0003FFC0
0007EFC0
000FCFC0
000FCFC0
001F8FC0
001F8FC0
003F0FC0
007E0FC0
007E0FC0
00FC0FC0
00F80FC0
01F80FC0
03F00FC0
03F00FC0
07E00FC0
0FC00FC0
0FC00FC0
1F800FC0
1F800FC0
3F000FC0
7E000FC0
7E000FC0
FC000FC0
FFFFFFFF
FFFFFFFF
FFFFFFFF
FFFFFFFF
FFFFFFFF
FFFFFFFF
00000FC0
00000FC0
00000FC0
00000FC0
00000FC0
00000FC0
00000FC0
00000FC0
ENDCHAR
STARTCHAR 0035
ENCODING 53
SWIDTH 600 0
DWIDTH 36 0
BBX 29 43 4 -1
BITMAP
1FFFFFC0
1FFFFFC0
1FFFFFC0
3FFFFFC0
3FFFFFC0
3FFFFFC0
3F000000
3F000000
3F000000
3F000000
3F000000
3E000000
3E000000
3E000000
3E000000
3E07F000
3E1FFC00
3E3FFF00
7E7FFF80
7EFFFFC0
7FFFFFE0
7FE07FE0
7F801FF0
7F000FF0
000007F0
000007F0
000007F8
000007F8
000003F8
000003F8
000007F8
080007F0
1C0007F0
3C0007F0
7E000FF0
FF001FE0
7FC07FE0
7FFFFFC0
3FFFFF80
1FFFFF00
07FFFE00
03FFF800
007FC000
ENDCHAR
STARTCHAR 0036
ENCODING 54
SWIDTH 600 0
DWIDTH 36 0
BBX 30 43 3 -1
BITMAP
0001FF00
0007FC00
000FF800
001FF000
003FE000
007F8000
00FF0000
01FE0000
01FC0000
03F80000
07F80000
07F00000
0FE00000
0FE00000
1FC00000
1F83F800
3F8FFF00
3F9FFF80
3F3FFFC0
7F7FFFE0
7FFFFFF0
7EF03FF0
7FC00FF8
FF8007F8
FF0003F8
FF0003FC
FF0001FC
FE0001FC
FE0001FC
7E0001FC
7E0001FC
7F0001FC
7F0003F8
7F0003F8
3F8007F8
3FC00FF0
1FF03FF0
1FFFFFE0
0FFFFFC0
07FFFF80
03FFFF00
00FFFC00
001FE000
ENDCHAR
STARTCHAR 0037
ENCODING 55
SWIDTH 600 0
DWIDTH 36 0
BBX 28 42 4 0
BITMAP
FFFFFFF0
FFFFFFF0
FFFFFFF0
FFFFFFF0
FFFFFFF0
FFFFFFF0
FC0007F0
FC0007F0
FC000FE0
FC000FE0
FC000FC0
FC001FC0
FC001FC0
FC003F80
00003F80
00007F00
00007F00
00007F00
0000FE00
0000FE00
0001FC00
0001FC00
0003F800
0003F800
0003F800
0007F000
0007F000
000FE000
000FE000
000FE000
001FC000
001FC000
003F8000
003F8000
007F8000
007F0000
007F0000
00FE0000
00FE0000
01FC0000
01FC0000
03FC0000
ENDCHAR
STARTCHAR 0038
ENCODING 56
SWIDTH 600 0
DWIDTH 36 0
BBX 30 44 3 -1
BITMAP
003FF000
01FFFE00
03FFFF80
0FFFFFC0
1FFFFFE0
1FFFFFE0
3FF03FF0
3FC00FF0
7F8007F8
7F0003F8
7F0003F8
7F0003F8
7F0003F8
3F0003F0
3F0003F0
3F8007F0
1FC00FE0
0FF03FC0
07FFFF80
03FFFF00
00FFFC00
01FFFE00
07FFFF80
1FFFFFE0
3FE01FF0
3F8007F0
7F0003F8
7F0003F8
FE0001FC
FE0001FC
FE0001FC
FE0001FC
FE0001FC
FE0001FC
FF0003FC
7F0003F8
7F8007F8
7FE01FF0
3FFFFFF0
1FFFFFE0
0FFFFFC0
07FFFF80
01FFFE00
003FF000
ENDCHAR
STARTCHAR 0039
ENCODING 57
SWIDTH 600 0
DWIDTH 36 0
BBX 30 43 3 0
BITMAP
001FE000
00FFFC00
03FFFF00
07FFFF80
0FFFFFC0
1FFFFFE0
3FF03FE0
3FC00FF0
7F8007F0
7F0003F8
7F0003F8
FE0003F8
FE0001F8
FE0001F8
FE0001FC
FE0001FC
FE0003FC
FF0003FC
7F0003FC
7F8007F8
7FC00FF8
3FF03DF8
3FFFFFF8
1FFFFBF8
0FFFF3F0
07FFE7F0
03FFC7F0
007F0FE0
00000FE0
00001FC0
00001FC0
00003F80
00007F80
00007F00
0000FE00
0001FE00
0003FC00
0007F800
001FF000
003FE000
007FC000
00FF8000
03FE0000
ENDCHAR
STARTCHAR 003A
ENCODING 58
SWIDTH 316 0
DWIDTH 19 0
BBX 9 33 5 -1
BITMAP
3E00
7F00
FF00
FF80
FF80
FF80
FF00
7F00
3E00
0000
0000
0000
0000
0000
0000
0000
0000
0000
0000
0000
0000
0000
0000
0000
3E00
7F00
FF00
FF80
FF80
FF80
FF00
7F00
3E00
ENDCHAR
STARTCHAR 003B
ENCODING 59
SWIDTH 316 0
DWIDTH 19 0
BBX 11 41 3 -9
BITMAP
0F80
1FC0
3FC0
3FE0
3FE0
3FE0
3FC0
1FC0
0F80
0000
0000
0000
0000
0000
0000
0000
0000
0000
0000
0000
0000
0000
0000
0000
0F80
1FC0
3FC0
3FE0
3FE0
3FE0
3FE0
1FC0
0FC0
07C0
0FC0
0F80
0F80
1F00
3E00
7C00
F800
ENDCHAR
STARTCHAR 003C
ENCODING 60
SWIDTH 600 0
DWIDTH 36 0
BBX 24 35 6 0
BITMAP
000001
000003
00000F
00001F
00007F
0001FF
0003FF
000FFE
003FF8
007FE0
01FFC0
03FF00
0FFC00
3FF800
7FE000
FF8000
FF0000
FC0000
FF0000
FF8000
7FE000
3FF800
0FFC00
03FF00
01FFC0
007FE0
003FF8
000FFE
0003FF
0001FF
00007F
00001F
00000F
000003
000001
ENDCHAR
STARTCHAR 003D
ENCODING 61
SWIDTH 600 0
DWIDTH 36 0
BBX 28 19 4 9
BITMAP
FFFFFFF0
FFFFFFF0
FFFFFFF0
FFFFFFF0
FFFFFFF0
FFFFFFF0
00000000
00000000
00000000
00000000
00000000
00000000
00000000
FFFFFFF0
FFFFFFF0
FFFFFFF0
FFFFFFF0
FFFFFFF0
FFFFFFF0
ENDCHAR
STARTCHAR 003E
ENCODING 62
SWIDTH 600 0
DWIDTH 36 0
BBX 24 35 6 0
BITMAP
800000
C00000
F00000
F80000
FE0000
FF8000
FFC000
7FF000
1FFC00
07FE00
03FF80
00FFC0
003FF0
001FFC
0007FE
0001FF
0000FF
00003F
0000FF
0001FF
0007FE
001FFC
003FF0
00FFC0
03FF80
07FE00
1FFC00
7FF000
FFC000
FF8000
FE0000
F80000
F00000
C00000
800000
ENDCHAR
STARTCHAR 003F
ENCODING 63
SWIDTH 483 0
DWIDTH 29 0
BBX 26 44 1 -1
BITMAP
007FC000
01FFF000
07FFFC00
0FFFFE00
1FFFFF00
3FFFFF80
3FC0FF80
7F803FC0
7F003FC0
FE001FC0
3C001FC0
0C001FC0
00001FC0
00001FC0
00001FC0
00001FC0
00003F80
00007F80
0000FF00
0007FF00
007FFE00
007FF800
007FF000
007F8000
007E0000
007E0000
007E0000
007E0000
007E0000
007E0000
00000000
00000000
00000000
00000000
00000000
003E0000
007F0000
00FF8000
00FF8000
00FF8000
00FF8000
00FF8000
007F0000
003E0000
ENDCHAR
STARTCHAR 0040
ENCODING 64
SWIDTH 900 0
DWIDTH 54 0
BBX 46 49 4 -7
BITMAP
00003FF80000
0001FFFF8000
000FFFFFE000
003FFFFFF800
007FE00FFC00
00FF0001FE00
01FC00007F00
03F000001F80
07E000000FC0
0FC0000007E0
1F80000003E0
1F00000001F0
3E003F0001F0
3E00FFCF80F8
3C01FFEF80F8
7C03FFEF8078
7807F07F8078
7807E01F807C
F80FC01F807C
F80FC00F807C
F80F800F807C
F81F800F807C
F01F800F807C
F01F800F807C
F01F800F807C
F01F800F807C
F01F800F807C
F01F800F807C
F81F800F807C
F80F800F8078
F80FC00F80F8
F80FC01F80F8
7807E01FC1F0
7C07F077C3F0
7C03FFF7FFE0
3E01FFE7FFC0
3E00FFC3FF80
1F003F00FC00
1F0000000000
0F8000000000
07C000000000
07F000000000
03F800000000
01FE00000000
007FE0000000
003FFFFFF800
000FFFFFF800
0003FFFFF800
00003FFFF800
ENDCHAR
STARTCHAR 0041
ENCODING 65
SWIDTH 666 0
DWIDTH 40 0
BBX 37 42 1 0
BITMAP
0003FE0000
0003FF0000
0003FF0000
0007FF0000
0007FF8000
0007FF8000
000FDF8000
000FDFC000
000FCFC000
001FCFC000
001F8FE000
001F87E000
003F87E000
003F07F000
003F07F000
007F03F000
007E03F800
007E03F800
00FE01F800
00FC01FC00
00FC01FC00
01FC00FC00
01F800FE00
01F800FE00
03F8007E00
03FFFFFF00
03FFFFFF00
07FFFFFF00
07FFFFFF80
07FFFFFF80
0FFFFFFF80
0FE0001FC0
0FC0001FC0
1FC0001FE0
1FC0000FE0
1F80000FE0
3F80000FF0
3F800007F0
7F000007F0
7F000007F8
7F000003F8
FE000003F8
ENDCHAR
STARTCHAR 0042
ENCODING 66
SWIDTH 666 0
DWIDTH 40 0
BBX 31 42 5 0
BITMAP
FFFFFE00
FFFFFF80
FFFFFFE0
FFFFFFE0
FFFFFFF0
FFFFFFF8
FE000FF8
FE0003FC
FE0003FC
FE0001FC
FE0001FC
FE0001FC
FE0001FC
FE0001FC
FE0003F8
FE0003F8
FE000FF0
FFFFFFE0
FFFFFF80
FFFFFE00
FFFFFFC0
FFFFFFF0
FFFFFFF8
FE0007FC
FE0001FC
FE0000FE
FE0000FE
FE0000FE
FE0000FE
FE0000FE
FE0000FE
FE0000FE
FE0000FE
FE0000FE
FE0001FE
FE0007FC
FFFFFFFC
FFFFFFF8
FFFFFFF0
FFFFFFE0
FFFFFFC0
FFFFFF00
ENDCHAR
STARTCHAR 0043
ENCODING 67
SWIDTH 633 0
DWIDTH 38 0
BBX 33 44 3 -1
BITMAP
0007FE0000
003FFF8000
007FFFE000
01FFFFF800
03FFFFFC00
07FFFFFC00
0FFC07FE00
0FF001FF00
1FE0007F00
1FC0007F80
3F80003E00
3F80001800
3F00002000
7F00000000
7F00000000
7F00000000
7F00000000
7F00000000
FF00000000
FF00000000
FF00000000
FF00000000
FF00000000
FF00000000
FF00000000
FF00000000
7F00000000
7F00000000
7F00000000
7F00000000
7F00000000
7F00001000
3F80001C00
3F80003F00
1FC0003F80
1FE0007F00
0FF001FF00
0FFC07FE00
07FFFFFC00
03FFFFF800
01FFFFF000
00FFFFE000
003FFF8000
0007FC0000
ENDCHAR
STARTCHAR 0044
ENCODING 68
SWIDTH 683 0
DWIDTH 41 0
BBX 33 42 5 0
BITMAP
FFFFF00000
FFFFFE0000
FFFFFF8000
FFFFFFC000
FFFFFFE000
FFFFFFF000
FE003FF800
FE0007F800
FE0003FC00
FE0001FE00
FE0000FE00
FE0000FE00
FE00007F00
FE00007F00
FE00007F00
FE00007F00
FE00007F00
FE00007F00
FE00007F80
FE00007F80
FE00007F80
FE00007F80
FE00007F80
FE00007F80
FE00007F80
FE00007F00
FE00007F00
FE00007F00
FE00007F00
FE00007F00
FE0000FE00
FE0000FE00
FE0001FE00
FE0003FC00
FE0007FC00
FE003FF800
FFFFFFF000
FFFFFFE000
FFFFFFC000
FFFFFF8000
FFFFFE0000
FFFFF00000
ENDCHAR
STARTCHAR 0045
ENCODING 69
SWIDTH 600 0
DWIDTH 36 0
BBX 27 42 5 0
BITMAP
FFFFFFE0
FFFFFFE0
FFFFFFE0
FFFFFFE0
FFFFFFE0
FFFFFFE0
FE000000
FE000000
FE000000
FE000000
FE000000
FE000000
FE000000
FE000000
FE000000
FE000000
FE000000
FE000000
FFFFFF80
FFFFFF80
FFFFFF80
FFFFFF80
FFFFFF80
FFFFFF80
FE000000
FE000000
FE000000
FE000000
FE000000
FE000000
FE000000
FE000000
FE000000
FE000000
FE000000
FE000000
FFFFFFE0
FFFFFFE0
FFFFFFE0
FFFFFFE0
FFFFFFE0
FFFFFFE0
ENDCHAR
STARTCHAR 0046
ENCODING 70
SWIDTH 566 0
DWIDTH 34 0
BBX 26 42 5 0
BITMAP
FFFFFFC0
FFFFFFC0
FFFFFFC0
FFFFFFC0
FFFFFFC0
FFFFFFC0
FE000000
FE000000
FE000000
FE000000
FE000000
FE000000
FE000000
FE000000
FE000000
FE000000
FE000000
FE000000
FFFFFF00
FFFFFF00
FFFFFF00
FFFFFF00
FFFFFF00
FFFFFF00
FE000000
FE000000
FE000000
FE000000
FE000000
FE000000
FE000000
FE000000
FE000000
FE000000
FE000000
FE000000
FE000000
FE000000
FE000000
FE000000
FE000000
FE000000
ENDCHAR
STARTCHAR 0047
ENCODING 71
SWIDTH 700 0
DWIDTH 42 0
BBX 35 44 3 -1
BITMAP
0003FE0000
001FFFC000
007FFFF000
00FFFFFC00
03FFFFFE00
07FFFFFF00
07FE03FF80
0FF800FF80
1FE0003FC0
1FC0001FC0
3FC0000F00
3F80000C00
3F80000800
7F00000000
7F00000000
7F00000000
7F00000000
7F00000000
FF00000000
FF00000000
FF000FFFE0
FF000FFFE0
FF000FFFE0
FF000FFFE0
FF000FFFE0
FF000FFFE0
7F00000FE0
7F00000FE0
7F00000FE0
7F00000FE0
7F00000FE0
3F80000FE0
3F80000FE0
3FC0000FE0
1FC0001FE0
1FE0003FE0
0FF8007FE0
0FFE03FFE0
07FFFFF7E0
03FFFFF7E0
01FFFFE7E0
007FFFC7E0
003FFF07E0
0007FC0000
ENDCHAR
STARTCHAR 0048
ENCODING 72
SWIDTH 716 0
DWIDTH 43 0
BBX 33 42 5 0
BITMAP
FE00003F80
FE00003F80
FE00003F80
FE00003F80
FE00003F80
FE00003F80
FE00003F80
FE00003F80
FE00003F80
FE00003F80
FE00003F80
FE00003F80
FE00003F80
FE00003F80
FE00003F80
FE00003F80
FE00003F80
FE00003F80
FFFFFFFF80
FFFFFFFF80
FFFFFFFF80
FFFFFFFF80
FFFFFFFF80
FFFFFFFF80
FE00003F80
FE00003F80
FE00003F80
FE00003F80
FE00003F80
FE00003F80
FE00003F80
FE00003F80
FE00003F80
FE00003F80
FE00003F80
FE00003F80
FE00003F80
FE00003F80
FE00003F80
FE00003F80
FE00003F80
FE00003F80
ENDCHAR
STARTCHAR 0049
ENCODING 73
SWIDTH 416 0
DWIDTH 25 0
BBX 19 42 3 0
BITMAP
FFFFE0
FFFFE0
FFFFE0
FFFFE0
FFFFE0
FFFFE0
03F800
03F800
03F800
03F800
03F800
03F800
03F800
03F800
03F800
03F800
03F800
03F800
03F800
03F800
03F800
03F800
03F800
03F800
03F800
03F800
03F800
03F800
03F800
03F800
03F800
03F800
03F800
03F800
03F800
03F800
FFFFE0
FFFFE0
FFFFE0
FFFFE0
FFFFE0
FFFFE0
ENDCHAR
STARTCHAR 004A
ENCODING 74
SWIDTH 533 0
DWIDTH 32 0
BBX 25 43 2 -1
BITMAP
0FFFFF80
0FFFFF80
0FFFFF80
0FFFFF80
0FFFFF80
0FFFFF80
00003F80
00003F80
00003F80
00003F80
00003F80
00003F80
00003F80
00003F80
00003F80
00003F80
00003F80
00003F80
00003F80
00003F80
00003F80
00003F80
00003F80
00003F80
00003F80
00003F80
00003F80
00003F80
00003F80
00003F80
00003F80
0C003F80
FC003F80
FE003F80
FE007F00
FF00FF00
7FC1FF00
7FFFFE00
3FFFFC00
1FFFFC00
0FFFF800
03FFE000
00FF0000
ENDCHAR
STARTCHAR 004B
ENCODING 75
SWIDTH 666 0
DWIDTH 40 0
BBX 34 42 5 0
BITMAP
FE0000FF00
FE0001FE00
FE0003FC00
FE0003F800
FE0007F800
FE000FF000
FE001FE000
FE003FC000
FE007F8000
FE007F0000
FE00FF0000
FE01FE0000
FE03FC0000
FE07F80000
FE07F00000
FE0FE00000
FE1FC00000
FE3FC00000
FE7FC00000
FE7FE00000
FEFFE00000
FFFFF00000
FFFFF80000
FFF7F80000
FFE3FC0000
FFC1FE0000
FF81FE0000
FF00FF0000
FE007F8000
FE007F8000
FE003FC000
FE001FE000
FE001FE000
FE000FF000
FE0007F800
FE0007F800
FE0003FC00
FE0003FE00
FE0001FE00
FE0000FF00
FE0000FF80
FE00007FC0
ENDCHAR
STARTCHAR 004C
ENCODING 76
SWIDTH 516 0
DWIDTH 31 0
BBX 24 42 5 0
BITMAP
FE0000
FE0000
FE0000
FE0000
FE0000
FE0000
FE0000
FE0000
FE0000
FE0000
FE0000
FE0000
FE0000
FE0000
FE0000
FE0000
FE0000
FE0000
FE0000
FE0000
FE0000
FE0000
FE0000
FE0000
FE0000
FE0000
FE0000
FE0000
FE0000
FE0000
FE0000
FE0000
FE0000
FE0000
FE0000
FE0000
FFFFFF
FFFFFF
FFFFFF
FFFFFF
FFFFFF
FFFFFF
ENDCHAR
STARTCHAR 004D
ENCODING 77
SWIDTH 816 0
DWIDTH 49 0
BBX 39 42 5 0
BITMAP
FF000001FE
FF800003FE
FFC00003FE
FFC00007FE
FFE00007FE
FFE0000FFE
FFF0000FFE
FFF0001FFE
FFF8003FFE
FFF8003FFE
FFFC007FFE
FEFC007EFE
FEFE00FEFE
FE7E00FCFE
FE7F01FCFE
FE3F81F8FE
FE3F83F8FE
FE1FC3F0FE
FE1FC7F0FE
FE0FE7E0FE
FE0FEFC0FE
FE07FFC0FE
FE03FF80FE
FE03FF80FE
FE01FF00FE
FE01FF00FE
FE00FE00FE
FE00FC00FE
FE007C00FE
FE007800FE
FE003800FE
FE001000FE
FE001000FE
FE000000FE
FE000000FE
FE000000FE
FE000000FE
FE000000FE
FE000000FE
FE000000FE
FE000000FE
FE000000FE
ENDCHAR
STARTCHAR 004E
ENCODING 78
SWIDTH 716 0
DWIDTH 43 0
BBX 33 42 5 0
BITMAP
FF00003F80
FF80003F80
FF80003F80
FFC0003F80
FFC0003F80
FFE0003F80
FFF0003F80
FFF0003F80
FFF8003F80
FFF8003F80
FFFC003F80
FEFC003F80
FEFE003F80
FE7F003F80
FE7F003F80
FE3F803F80
FE3F803F80
FE1FC03F80
FE1FE03F80
FE0FE03F80
FE0FF03F80
FE07F03F80
FE03F83F80
FE03FC3F80
FE01FC3F80
FE01FE3F80
FE00FE3F80
FE007F3F80
FE007F3F80
FE003FBF80
FE003FBF80
FE001FFF80
FE000FFF80
FE000FFF80
FE0007FF80
FE0007FF80
FE0003FF80
FE0003FF80
FE0001FF80
FE0000FF80
FE0000FF80
FE00007F80
ENDCHAR
STARTCHAR 004F
ENCODING 79
SWIDTH 716 0
DWIDTH 43 0
BBX 36 44 3 -1
BITMAP
0003FE0000
001FFFC000
007FFFF000
01FFFFF800
03FFFFFC00
07FFFFFE00
07FE03FF00
0FF800FF80
1FE0007F80
1FC0003FC0
3FC0001FC0
3F80000FE0
3F80000FE0
7F00000FE0
7F000007F0
7F000007F0
7F000007F0
7F000007F0
FF000007F0
FF000007F0
FF000007F0
FF000007F0
FF000007F0
FF000007F0
FF000007F0
FF000007F0
7F000007F0
7F000007F0
7F000007F0
7F000007F0
7F00000FE0
3F80000FE0
3F80000FE0
3FC0001FC0
1FC0003FC0
1FE0007F80
0FF800FF80
07FE03FF00
07FFFFFE00
03FFFFFC00
01FFFFF800
007FFFF000
001FFFC000
0003FE0000
ENDCHAR
STARTCHAR 0050
ENCODING 80
SWIDTH 633 0
DWIDTH 38 0
BBX 30 42 5 0
BITMAP
FFFFFC00
FFFFFF80
FFFFFFC0
FFFFFFE0
FFFFFFF0
FFFFFFF8
FE000FF8
FE0003FC
FE0001FC
FE0001FC
FE0001FC
FE0001FC
FE0001FC
FE0001FC
FE0001FC
FE0001FC
FE0001FC
FE0003FC
FE000FF8
FFFFFFF8
FFFFFFF0
FFFFFFE0
FFFFFFC0
FFFFFF80
FFFFFC00
FE000000
FE000000
FE000000
FE000000
FE000000
FE000000
FE000000
FE000000
FE000000
FE000000
FE000000
FE000000
FE000000
FE000000
FE000000
FE000000
FE000000
ENDCHAR
STARTCHAR 0051
ENCODING 81
SWIDTH 716 0
DWIDTH 43 0
BBX 36 54 3 -11
BITMAP
0003FE0000
001FFFC000
007FFFF000
01FFFFF800
03FFFFFC00
07FFFFFE00
07FE03FF00
0FF800FF80
1FE0007F80
1FC0003FC0
3FC0001FC0
3F80000FE0
3F80000FE0
7F00000FE0
7F000007F0
7F000007F0
7F000007F0
7F000007F0
FF000007F0
FF000007F0
FF000007F0
FF000007F0
FF000007F0
FF000007F0
FF000007F0
FF000007F0
7F000007F0
7F000007F0
7F000007F0
7F000007F0
7F00000FE0
3F80000FE0
3F80000FE0
3FC0001FE0
1FC0003FC0
1FE0007FC0
0FF800FF80
0FFE03FF00
07FFFFFE00
03FFFFFE00
01FFFFF800
007FFFF000
003FFFC000
0007FF0000
0000FC0000
0000FC0000
0000FC0000
0000FC0000
0000FFF000
0000FFF000
0000FFF000
00007FF000
00003FF000
00001FF000
ENDCHAR
STARTCHAR 0052
ENCODING 82
SWIDTH 650 0
DWIDTH 39 0
BBX 31 42 5 0
BITMAP
FFFFFC00
FFFFFF80
FFFFFFC0
FFFFFFE0
FFFFFFF0
FFFFFFF8
FE000FF8
FE0003FC
FE0001FC
FE0001FC
FE0001FC
FE0001FC
FE0001FC
FE0001FC
FE0001FC
FE0001FC
FE0001FC
FE0003FC
FE000FF8
FFFFFFF8
FFFFFFF0
FFFFFFE0
FFFFFFC0
FFFFFF00
FFFFFC00
FE00FE00
FE00FE00
FE007F00
FE007F00
FE007F80
FE003F80
FE003FC0
FE001FC0
FE001FE0
FE000FE0
FE000FF0
FE0007F0
FE0007F8
FE0003F8
FE0003FC
FE0001FC
FE0001FE
ENDCHAR
STARTCHAR 0053
ENCODING 83
SWIDTH 600 0
DWIDTH 36 0
BBX 31 44 2 -1
BITMAP
000FF800
007FFF00
01FFFFC0
07FFFFE0
0FFFFFF8
0FFFFFFC
1FF00FFC
1FC003F8
3F8000F0
3F800060
3F000040
3F000000
3F000000
3F800000
3F800000
3FC00000
3FE00000
1FFC0000
1FFFC000
0FFFFC00
07FFFF80
03FFFFC0
00FFFFF0
001FFFF8
0001FFF8
00000FFC
000003FC
000001FE
000000FE
000000FE
000000FE
000000FE
080000FE
0C0000FE
1E0001FC
3F0001FC
7FC003FC
FFF00FF8
3FFFFFF8
1FFFFFF0
0FFFFFE0
03FFFF80
00FFFF00
001FF000
ENDCHAR
STARTCHAR 0054
ENCODING 84
SWIDTH 583 0
DWIDTH 35 0
BBX 32 42 1 0
BITMAP
FFFFFFFF
FFFFFFFF
FFFFFFFF
FFFFFFFF
FFFFFFFF
FFFFFFFF
0007F000
0007F000
0007F000
0007F000
0007F000
0007F000
0007F000
0007F000
0007F000
0007F000
0007F000
0007F000
0007F000
0007F000
0007F000
0007F000
0007F000
0007F000
0007F000
0007F000
0007F000
0007F000
0007F000
0007F000
0007F000
0007F000
0007F000
0007F000
0007F000
0007F000
0007F000
0007F000
0007F000
0007F000
0007F000
0007F000
ENDCHAR
STARTCHAR 0055
ENCODING 85
SWIDTH 683 0
DWIDTH 41 0
BBX 31 43 5 -1
BITMAP
FE00007E
FE00007E
FE00007E
FE00007E
FE00007E
FE00007E
FE00007E
FE00007E
FE00007E
FE00007E
FE00007E
FE00007E
FE00007E
FE00007E
FE00007E
FE00007E
FE00007E
FE00007E
FE00007E
FE00007E
FE00007E
FE00007E
FE00007E
FE00007E
FE00007E
FE00007E
FE00007E
FE00007E
FE0000FE
FE0000FE
FE0000FE
FE0000FE
7F0000FE
7F0001FC
7F8003FC
3FC007FC
3FF01FF8
1FFFFFF8
1FFFFFF0
0FFFFFE0
03FFFFC0
01FFFF00
003FF800
ENDCHAR
STARTCHAR 0056
ENCODING 86
SWIDTH 633 0
DWIDTH 38 0
BBX 36 42 1 0
BITMAP
FE000007F0
7F00000FE0
7F00000FE0
7F00000FC0
3F80001FC0
3F80001FC0
3F80001F80
1F80003F80
1FC0003F80
1FC0003F00
0FC0007F00
0FE0007F00
0FE0007E00
0FE000FE00
07F000FE00
07F000FC00
07F001FC00
03F801FC00
03F801F800
03F803F800
01FC03F800
01FC03F000
01FC03F000
00FE07F000
00FE07E000
00FE07E000
007E0FE000
007F0FC000
007F0FC000
003F0FC000
003F1FC000
003F9F8000
001F9F8000
001F9F8000
001FFF0000
000FFF0000
000FFF0000
000FFE0000
0007FE0000
0007FE0000
0007FC0000
0003FC0000
ENDCHAR
STARTCHAR 0057
ENCODING 87
SWIDTH 933 0
DWIDTH 56 0
BBX 53 42 1 0
BITMAP
FE0001FE0003F8
7F0001FE0003F8
7F0003FE0003F8
7F0003FE0003F0
7F0003FF0007F0
3F8003FF0007F0
3F8007FF0007F0
3F8007FF0007E0
3F8007DF8007E0
1F8007DF800FE0
1FC00FDF800FE0
1FC00FCF800FC0
1FC00F8FC00FC0
0FC00F8FC00FC0
0FC01F8FC01FC0
0FE01F87C01F80
0FE01F07E01F80
07E01F07E01F80
07E03F07E03F80
07E03F03E03F00
07F03E03F03F00
03F03E03F03F00
03F03E03F03F00
03F07E01F07E00
03F87C01F87E00
03F87C01F87E00
01F87C01F87E00
01F8FC00F8FC00
01F8F800FCFC00
01FCF800FCFC00
00FCF800FCFC00
00FDF8007CF800
00FDF0007DF800
00FDF0007FF800
007FF0007FF800
007FF0003FF000
007FE0003FF000
007FE0003FF000
003FE0003FF000
003FE0001FE000
003FC0001FE000
003FC0001FE000
ENDCHAR
STARTCHAR 0058
ENCODING 88
SWIDTH 633 0
DWIDTH 38 0
BBX 36 42 1 0
BITMAP
7F80000FF0
3FC0001FE0
3FC0003FC0
1FE0003F80
0FE0007F80
0FF0007F00
07F800FE00
03F801FE00
03FC01FC00
01FE03F800
01FE03F800
00FF07F000
007F0FE000
007F8FE000
003FDFC000
001FFFC000
001FFF8000
000FFF0000
0007FF0000
0007FE0000
0003FC0000
0007FE0000
0007FF0000
000FFF0000
001FFF8000
001FFFC000
003F9FC000
007F1FE000
007F0FE000
00FE07F000
01FE07F800
01FC03F800
03F803FC00
03F801FE00
07F000FE00
0FF000FF00
0FE0007F80
1FC0007F80
3FC0003FC0
3F80001FC0
7F80001FE0
FF00000FF0
ENDCHAR
STARTCHAR 0059
ENCODING 89
SWIDTH 616 0
DWIDTH 37 0
BBX 35 42 1 0
BITMAP
FF00000FE0
FF00001FE0
7F80001FC0
3F80003F80
3FC0003F80
1FC0007F00
1FE000FF00
0FE000FE00
0FF001FE00
07F001FC00
03F803F800
03FC03F800
01FC07F000
01FE07F000
00FE0FE000
00FF0FE000
007F1FC000
007F9F8000
003FBF8000
001FFF0000
001FFF0000
000FFE0000
000FFE0000
0007FC0000
0007F80000
0003F80000
0003F80000
0003F80000
0003F80000
0003F80000
0003F80000
0003F80000
0003F80000
0003F80000
0003F80000
0003F80000
0003F80000
0003F80000
0003F80000
0003F80000
0003F80000
0003F80000
ENDCHAR
STARTCHAR 005A
ENCODING 90
SWIDTH 583 0
DWIDTH 35 0
BBX 31 42 2 0
BITMAP
7FFFFFFE
7FFFFFFE
7FFFFFFE
7FFFFFFE
7FFFFFFE
7FFFFFFE
000001FC
000003FC
000007F8
00000FF0
00000FE0
00001FC0
00003FC0
00007F80
0000FF00
0000FE00
0001FE00
0003FC00
0007F800
0007F000
000FF000
001FE000
003FC000
003F8000
007F8000
00FF0000
01FE0000
01FC0000
03FC0000
07F80000
0FF00000
0FE00000
1FE00000
3FC00000
7F800000
7F000000
FFFFFFFE
FFFFFFFE
FFFFFFFE
FFFFFFFE
FFFFFFFE
FFFFFFFE
ENDCHAR
STARTCHAR 005B
ENCODING 91
SWIDTH 333 0
DWIDTH 20 0
BBX 11 54 5 -8
BITMAP
FFE0
FFE0
FFE0
FFE0
FC00
FC00
FC00
FC00
FC00
FC00
FC00
FC00
FC00
FC00
FC00
FC00
FC00
FC00
FC00
FC00
FC00
FC00
FC00
FC00
FC00
FC00
FC00
FC00
FC00
FC00
FC00
FC00
FC00
FC00
FC00
FC00
FC00
FC00
FC00
FC00
FC00
FC00
FC00
FC00
FC00
FC00
FC00
FC00
FC00
FC00
FFE0
FFE0
FFE0
FFE0
ENDCHAR
STARTCHAR 005C
ENCODING 92
SWIDTH 416 0
DWIDTH 25 0
BBX 23 53 2 -9
BITMAP
FC0000
7C0000
7E0000
7E0000
3E0000
3F0000
3F0000
1F0000
1F8000
1F8000
0F8000
0FC000
0FC000
07C000
07E000
07E000
03E000
03E000
03F000
03F000
01F000
01F800
01F800
00F800
00FC00
00FC00
007C00
007E00
007E00
003E00
003F00
003F00
001F00
001F00
001F80
001F80
000F80
000FC0
000FC0
0007C0
0007E0
0007E0
0003E0
0003F0
0003F0
0001F0
0001F8
0001F8
0000F8
0000FC
0000FC
0000FC
00007E
ENDCHAR
STARTCHAR 005D
ENCODING 93
SWIDTH 333 0
DWIDTH 20 0
BBX 11 54 3 -8
BITMAP
FFE0
FFE0
FFE0
FFE0
07E0
07E0
07E0
07E0
07E0
07E0
07E0
07E0
07E0
07E0
07E0
07E0
07E0
07E0
07E0
07E0
07E0
07E0
07E0
07E0
07E0
07E0
07E0
07E0
07E0
07E0
07E0
07E0
07E0
07E0
07E0
07E0
07E0
07E0
07E0
07E0
07E0
07E0
07E0
07E0
07E0
07E0
07E0
07E0
07E0
07E0
FFE0
FFE0
FFE0
FFE0
ENDCHAR
STARTCHAR 005E
ENCODING 94
SWIDTH 600 0
DWIDTH 36 0
BBX 30 25 3 17
BITMAP
000FC000
001FE000
001FE000
003FF000
007FF000
007FF800
00FFFC00
00FDFC00
01FCFE00
01F87E00
03F87F00
03F03F00
07E03F80
07E01F80
0FC01FC0
1FC00FE0
1F8007E0
3F8007F0
3F0003F0
7F0003F8
7E0001F8
FC0001FC
7C0000F8
180000E0
08000080
ENDCHAR
STARTCHAR 005F
ENCODING 95
SWIDTH 566 0
DWIDTH 34 0
BBX 30 6 2 -11
BITMAP
FFFFFFFC
FFFFFFFC
FFFFFFFC
FFFFFFFC
FFFFFFFC
FFFFFFFC
ENDCHAR
STARTCHAR 0060
ENCODING 96
SWIDTH 600 0
DWIDTH 36 0
BBX 11 13 10 35
BITMAP
0400
1E00
7E00
FF00
7F00
3F80
1F80
1FC0
0FC0
07E0
03E0
03C0
0100
ENDCHAR
STARTCHAR 0061
ENCODING 97
SWIDTH 550 0
DWIDTH 33 0
BBX 29 33 2 -1
BITMAP
007FC000
03FFF800
07FFFC00
0FFFFE00
1FFFFF00
3FFFFF80
3FC0FF80
1F003FC0
0E001FC0
04001FC0
00001FC0
00001FC0
00001FC0
00001FC0
007FFFC0
07FFFFC0
0FFFFFC0
3FFFFFC0
3FC01FC0
7F001FC0
7E001FC0
7E001FC0
FE001FC0
FE001FC0
FE001FC0
7F003FC0
7F80EFF8
7FFFEFF8
3FFFEFF8
3FFFC7F8
1FFF83F8
0FFF01F8
01FC0000
ENDCHAR
STARTCHAR 0062
ENCODING 98
SWIDTH 600 0
DWIDTH 36 0
BBX 28 45 5 -1
BITMAP
FC000000
FC000000
FC000000
FC000000
FC000000
FC000000
FC000000
FC000000
FC000000
FC000000
FC000000
FC000000
FC0FE000
FC3FF800
FC7FFE00
FCFFFF00
FDFFFF80
FDFFFF80
FFC0FFC0
FF003FC0
FE001FE0
FE000FE0
FC000FE0
FC0007E0
FC0007E0
FC0007F0
FC0007F0
FC0007F0
FC0007F0
FC0007F0
FC0007F0
FC0007F0
FC0007E0
FC0007E0
FC000FE0
FE000FE0
FE001FE0
FF003FC0
FFC0FFC0
FDFFFF80
FDFFFF80
FCFFFF00
FC7FFE00
FC3FF800
000FE000
ENDCHAR
STARTCHAR 0063
ENCODING 99
SWIDTH 516 0
DWIDTH 31 0
BBX 26 33 3 -1
BITMAP
003FC000
01FFF000
07FFFC00
0FFFFE00
1FFFFF00
1FFFFF00
3FE07F80
7F803F80
7F001FC0
7E000E00
FE000800
FE000000
FE000000
FC000000
FC000000
FC000000
FC000000
FC000000
FC000000
FC000000
FE000000
FE000000
FE000400
7E000F00
7F001FC0
7F803FC0
3FE07F80
3FFFFF00
1FFFFF00
0FFFFE00
07FFFC00
01FFF000
003FC000
ENDCHAR
STARTCHAR 0064
ENCODING 100
SWIDTH 600 0
DWIDTH 36 0
BBX 28 45 3 -1
BITMAP
000007F0
000007F0
000007F0
000007F0
000007F0
000007F0
000007F0
000007F0
000007F0
000007F0
000007F0
000007F0
007E07F0
03FF87F0
07FFE7F0
0FFFF7F0
1FFFF7F0
3FFFFFF0
3FE07FF0
7FC01FF0
7F000FF0
7F0007F0
FE0007F0
FE0007F0
FE0007F0
FE0007F0
FE0007F0
FE0007F0
FE0007F0
FE0007F0
FE0007F0
FE0007F0
FE0007F0
FE0007F0
FE0007F0
7F0007F0
7F000FF0
7F801FF0
3FE07FF0
3FFFFFF0
1FFFF7F0
0FFFF7F0
07FFE7F0
03FF87F0
007F0000
ENDCHAR
STARTCHAR 0065
ENCODING 101
SWIDTH 550 0
DWIDTH 33 0
BBX 28 33 3 -1
BITMAP
003FC000
01FFF800
03FFFC00
0FFFFE00
1FFFFF00
1FFFFF80
3FE07FC0
7F803FC0
7F001FE0
7E000FE0
FE000FE0
FE0007E0
FC0007F0
FC0007F0
FFFFFFF0
FFFFFFF0
FFFFFFF0
FFFFFFF0
FC000000
FC000000
FC000000
FE000000
FE000200
7F000300
7F000780
7F800FC0
3FE03FE0
1FFFFFC0
1FFFFF80
0FFFFF00
03FFFE00
01FFF800
003FC000
ENDCHAR
STARTCHAR 0066
ENCODING 102
SWIDTH 333 0
DWIDTH 20 0
BBX 17 44 2 0
BITMAP
007F80
01FF80
03FF80
07FF80
07FF80
07FF80
0FE000
0FE000
0FE000
0FE000
0FE000
0FE000
0FE000
FFFF80
FFFF80
FFFF80
FFFF80
FFFF80
FFFF80
0FE000
0FE000
0FE000
0FE000
0FE000
0FE000
0FE000
0FE000
0FE000
0FE000
0FE000
0FE000
0FE000
0FE000
0FE000
0FE000
0FE000
0FE000
0FE000
0FE000
0FE000
0FE000
0FE000
0FE000
0FE000
ENDCHAR
STARTCHAR 0067
ENCODING 103
SWIDTH 533 0
DWIDTH 32 0
BBX 30 50 2 -13
BITMAP
000003F8
000007F8
00000FF8
00000FF8
00000FF8
003FCFF8
01FFFC00
07FFFE00
0FFFFF00
1FFFFF80
1FE07F80
3F801FC0
3F800FC0
3F000FC0
3F000FE0
3F000FE0
3F000FE0
3F000FC0
3F800FC0
3F801FC0
1FE07F80
1FFFFF80
0FFFFF00
07FFFE00
01FFF800
07FFE000
0F000000
1E000000
3E000000
3E000000
3F000000
3FFFFF00
3FFFFFC0
1FFFFFF0
0FFFFFF0
07FFFFF8
0FFFFFF8
3E0003FC
7C0001FC
7C0000FC
FC0000FC
FC0000FC
FC0001FC
FE0001F8
FF0007F8
7FFFFFF0
7FFFFFE0
1FFFFFC0
0FFFFF00
00FFF000
ENDCHAR
STARTCHAR 0068
ENCODING 104
SWIDTH 583 0
DWIDTH 35 0
BBX 25 44 5 0
BITMAP
FC000000
FC000000
FC000000
FC000000
FC000000
FC000000
FC000000
FC000000
FC000000
FC000000
FC000000
FC000000
FC0FE000
FC3FF800
FC7FFC00
FCFFFE00
FDFFFF00
FDFFFF00
FFC0FF80
FF007F80
FE003F80
FE003F80
FC001F80
FC001F80
FC001F80
FC001F80
FC001F80
FC001F80
FC001F80
FC001F80
FC001F80
FC001F80
FC001F80
FC001F80
FC001F80
FC001F80
FC001F80
FC001F80
FC001F80
FC001F80
FC001F80
FC001F80
FC001F80
FC001F80
ENDCHAR
STARTCHAR 0069
ENCODING 105
SWIDTH 266 0
DWIDTH 16 0
BBX 8 45 4 0
BITMAP
3C
7E
FF
FF
FF
FF
7E
3C
00
00
00
00
00
00
7E
7E
7E
7E
7E
7E
7E
7E
7E
7E
7E
7E
7E
7E
7E
7E
7E
7E
7E
7E
7E
7E
7E
7E
7E
7E
7E
7E
7E
7E
7E
ENDCHAR
STARTCHAR 006A
ENCODING 106
SWIDTH 266 0
DWIDTH 16 0
BBX 12 57 0 -12
BITMAP
03C0
07E0
0FF0
0FF0
0FF0
0FF0
07E0
03C0
0000
0000
0000
0000
0000
0000
07E0
07E0
07E0
07E0
07E0
07E0
07E0
07E0
07E0
07E0
07E0
07E0
07E0
07E0
07E0
07E0
07E0
07E0
07E0
07E0
07E0
07E0
07E0
07E0
07E0
07E0
07E0
07E0
07E0
07E0
07E0
07E0
07E0
07E0
07E0
07E0
07E0
FFE0
FFE0
FFC0
FFC0
FF80
FE00
ENDCHAR
STARTCHAR 006B
ENCODING 107
SWIDTH 550 0
DWIDTH 33 0
BBX 27 44 5 0
BITMAP
FC000000
FC000000
FC000000
FC000000
FC000000
FC000000
FC000000
FC000000
FC000000
FC000000
FC000000
FC000000
FC000000
FC003FC0
FC007F80
FC00FF00
FC01FE00
FC03FC00
FC07F800
FC07F000
FC0FE000
FC1FC000
FC3F8000
FC7F0000
FCFF0000
FCFE0000
FDFF0000
FFFF8000
FFFF8000
FFDFC000
FF9FE000
FF0FE000
FF07F000
FE07F800
FC03F800
FC03FC00
FC01FC00
FC00FE00
FC00FF00
FC007F00
FC007F80
FC003FC0
FC001FC0
FC001FE0
ENDCHAR
STARTCHAR 006C
ENCODING 108
SWIDTH 283 0
DWIDTH 17 0
BBX 11 44 5 0
BITMAP
FC00
FC00
FC00
FC00
FC00
FC00
FC00
FC00
FC00
FC00
FC00
FC00
FC00
FC00
FC00
FC00
FC00
FC00
FC00
FC00
FC00
FC00
FC00
FC00
FC00
FC00
FC00
FC00
FC00
FC00
FC00
FC00
FC00
FC00
FC00
FC00
FC00
FC00
FFE0
FFE0
FFE0
7FE0
3FE0
1FE0
ENDCHAR
STARTCHAR 006D
ENCODING 109
SWIDTH 883 0
DWIDTH 53 0
BBX 44 32 5 0
BITMAP
000FC003F800
FC3FF00FFE00
FC7FFC1FFF00
FCFFFC3FFF80
FDFFFE7FFFC0
FDFFFF7FFFC0
FFC1FFF03FE0
FF007FE01FE0
FE007FC00FE0
FE003F800FE0
FC003F8007E0
FC003F8007F0
FC003F8007F0
FC003F8007F0
FC003F8007F0
FC003F8007F0
FC003F8007F0
FC003F8007F0
FC003F8007F0
FC003F8007F0
FC003F8007F0
FC003F8007F0
FC003F8007F0
FC003F8007F0
FC003F8007F0
FC003F8007F0
FC003F8007F0
FC003F8007F0
FC003F8007F0
FC003F8007F0
FC003F8007F0
FC003F8007F0
ENDCHAR
STARTCHAR 006E
ENCODING 110
SWIDTH 583 0
DWIDTH 35 0
BBX 25 32 5 0
BITMAP
000FE000
FC3FF800
FC7FFC00
FCFFFE00
FDFFFF00
FDFFFF00
FFC0FF80
FF007F80
FE003F80
FE003F80
FC001F80
FC001F80
FC001F80
FC001F80
FC001F80
FC001F80
FC001F80
FC001F80
FC001F80
FC001F80
FC001F80
FC001F80
FC001F80
FC001F80
FC001F80
FC001F80
FC001F80
FC001F80
FC001F80
FC001F80
FC001F80
FC001F80
ENDCHAR
STARTCHAR 006F
ENCODING 111
SWIDTH 566 0
DWIDTH 34 0
BBX 28 33 3 -1
BITMAP
003FC000
01FFF800
03FFFC00
0FFFFE00
1FFFFF00
1FFFFF80
3FE07FC0
7F801FC0
7F000FE0
7E000FE0
FE0007E0
FE0007F0
FE0007F0
FC0007F0
FC0007F0
FC0007F0
FC0007F0
FC0007F0
FC0007F0
FC0007F0
FE0007F0
FE0007F0
FE0007E0
7E000FE0
7F000FE0
7F801FC0
3FE07FC0
1FFFFF80
1FFFFF00
0FFFFE00
03FFFC00
01FFF800
003FC000
ENDCHAR
STARTCHAR 0070
ENCODING 112
SWIDTH 600 0
DWIDTH 36 0
BBX 28 44 5 -12
BITMAP
000FE000
FC3FF800
FC7FFE00
FCFFFF00
FDFFFF80
FDFFFF80
FFC0FFC0
FF003FC0
FE001FE0
FE000FE0
FC000FE0
FC0007E0
FC0007E0
FC0007F0
FC0007F0
FC0007F0
FC0007F0
FC0007F0
FC0007F0
FC0007F0
FC0007E0
FC0007E0
FC000FE0
FE000FE0
FE001FE0
FF003FC0
FFC0FFC0
FDFFFF80
FDFFFF80
FCFFFF00
FC7FFE00
FC3FF800
FC0FE000
FC000000
FC000000
FC000000
FC000000
FC000000
FC000000
FC000000
FC000000
FC000000
FC000000
FC000000
ENDCHAR
STARTCHAR 0071
ENCODING 113
SWIDTH 600 0
DWIDTH 36 0
BBX 28 44 3 -12
BITMAP
007E0000
03FF87F0
07FFE7F0
0FFFF7F0
1FFFF7F0
3FFFFFF0
3FE07FF0
7FC01FF0
7F000FF0
7F0007F0
FE0007F0
FE0007F0
FE0007F0
FE0007F0
FE0007F0
FE0007F0
FE0007F0
FE0007F0
FE0007F0
FE0007F0
FE0007F0
FE0007F0
FE0007F0
7F0007F0
7F000FF0
7F801FF0
3FE07FF0
3FFFFFF0
1FFFF7F0
0FFFF7F0
07FFE7F0
03FF87F0
007F07F0
000007F0
000007F0
000007F0
000007F0
000007F0
000007F0
000007F0
000007F0
000007F0
000007F0
000007F0
ENDCHAR
STARTCHAR 0072
ENCODING 114
SWIDTH 383 0
DWIDTH 23 0
BBX 17 31 5 0
BITMAP
FC0F80
FC3F80
FCFF80
FCFF80
FDFF80
FDFF80
FFC000
FF0000
FE0000
FC0000
FC0000
FC0000
FC0000
FC0000
FC0000
FC0000
FC0000
FC0000
FC0000
FC0000
FC0000
FC0000
FC0000
FC0000
FC0000
FC0000
FC0000
FC0000
FC0000
FC0000
FC0000
ENDCHAR
STARTCHAR 0073
ENCODING 115
SWIDTH 500 0
DWIDTH 30 0
BBX 25 33 2 -1
BITMAP
007F8000
03FFF000
0FFFF800
1FFFFE00
1FFFFF00
3FFFFF00
3FC0FE00
7F003C00
7F000800
7E000000
7F000000
7F000000
7FC00000
3FFF0000
3FFFE000
1FFFF800
0FFFFE00
07FFFE00
01FFFF00
000FFF00
00007F80
00003F80
00001F80
08001F80
1C003F80
7E003F80
FF80FF00
FFFFFF00
7FFFFE00
3FFFFC00
0FFFF800
07FFF000
00FF8000
ENDCHAR
STARTCHAR 0074
ENCODING 116
SWIDTH 366 0
DWIDTH 22 0
BBX 18 40 2 0
BITMAP
07E000
07E000
07E000
07E000
07E000
07E000
07E000
07E000
0FE000
FFFFC0
FFFFC0
FFFFC0
FFFFC0
FFFFC0
FFFFC0
0FE000
0FE000
0FE000
0FE000
0FE000
0FE000
0FE000
0FE000
0FE000
0FE000
0FE000
0FE000
0FE000
0FE000
0FE000
0FE000
0FE000
0FE000
0FE000
0FFF80
07FF80
07FF80
07FF80
03FF80
00FF80
ENDCHAR
STARTCHAR 0075
ENCODING 117
SWIDTH 583 0
DWIDTH 35 0
BBX 26 32 4 -1
BITMAP
FE000FC0
FE000FC0
FE000FC0
FE000FC0
FE000FC0
FE000FC0
FE000FC0
FE000FC0
FE000FC0
FE000FC0
FE000FC0
FE000FC0
FE000FC0
FE000FC0
FE000FC0
FE000FC0
FE000FC0
FE000FC0
FE000FC0
FE000FC0
FE000FC0
FE001FC0
7F001FC0
7F001FC0
7F803FC0
7FC0FFC0
3FFFEFC0
3FFFEFC0
1FFFCFC0
0FFF8FC0
07FF0FC0
01FC0000
ENDCHAR
STARTCHAR 0076
ENCODING 118
SWIDTH 516 0
DWIDTH 31 0
BBX 29 31 1 0
BITMAP
FC0003F8
FE0003F0
7E0003F0
7E0007F0
7F0007E0
3F0007E0
3F800FE0
3F800FC0
1F800FC0
1FC01FC0
1FC01F80
0FC01F80
0FE03F80
0FE03F00
07E03F00
07E07F00
07F07E00
03F07E00
03F0FC00
01F8FC00
01F8FC00
01F8F800
00FDF800
00FDF800
00FDF000
007FF000
007FF000
007FE000
003FE000
003FE000
003FC000
ENDCHAR
STARTCHAR 0077
ENCODING 119
SWIDTH 800 0
DWIDTH 48 0
BBX 44 31 2 0
BITMAP
FC001F8003F0
FC001F8003F0
FE003FC003F0
7E003FC007E0
7E003FC007E0
7E003FE007E0
7F007FE007E0
3F007FE00FC0
3F007FF00FC0
3F00FFF00FC0
3F00F9F00FC0
1F80F9F01F80
1F81F9F81F80
1F81F0F81F80
0F81F0F81F00
0FC1F0FC3F00
0FC3F0FC3F00
0FC3E07C3F00
07C3E07C3E00
07E3E07E3E00
07E7C03E7E00
07E7C03E7E00
03E7C03F7C00
03FFC03F7C00
03FF801FFC00
01FF801FF800
01FF801FF800
01FF000FF800
01FF000FF800
00FF000FF000
00FE000FF000
ENDCHAR
STARTCHAR 0078
ENCODING 120
SWIDTH 533 0
DWIDTH 32 0
BBX 30 31 1 0
BITMAP
FF0003F8
3F8007F0
3FC007F0
1FC00FE0
0FE01FC0
0FF01FC0
07F03F80
03F87F00
03FC7E00
01FCFE00
00FFFC00
007FF800
007FF800
003FF000
001FE000
001FE000
003FF000
003FF000
007FF800
00FFFC00
00FDFC00
01F8FE00
03F87F00
07F07F00
07E03F80
0FE01FC0
1FC01FC0
1F800FE0
3F800FF0
7F0007F8
FE0003FC
ENDCHAR
STARTCHAR 0079
ENCODING 121
SWIDTH 516 0
DWIDTH 31 0
BBX 29 43 1 -12
BITMAP
FC0001F8
FE0003F8
7E0003F0
7E0003F0
7F0007F0
3F0007E0
3F8007E0
3F800FC0
1F800FC0
1FC01FC0
1FC01F80
0FC01F80
0FE03F80
07E03F00
07E03F00
07F07F00
03F07E00
03F07E00
03F8FE00
01F8FC00
01F8FC00
01FDFC00
00FDF800
00FDF800
00FFF000
007FF000
007FF000
003FE000
003FE000
003FE000
001FC000
001FC000
001FC000
003F8000
003F8000
003F8000
007F0000
0FFF0000
0FFE0000
0FFE0000
0FFC0000
0FF80000
0FF00000
ENDCHAR
STARTCHAR 007A
ENCODING 122
SWIDTH 483 0
DWIDTH 29 0
BBX 25 31 2 0
BITMAP
7FFFFF80
7FFFFF80
7FFFFF80
7FFFFF80
7FFFFF80
7FFFFF80
0000FF00
0000FE00
0001FC00
0003F800
0007F000
000FF000
001FE000
003FC000
007F8000
007F0000
00FE0000
01FC0000
03F80000
07F80000
0FF00000
1FE00000
3FC00000
3F800000
7F000000
FFFFFF80
FFFFFF80
FFFFFF80
FFFFFF80
FFFFFF80
FFFFFF80
ENDCHAR
STARTCHAR 007B
ENCODING 123
SWIDTH 350 0
DWIDTH 21 0
BBX 17 54 1 -8
BITMAP
007F80
01FF80
01FF80
03FF80
03F000
03F000
03F000
03F000
03F000
03F000
03F000
03F000
03F000
03F000
03F000
03F000
03F000
03F000
03F000
03F000
03F000
07F000
07E000
1FE000
FFC000
FF8000
FF0000
FC0000
FE0000
FF8000
1FC000
07E000
07E000
03F000
03F000
03F000
03F000
03F000
03F000
03F000
03F000
03F000
03F000
03F000
03F000
03F000
03F000
03F000
03F000
03F000
03FF80
01FF80
01FF80
007F80
ENDCHAR
STARTCHAR 007C
ENCODING 124
SWIDTH 350 0
DWIDTH 21 0
BBX 5 54 8 -8
BITMAP
F8
F8
F8
F8
F8
F8
F8
F8
F8
F8
F8
F8
F8
F8
F8
F8
F8
F8
F8
F8
F8
F8
F8
F8
F8
F8
F8
F8
F8
F8
F8
F8
F8
F8
F8
F8
F8
F8
F8
F8
F8
F8
F8
F8
F8
F8
F8
F8
F8
F8
F8
F8
F8
F8
ENDCHAR
STARTCHAR 007D
ENCODING 125
SWIDTH 350 0
DWIDTH 21 0
BBX 17 54 3 -8
BITMAP
FF0000
FFC000
FFE000
FFE000
07E000
07E000
07E000
07E000
07E000
07E000
07E000
07E000
07E000
07E000
07E000
07E000
07E000
07E000
07E000
07E000
03F000
03F000
03F800
01FC00
01FF80
00FF80
003F80
001F80
003F80
00FF80
01FC00
01F800
03F000
03F000
03E000
07E000
07E000
07E000
07E000
07E000
07E000
07E000
07E000
07E000
07E000
07E000
07E000
07E000
07E000
07E000
FFE000
FFE000
FFC000
FF8000
ENDCHAR
STARTCHAR 007E
ENCODING 126
SWIDTH 600 0
DWIDTH 36 0
BBX 30 10 3 13
BITMAP
07F00000
1FFC0000
3FFF8020
7FFFE070
FFFFFFF8
7FFFFFF8
381FFFFC
2007FFF0
0000FFE0
00003FC0
ENDCHAR
STARTCHAR 00A0
ENCODING 160
SWIDTH 233 0
DWIDTH 14 0
BBX 0 0 0 0
BITMAP
ENDCHAR
STARTCHAR 00A1
ENCODING 161
SWIDTH 300 0
DWIDTH 18 0
BBX 8 43 5 -11
BITMAP
7C
FF
FF
FF
FF
FF
FF
FF
7C
00
00
00
00
3C
3C
3C
3C
3C
3C
3C
3C
7C
7E
7E
7E
7E
7E
7E
7E
7E
7E
FF
FF
FF
FF
FF
FF
FF
FF
FF
FF
FF
FF
ENDCHAR
STARTCHAR 00A2
ENCODING 162
SWIDTH 533 0
DWIDTH 32 0
BBX 27 43 3 -6
BITMAP
001F0000
001F0000
001F0000
001F0000
001F0000
001FE000
007FF800
03FFFC00
07FFFE00
0FFFFF00
1FFFFF80
3FFF7F80
3FDF1FC0
7F1F0F80
7F1F0600
FE1F0800
FE1F0000
FC1F0000
FC1F0000
FC1F0000
FC1F0000
FC1F0000
FC1F0000
FC1F0000
FC1F0000
FC1F0000
FE1F0000
FE1F0400
7F1F0700
7F1F0FC0
3FDF1FE0
3FFF3FC0
1FFFFF80
0FFFFF00
07FFFF00
01FFFC00
007FF800
001FE000
001F0000
001F0000
001F0000
001F0000
001F0000
ENDCHAR
STARTCHAR 00A3
ENCODING 163
SWIDTH 583 0
DWIDTH 35 0
BBX 30 43 3 0
BITMAP
000FF800
007FFF00
00FFFFC0
03FFFFE0
07FFFFF0
07FFFFF8
0FFC0FFC
1FF003FC
1FE001F0
1FC000E0
1FC00040
1FC00000
1F800000
1F800000
1F800000
1FC00000
1FC00000
1FC00000
0FC00000
0FE00000
FFFFFE00
FFFFFE00
FFFFFE00
FFFFFE00
FFFFFE00
FFFFFE00
03F80000
03F80000
03F80000
03F80000
03F00000
03F00000
07F00000
07E00000
0FE00000
1FC00000
7F000000
7FFFFFF8
7FFFFFF8
7FFFFFF8
7FFFFFF8
7FFFFFF8
7FFFFFF8
ENDCHAR
STARTCHAR 00A4
ENCODING 164
SWIDTH 616 0
DWIDTH 37 0
BBX 35 36 1 3
BITMAP
1000000100
3800000380
7C000007C0
FE00000FE0
FF07FC1FE0
7F9FFFBFC0
3FFFFFFF80
1FFFFFFF00
0FFFFFFE00
07FFFFFC00
03FC07FC00
07F801FC00
07F001FC00
0FE000FE00
0FE000FE00
0FE0007E00
0FE0007E00
0FE0007E00
0FE0007E00
0FE0007E00
0FE0007E00
0FE000FE00
0FE000FE00
07F001FC00
07F801FC00
03FC07FC00
07FFFFFC00
0FFFFFFE00
1FFFFFFF00
3FFFFFFF80
7F9FFFBFC0
FF07FC1FE0
FE00000FE0
7C000007C0
3800000380
1000000100
ENDCHAR
STARTCHAR 00A5
ENCODING 165
SWIDTH 616 0
DWIDTH 37 0
BBX 34 42 2 0
BITMAP
FF00003FC0
7F00003F80
7F80007F00
3F80007F00
3FC000FE00
1FC000FE00
1FE001FC00
0FE001F800
07F003F800
07F007F000
03F807F000
03F80FE000
01FC0FE000
01FE1FC000
00FE1FC000
00FF3F8000
007F3F0000
003FFF0000
003FFE0000
1FFFFFFC00
1FFFFFFC00
1FFFFFFC00
1FFFFFFC00
1FFFFFFC00
0007F00000
0007F00000
0007F00000
0007F00000
0007F00000
1FFFFFFC00
1FFFFFFC00
1FFFFFFC00
1FFFFFFC00
1FFFFFFC00
0007F00000
0007F00000
0007F00000
0007F00000
0007F00000
0007F00000
0007F00000
0007F00000
ENDCHAR
STARTCHAR 00A6
ENCODING 166
SWIDTH 350 0
DWIDTH 21 0
BBX 5 54 8 -8
BITMAP
F8
F8
F8
F8
F8
F8
F8
F8
F8
F8
F8
F8
F8
F8
F8
F8
F8
F8
F8
F8
F8
00
00
00
00
00
00
00
00
00
00
00
00
F8
F8
F8
F8
F8
F8
F8
F8
F8
F8
F8
F8
F8
F8
F8
F8
F8
F8
F8
F8
F8
ENDCHAR
STARTCHAR 00A7
ENCODING 167
SWIDTH 583 0
DWIDTH 35 0
BBX 27 52 4 -9
BITMAP
003FC000
01FFF800
07FFFE00
0FFFFF00
1FFFFF80
1FFFFF00
3FE07E00
3F800E00
3F000400
3F000000
3F000000
3F000000
3F800000
3FE00000
1FFC0000
0FFF8000
0FFFF000
07FFFC00
03FFFF00
07FFFF80
1F1FFF80
3E01FFC0
7C003FC0
7C001FE0
FC000FE0
FC0007E0
FC0007E0
FC0007C0
FE0007C0
FF000F80
7FE00F00
7FFE1E00
3FFFFC00
1FFFF000
0FFFF800
01FFFC00
003FFE00
0007FF00
0000FF00
00003F00
00001F80
00001F80
00001F80
08003F80
0E003F80
1F80FF00
3FFFFF00
3FFFFE00
1FFFFC00
0FFFF800
03FFE000
00FF8000
ENDCHAR
STARTCHAR 00A8
ENCODING 168
SWIDTH 600 0
DWIDTH 36 0
BBX 20 7 8 37
BITMAP
3C03C0
7E07E0
FF0FF0
FF0FF0
FF0FF0
7E07E0
3C03C0
ENDCHAR
STARTCHAR 00A9
ENCODING 169
SWIDTH 783 0
DWIDTH 47 0
BBX 41 44 3 -1
BITMAP
0000FF800000
000FFFF00000
003FFFFE0000
007FFFFF0000
01FF007F8000
03F8000FE000
07E00007F000
07C00001F000
0F800000F800
1F0000007C00
1E007F003C00
3E01FFE03E00
3C03FFF01E00
7C07FFF81F00
780FFFF80F00
781FE1FC0F00
781F80F80F00
F01F80600F80
F03F00000780
F03F00000780
F03F00000780
F03F00000780
F03F00000780
F03F00000780
F03F00000780
F03F00000780
F01F80300F80
781F807C0F00
781FE1FE0F00
780FFFFC0F00
7C07FFF81F00
3C03FFF01E00
3E01FFE03E00
1E007F803C00
1F0000007C00
0F800000F800
07C00001F000
07F00007F000
03F8000FE000
01FF007F8000
007FFFFF0000
003FFFFE0000
000FFFF00000
0000FF800000
ENDCHAR
STARTCHAR 00AA
ENCODING 170
SWIDTH 416 0
DWIDTH 25 0
BBX 20 22 3 20
BITMAP
07F000
1FFE00
3FFF00
7FFF00
FC1F80
300F80
200F80
000780
000780
0FFF80
3FFF80
7FFF80
FC0780
F80780
F00780
F00F80
F80F80
FC3F80
FFF7F0
7FF7F0
3FE3F0
1F80F0
ENDCHAR
STARTCHAR 00AB
ENCODING 171
SWIDTH 533 0
DWIDTH 32 0
BBX 27 25 2 4
BITMAP
00100080
003001C0
007803C0
01F807E0
03F80FE0
07F01FC0
0FE07F80
1FC0FF00
3FC1FE00
7F83FC00
FF03F800
FE03F000
FC03E000
FC03F000
FE03F800
FF03FC00
7F81FE00
3FC0FE00
1FE07F00
07F03F80
03F81FC0
01F80FE0
00F803C0
007001C0
00300080
ENDCHAR
STARTCHAR 00AC
ENCODING 172
SWIDTH 600 0
DWIDTH 36 0
BBX 29 17 3 4
BITMAP
FFFFFFF8
FFFFFFF8
FFFFFFF8
FFFFFFF8
FFFFFFF8
FFFFFFF8
000000F8
000000F8
000000F8
000000F8
000000F8
000000F8
000000F8
000000F8
000000F8
000000F8
000000F8
ENDCHAR
STARTCHAR 00AD
ENCODING 173
SWIDTH 400 0
DWIDTH 24 0
BBX 16 7 4 15
BITMAP
FFFF
FFFF
FFFF
FFFF
FFFF
FFFF
FFFF
ENDCHAR
STARTCHAR 00AE
ENCODING 174
SWIDTH 466 0
DWIDTH 28 0
BBX 24 24 2 19
BITMAP
007F00
03FFC0
0781F0
0E0078
1C001C
38001C
71FE0E
71FF86
61C387
E1C387
E1C387
E1FF87
E1FE07
E1CE07
E1C707
61C787
71C386
71C3CE
38001C
1C001C
0E0078
0781F0
03FFC0
007F00
ENDCHAR
STARTCHAR 00AF
ENCODING 175
SWIDTH 600 0
DWIDTH 36 0
BBX 18 5 9 38
BITMAP
FFFFC0
FFFFC0
FFFFC0
FFFFC0
FFFFC0
ENDCHAR
STARTCHAR 00B0
ENCODING 176
SWIDTH 466 0
DWIDTH 28 0
BBX 21 22 4 21
BITMAP
01F800
07FF00
1FFF80
3FFFC0
7FFFE0
7F07E0
FC03F0
F801F0
F801F0
F801F8
F800F8
F800F8
F801F8
F801F0
F801F0
FC03F0
7F07E0
7FFFE0
3FFFC0
1FFF80
07FF00
01F800
ENDCHAR
STARTCHAR 00B1
ENCODING 177
SWIDTH 600 0
DWIDTH 36 0
BBX 28 38 4 0
BITMAP
001F8000
001F8000
001F8000
001F8000
001F8000
001F8000
001F8000
001F8000
001F8000
001F8000
001F8000
FFFFFFF0
FFFFFFF0
FFFFFFF0
FFFFFFF0
FFFFFFF0
FFFFFFF0
001F8000
001F8000
001F8000
001F8000
001F8000
001F8000
001F8000
001F8000
001F8000
001F8000
00000000
00000000
00000000
00000000
00000000
FFFFFFF0
FFFFFFF0
FFFFFFF0
FFFFFFF0
FFFFFFF0
FFFFFFF0
ENDCHAR
STARTCHAR 00B2
ENCODING 178
SWIDTH 350 0
DWIDTH 21 0
BBX 17 22 2 20
BITMAP
07F000
1FFC00
3FFE00
7FFF00
FC3F00
F81F00
301F00
001F00
001F00
003F00
007E00
00FC00
01F800
03F000
0FE000
1F8000
3F0000
7C0000
FFFF80
FFFF80
FFFF80
FFFF80
ENDCHAR
STARTCHAR 00B3
ENCODING 179
SWIDTH 350 0
DWIDTH 21 0
BBX 17 23 1 19
BITMAP
07F800
1FFE00
3FFF00
7FFF80
7C1F80
380F80
100F80
000F80
001F00
03FE00
03FC00
03FC00
03FF00
001F80
000F80
000F80
100F80
780F80
FC1F80
7FFF80
3FFF00
1FFE00
07F000
ENDCHAR
STARTCHAR 00B4
ENCODING 180
SWIDTH 600 0
DWIDTH 36 0
BBX 11 13 15 35
BITMAP
0400
0F00
0FC0
1FE0
1FC0
3F80
3F00
7F00
7E00
FC00
F800
7800
1000
ENDCHAR
STARTCHAR 00B5
ENCODING 181
SWIDTH 583 0
DWIDTH 35 0
BBX 25 43 5 -12
BITMAP
FC001F80
FC001F80
FC001F80
FC001F80
FC001F80
FC001F80
FC001F80
FC001F80
FC001F80
FC001F80
FC001F80
FC001F80
FC001F80
FC001F80
FC001F80
FC001F80
FC001F80
FC001F80
FC001F80
FC001F80
FC001F80
FC001F80
FE001F80
FE003F80
FF007F80
FF81FF80
FFFFDF80
FFFFDF80
FFFF9F80
FBFF9F80
FDFF1F80
FCFC0000
FC000000
FC000000
FC000000
FC000000
FC000000
FC000000
FC000000
FC000000
FC000000
FC000000
FC000000
ENDCHAR
STARTCHAR 00B6
ENCODING 182
SWIDTH 666 0
DWIDTH 40 0
BBX 33 51 3 -9
BITMAP
00FFFFFF80
03FFFFFF80
07FFFFFF80
1FFFFFFF80
1FFFFFFF80
3FFFFFFF80
7FFF81F800
7FFF81F800
FFFF81F800
FFFF81F800
FFFF81F800
FFFF81F800
FFFF81F800
FFFF81F800
FFFF81F800
FFFF81F800
FFFF81F800
FFFF81F800
7FFF81F800
7FFF81F800
3FFF81F800
1FFF81F800
1FFF81F800
07FF81F800
03FF81F800
00FF81F800
000F81F800
000F81F800
000F81F800
000F81F800
000F81F800
000F81F800
000F81F800
000F81F800
000F81F800
000F81F800
000F81F800
000F81F800
000F81F800
000F81F800
000F81F800
000F81F800
000F81F800
000F81F800
000F81F800
000F81F800
000F81F800
000F81F800
000F81F800
000F81F800
000F81F800
ENDCHAR
STARTCHAR 00B7
ENCODING 183
SWIDTH 350 0
DWIDTH 21 0
BBX 9 10 6 13
BITMAP
3E00
7F80
FF80
FF80
FF80
FF80
FF80
FF80
7F80
3E00
ENDCHAR
STARTCHAR 00B8
ENCODING 184
SWIDTH 600 0
DWIDTH 36 0
BBX 14 14 12 -13
BITMAP
0F00
0F00
0F00
0E00
0E00
1FF0
01F8
007C
207C
307C
7FFC
FFF8
7FF0
1FC0
ENDCHAR
STARTCHAR 00B9
ENCODING 185
SWIDTH 350 0
DWIDTH 21 0
BBX 19 22 1 20
BITMAP
03F800
07F800
0FF800
1FF800
3EF800
7CF800
FCF800
38F800
10F800
00F800
00F800
00F800
00F800
00F800
00F800
00F800
00F800
00F800
3FFFE0
3FFFE0
3FFFE0
3FFFE0
ENDCHAR
STARTCHAR 00BA
ENCODING 186
SWIDTH 416 0
DWIDTH 25 0
BBX 19 22 3 20
BITMAP
03F800
0FFE00
1FFF00
3FFF80
7E0FC0
FC07C0
F803E0
F803E0
F803E0
F803E0
F803E0
F803E0
F803E0
F803E0
F803E0
F803E0
FC07C0
7E0FC0
3FFF80
3FFF00
0FFE00
03F800
ENDCHAR
STARTCHAR 00BB
ENCODING 187
SWIDTH 533 0
DWIDTH 32 0
BBX 27 25 3 4
BITMAP
20010000
70018000
7803C000
FC03E000
FE07F800
7F01FC00
3FC0FE00
1FE0FF00
0FF07F80
07F83FC0
03F81FE0
01F80FE0
00F807E0
01F80FE0
03F80FE0
07F81FE0
0FF03FC0
1FE07F80
1FC0FE00
3F81FC00
7F03F800
FE07F000
7803E000
7003C000
20010000
ENDCHAR
STARTCHAR 00BC
ENCODING 188
SWIDTH 850 0
DWIDTH 51 0
BBX 49 42 1 0
BITMAP
03F8000003E000
07F8000007C000
0FF800000FC000
1FF800000F8000
3EF800001F0000
7CF800003E0000
FCF800007E0000
38F800007C0000
10F80000F80000
00F80001F80000
00F80001F00000
00F80003E00000
00F80007C00000
00F8000FC00000
00F8000F800000
00F8001F000000
00F8003F000000
00F8007E000000
3FFFE07C000000
3FFFE0F8000000
3FFFE1F801FC00
3FFFE1F001FC00
000003E003FC00
000007C007FC00
00000FC007FC00
00000F800F7C00
00001F001E7C00
00003F001E7C00
00003E003C7C00
00007C00787C00
0000F800787C00
0001F800F07C00
0001F001E07C00
0003E001C07C00
0007E003FFFF80
000FC003FFFF80
000F8003FFFF80
001F0003FFFF80
003F0000007C00
003E0000007C00
007C0000007C00
00FC0000007C00
ENDCHAR
STARTCHAR 00BD
ENCODING 189
SWIDTH 850 0
DWIDTH 51 0
BBX 48 42 1 0
BITMAP
03F8000007E0
07F800000F80
0FF800001F80
1FF800001F00
3EF800003E00
7CF800007E00
FCF800007C00
38F80000F800
10F80001F000
00F80003F000
00F80003E000
00F80007C000
00F8000FC000
00F8001F8000
00F8001F0000
00F8003E0000
00F8007E0000
00F8007C0000
3FFFE0F80000
3FFFE1F00FE0
3FFFE3F03FF8
3FFFE3E07FFC
000007C0FFFE
00000FC1F87E
00000F81F03E
00001F00603F
00003E00003F
00007E00003E
00007C00003E
0000F800007E
0001F80000FC
0003F00001F8
0003E00003F0
0007C00007E0
000FC0001FC0
000F80003F00
001F00007E00
003F0000F800
007E0001FFFF
007C0001FFFF
00F80001FFFF
01F80001FFFF
ENDCHAR
STARTCHAR 00BE
ENCODING 190
SWIDTH 833 0
DWIDTH 50 0
BBX 48 42 1 0
BITMAP
07F8000007C0
1FFE00000F80
3FFF00001F80
7FFF80001F00
7C1F80003E00
380F80007C00
100F8000FC00
000F8000F800
001F0001F000
03FE0003E000
03FC0007E000
03FC0007C000
03FF000F8000
001F801F8000
000F801F0000
000F803E0000
100F807C0000
780F80FC0000
FC1F80F80000
7FFF81F00000
3FFF03F003F0
1FFE03E003F0
07F007C007F0
00000F800FF0
00001F800FF0
00001F001EF0
00003E003CF0
00007E007CF0
0000FC0078F0
0000F800F0F0
0001F001F0F0
0003F001E0F0
0003E003C0F0
0007C00780F0
000F8007FFFF
001F8007FFFF
001F0007FFFF
003E0007FFFF
007E000000F0
007C000000F0
00F8000000F0
01F0000000F0
ENDCHAR
STARTCHAR 00BF
ENCODING 191
SWIDTH 483 0
DWIDTH 29 0
BBX 26 43 2 -11
BITMAP
001F0000
003F8000
003FC000
007FC000
007FC000
007FC000
003FC000
003F8000
001F0000
00000000
00000000
00000000
00000000
00000000
001F8000
001F8000
001F8000
001F8000
001F8000
001F8000
007F8000
03FF8000
07FF8000
1FFF8000
3FF80000
3FC00000
7F800000
7F000000
FE000000
FE000000
FE000000
FE000C00
FE000F80
FE001FC0
FF001FC0
7F803F80
7FC0FF80
7FFFFF00
3FFFFE00
1FFFFC00
0FFFF800
03FFE000
00FF8000
ENDCHAR
STARTCHAR 00C0
ENCODING 192
SWIDTH 666 0
DWIDTH 40 0
BBX 37 58 1 0
BITMAP
0000800000
0003800000
000FC00000
001FC00000
000FE00000
0007E00000
0003F00000
0003F00000
0001F80000
0000F80000
0000FC0000
0000780000
0000200000
0000000000
0000000000
0000000000
0003FE0000
0003FF0000
0003FF0000
0007FF0000
0007FF8000
0007FF8000
000FDF8000
000FDFC000
000FCFC000
001FCFC000
001F8FE000
001F87E000
003F87E000
003F07F000
003F07F000
007F03F000
007E03F800
007E03F800
00FE01F800
00FC01FC00
00FC01FC00
01FC00FC00
01F800FE00
01F800FE00
03F8007E00
03FFFFFF00
03FFFFFF00
07FFFFFF00
07FFFFFF80
07FFFFFF80
0FFFFFFF80
0FE0001FC0
0FC0001FC0
1FC0001FE0
1FC0000FE0
1F80000FE0
3F80000FF0
3F800007F0
7F000007F0
7F000007F8
7F000003F8
FE000003F8
ENDCHAR
STARTCHAR 00C1
ENCODING 193
SWIDTH 666 0
DWIDTH 40 0
BBX 37 58 1 0
BITMAP
0000080000
00000E0000
00000F8000
00001FE000
00001FC000
00003F8000
00003F0000
00007E0000
00007E0000
0000FC0000
0000F80000
0001F80000
0000300000
0000000000
0000000000
0000000000
0003FE0000
0003FF0000
0003FF0000
0007FF0000
0007FF8000
0007FF8000
000FDF8000
000FDFC000
000FCFC000
001FCFC000
001F8FE000
001F87E000
003F87E000
003F07F000
003F07F000
007F03F000
007E03F800
007E03F800
00FE01F800
00FC01FC00
00FC01FC00
01FC00FC00
01F800FE00
01F800FE00
03F8007E00
03FFFFFF00
03FFFFFF00
07FFFFFF00
07FFFFFF80
07FFFFFF80
0FFFFFFF80
0FE0001FC0
0FC0001FC0
1FC0001FE0
1FC0000FE0
1F80000FE0
3F80000FF0
3F800007F0
7F000007F0
7F000007F8
7F000003F8
FE000003F8
ENDCHAR
STARTCHAR 00C2
ENCODING 194
SWIDTH 666 0
DWIDTH 40 0
BBX 37 57 1 0
BITMAP
0001FC0000
0003FE0000
0003FF0000
0007FF8000
000FFFC000
001FDFC000
003F8FE000
003F07F000
007E03F800
00FC01F800
003800F000
0010006000
0000000000
0000000000
0000000000
0003FE0000
0003FF0000
0003FF0000
0007FF0000
0007FF8000
0007FF8000
000FDF8000
000FDFC000
000FCFC000
001FCFC000
001F8FE000
001F87E000
003F87E000
003F07F000
003F07F000
007F03F000
007E03F800
007E03F800
00FE01F800
00FC01FC00
00FC01FC00
01FC00FC00
01F800FE00
01F800FE00
03F8007E00
03FFFFFF00
03FFFFFF00
07FFFFFF00
07FFFFFF80
07FFFFFF80
0FFFFFFF80
0FE0001FC0
0FC0001FC0
1FC0001FE0
1FC0000FE0
1F80000FE0
3F80000FF0
3F800007F0
7F000007F0
7F000007F8
7F000003F8
FE000003F8
ENDCHAR
STARTCHAR 00C3
ENCODING 195
SWIDTH 666 0
DWIDTH 40 0
BBX 37 54 1 0
BITMAP
000F800000
003FE02000
007FF87000
00FFFFF800
007FFFF800
0030FFF800
00201FF000
000007C000
0000000000
0000000000
0000000000
0000000000
0003FE0000
0003FF0000
0003FF0000
0007FF0000
0007FF8000
0007FF8000
000FDF8000
000FDFC000
000FCFC000
001FCFC000
001F8FE000
001F87E000
003F87E000
003F07F000
003F07F000
007F03F000
007E03F800
007E03F800
00FE01F800
00FC01FC00
00FC01FC00
01FC00FC00
01F800FE00
01F800FE00
03F8007E00
03FFFFFF00
03FFFFFF00
07FFFFFF00
07FFFFFF80
07FFFFFF80
0FFFFFFF80
0FE0001FC0
0FC0001FC0
1FC0001FE0
1FC0000FE0
1F80000FE0
3F80000FF0
3F800007F0
7F000007F0
7F000007F8
7F000003F8
FE000003F8
ENDCHAR
STARTCHAR 00C4
ENCODING 196
SWIDTH 666 0
DWIDTH 40 0
BBX 37 55 1 0
BITMAP
003E03E000
007F07F000
007F07F000
007F87F800
007F87F800
007F07F000
007F07F000
003E03E000
0000000000
0000000000
0000000000
0000000000
0000000000
0003FE0000
0003FF0000
0003FF0000
0007FF0000
0007FF8000
0007FF8000
000FDF8000
000FDFC000
000FCFC000
001FCFC000
001F8FE000
001F87E000
003F87E000
003F07F000
003F07F000
007F03F000
007E03F800
007E03F800
00FE01F800
00FC01FC00
00FC01FC00
01FC00FC00
01F800FE00
01F800FE00
03F8007E00
03FFFFFF00
03FFFFFF00
07FFFFFF00
07FFFFFF80
07FFFFFF80
0FFFFFFF80
0FE0001FC0
0FC0001FC0
1FC0001FE0
1FC0000FE0
1F80000FE0
3F80000FF0
3F800007F0
7F000007F0
7F000007F8
7F000003F8
FE000003F8
ENDCHAR
STARTCHAR 00C5
ENCODING 197
SWIDTH 666 0
DWIDTH 40 0
BBX 37 60 1 0
BITMAP
0000FC0000
0003FE0000
0007FF8000
000FFF8000
000F87C000
001F03C000
001F03C000
001F03E000
001F03E000
001F03C000
001F03C000
000F87C000
000FFF8000
0007FF8000
0003FE0000
0000FC0000
0000000000
0000000000
0003FE0000
0003FF0000
0003FF0000
0007FF0000
0007FF8000
0007FF8000
000FDF8000
000FDFC000
000FCFC000
001FCFC000
001F8FE000
001F87E000
003F87E000
003F07F000
003F07F000
007F03F000
007E03F800
007E03F800
00FE01F800
00FC01FC00
00FC01FC00
01FC00FC00
01F800FE00
01F800FE00
03F8007E00
03FFFFFF00
03FFFFFF00
07FFFFFF00
07FFFFFF80
07FFFFFF80
0FFFFFFF80
0FE0001FC0
0FC0001FC0
1FC0001FE0
1FC0000FE0
1F80000FE0
3F80000FF0
3F800007F0
7F000007F0
7F000007F8
7F000003F8
FE000003F8
ENDCHAR
STARTCHAR 00C6
ENCODING 198
SWIDTH 933 0
DWIDTH 56 0
BBX 52 42 0 0
BITMAP
000007FFFFFFF0
00000FFFFFFFF0
00000FFFFFFFF0
00001FFFFFFFF0
00001FFFFFFFF0
00003FFFFFFFF0
00003F3F000000
00007F3F000000
00007E3F000000
0000FE3F000000
0000FC3F000000
0001FC3F000000
0001F83F000000
0003F83F000000
0003F03F000000
0007F03F000000
0007E03F000000
000FE03F000000
000FC03FFFFFE0
001FC03FFFFFE0
001F803FFFFFE0
003F803FFFFFE0
003F003FFFFFE0
007F003FFFFFE0
007E003F000000
00FFFFFF000000
00FFFFFF000000
01FFFFFF000000
01FFFFFF000000
03FFFFFF000000
03FFFFFF000000
07F0003F000000
07F0003F000000
0FE0003F000000
0FE0003F000000
1FC0003F000000
1FC0003FFFFFF0
3F80003FFFFFF0
3F80003FFFFFF0
7F00003FFFFFF0
7F00003FFFFFF0
FE00003FFFFFF0
ENDCHAR
STARTCHAR 00C7
ENCODING 199
SWIDTH 633 0
DWIDTH 38 0
BBX 33 56 3 -13
BITMAP
0007FE0000
003FFF8000
007FFFE000
01FFFFF800
03FFFFFC00
07FFFFFC00
0FFC07FE00
0FF001FF00
1FE0007F00
1FC0007F80
3F80003E00
3F80001800
3F00002000
7F00000000
7F00000000
7F00000000
7F00000000
7F00000000
FF00000000
FF00000000
FF00000000
FF00000000
FF00000000
FF00000000
FF00000000
FF00000000
FF00000000
7F00000000
7F00000000
7F00000000
7F00000000
7F00001000
3F80001C00
3F80003F00
1FC0003F80
1FE0007F00
0FF001FF00
0FFC07FE00
07FFFFFC00
03FFFFF800
01FFFFF000
00FFFFE000
003FFFC000
0007FE0000
0001E00000
0001C00000
0001C00000
0001FE0000
00003F0000
00000F8000
00040F8000
00060F8000
000FFF8000
001FFF0000
0007FE0000
0003F80000
ENDCHAR
STARTCHAR 00C8
ENCODING 200
SWIDTH 600 0
DWIDTH 36 0
BBX 27 58 5 0
BITMAP
00100000
00700000
01F80000
03F80000
01FC0000
00FC0000
00FE0000
007E0000
003F0000
003F0000
001F8000
000F0000
00040000
00000000
00000000
00000000
FFFFFFE0
FFFFFFE0
FFFFFFE0
FFFFFFE0
FFFFFFE0
FFFFFFE0
FE000000
FE000000
FE000000
FE000000
FE000000
FE000000
FE000000
FE000000
FE000000
FE000000
FE000000
FE000000
FFFFFF80
FFFFFF80
FFFFFF80
FFFFFF80
FFFFFF80
FFFFFF80
FE000000
FE000000
FE000000
FE000000
FE000000
FE000000
FE000000
FE000000
FE000000
FE000000
FE000000
FE000000
FFFFFFE0
FFFFFFE0
FFFFFFE0
FFFFFFE0
FFFFFFE0
FFFFFFE0
ENDCHAR
STARTCHAR 00C9
ENCODING 201
SWIDTH 600 0
DWIDTH 36 0
BBX 27 58 5 0
BITMAP
00010000
0001C000
0003F000
0003F800
0007F000
0007F000
000FE000
000FC000
001F8000
001F8000
003F0000
001E0000
00060000
00000000
00000000
00000000
FFFFFFE0
FFFFFFE0
FFFFFFE0
FFFFFFE0
FFFFFFE0
FFFFFFE0
FE000000
FE000000
FE000000
FE000000
FE000000
FE000000
FE000000
FE000000
FE000000
FE000000
FE000000
FE000000
FFFFFF80
FFFFFF80
FFFFFF80
FFFFFF80
FFFFFF80
FFFFFF80
FE000000
FE000000
FE000000
FE000000
FE000000
FE000000
FE000000
FE000000
FE000000
FE000000
FE000000
FE000000
FFFFFFE0
FFFFFFE0
FFFFFFE0
FFFFFFE0
FFFFFFE0
FFFFFFE0
ENDCHAR
STARTCHAR 00CA
ENCODING 202
SWIDTH 600 0
DWIDTH 36 0
BBX 27 57 5 0
BITMAP
003F8000
007FC000
00FFE000
00FFF000
01FFF000
03FBF800
07F1FC00
0FE0FE00
0FC07E00
1F803F00
0F001E00
02000800
00000000
00000000
00000000
FFFFFFE0
FFFFFFE0
FFFFFFE0
FFFFFFE0
FFFFFFE0
FFFFFFE0
FE000000
FE000000
FE000000
FE000000
FE000000
FE000000
FE000000
FE000000
FE000000
FE000000
FE000000
FE000000
FFFFFF80
FFFFFF80
FFFFFF80
FFFFFF80
FFFFFF80
FFFFFF80
FE000000
FE000000
FE000000
FE000000
FE000000
FE000000
FE000000
FE000000
FE000000
FE000000
FE000000
FE000000
FFFFFFE0
FFFFFFE0
FFFFFFE0
FFFFFFE0
FFFFFFE0
FFFFFFE0
ENDCHAR
STARTCHAR 00CB
ENCODING 203
SWIDTH 600 0
DWIDTH 36 0
BBX 27 55 5 0
BITMAP
07C07C00
0FE0FE00
0FE0FE00
0FE0FE00
0FE0FE00
0FE0FE00
0FE0FE00
07C07C00
00000000
00000000
00000000
00000000
00000000
FFFFFFE0
FFFFFFE0
FFFFFFE0
FFFFFFE0
FFFFFFE0
FFFFFFE0
FE000000
FE000000
FE000000
FE000000
FE000000
FE000000
FE000000
FE000000
FE000000
FE000000
FE000000
FE000000
FFFFFF80
FFFFFF80
FFFFFF80
FFFFFF80
FFFFFF80
FFFFFF80
FE000000
FE000000
FE000000
FE000000
FE000000
FE000000
FE000000
FE000000
FE000000
FE000000
FE000000
FE000000
FFFFFFE0
FFFFFFE0
FFFFFFE0
FFFFFFE0
FFFFFFE0
FFFFFFE0
ENDCHAR
STARTCHAR 00CC
ENCODING 204
SWIDTH 416 0
DWIDTH 25 0
BBX 19 58 3 0
BITMAP
010000
070000
1F8000
3F8000
1FC000
1FC000
0FE000
07E000
03F000
03F000
01F800
00F000
00C000
000000
000000
000000
FFFFE0
FFFFE0
FFFFE0
FFFFE0
FFFFE0
FFFFE0
03F800
03F800
03F800
03F800
03F800
03F800
03F800
03F800
03F800
03F800
03F800
03F800
03F800
03F800
03F800
03F800
03F800
03F800
03F800
03F800
03F800
03F800
03F800
03F800
03F800
03F800
03F800
03F800
03F800
03F800
FFFFE0
FFFFE0
FFFFE0
FFFFE0
FFFFE0
FFFFE0
ENDCHAR
STARTCHAR 00CD
ENCODING 205
SWIDTH 416 0
DWIDTH 25 0
BBX 19 58 3 0
BITMAP
001000
001C00
003F00
003F80
007F00
007E00
00FE00
00FC00
01F800
01F800
03F000
01E000
006000
000000
000000
000000
FFFFE0
FFFFE0
FFFFE0
FFFFE0
FFFFE0
FFFFE0
03F800
03F800
03F800
03F800
03F800
03F800
03F800
03F800
03F800
03F800
03F800
03F800
03F800
03F800
03F800
03F800
03F800
03F800
03F800
03F800
03F800
03F800
03F800
03F800
03F800
03F800
03F800
03F800
03F800
03F800
FFFFE0
FFFFE0
FFFFE0
FFFFE0
FFFFE0
FFFFE0
ENDCHAR
STARTCHAR 00CE
ENCODING 206
SWIDTH 416 0
DWIDTH 25 0
BBX 21 57 2 0
BITMAP
01FC00
03FE00
07FF00
0FFF00
0FFF80
1FDFC0
3F8FE0
7F07F0
7E03F0
FC01F8
7800F0
100040
000000
000000
000000
7FFFF0
7FFFF0
7FFFF0
7FFFF0
7FFFF0
7FFFF0
01FC00
01FC00
01FC00
01FC00
01FC00
01FC00
01FC00
01FC00
01FC00
01FC00
01FC00
01FC00
01FC00
01FC00
01FC00
01FC00
01FC00
01FC00
01FC00
01FC00
01FC00
01FC00
01FC00
01FC00
01FC00
01FC00
01FC00
01FC00
01FC00
01FC00
7FFFF0
7FFFF0
7FFFF0
7FFFF0
7FFFF0
7FFFF0
ENDCHAR
STARTCHAR 00CF
ENCODING 207
SWIDTH 416 0
DWIDTH 25 0
BBX 19 55 3 0
BITMAP
7C07C0
FE0FE0
FE0FE0
FE0FE0
FE0FE0
FE0FE0
FE0FE0
7C07C0
000000
000000
000000
000000
000000
FFFFE0
FFFFE0
FFFFE0
FFFFE0
FFFFE0
FFFFE0
03F800
03F800
03F800
03F800
03F800
03F800
03F800
03F800
03F800
03F800
03F800
03F800
03F800
03F800
03F800
03F800
03F800
03F800
03F800
03F800
03F800
03F800
03F800
03F800
03F800
03F800
03F800
03F800
03F800
03F800
FFFFE0
FFFFE0
FFFFE0
FFFFE0
FFFFE0
FFFFE0
ENDCHAR
STARTCHAR 00D0
ENCODING 208
SWIDTH 683 0
DWIDTH 41 0
BBX 37 42 1 0
BITMAP
0FFFFF0000
0FFFFFE000
0FFFFFF800
0FFFFFFC00
0FFFFFFE00
0FFFFFFF00
0FE001FF80
0FE0007FC0
0FE0003FC0
0FE0001FE0
0FE0000FE0
0FE0000FF0
0FE00007F0
0FE00007F0
0FE00007F0
0FE00003F8
0FE00003F8
FFFFE003F8
FFFFE003F8
FFFFE003F8
FFFFE003F8
FFFFE003F8
FFFFE003F8
0FE00003F8
0FE00003F8
0FE00003F8
0FE00003F8
0FE00007F0
0FE00007F0
0FE00007F0
0FE0000FF0
0FE0000FE0
0FE0001FE0
0FE0003FC0
0FE0007FC0
0FE001FF80
0FFFFFFF00
0FFFFFFE00
0FFFFFFC00
0FFFFFF800
0FFFFFE000
0FFFFF0000
ENDCHAR
STARTCHAR 00D1
ENCODING 209
SWIDTH 716 0
DWIDTH 43 0
BBX 33 54 5 0
BITMAP
007E000000
00FF808000
01FFE1C000
03FFFFC000
03FFFFE000
01C3FFC000
0080FF8000
00003E0000
0000000000
0000000000
0000000000
0000000000
FF00003F80
FF80003F80
FF80003F80
FFC0003F80
FFC0003F80
FFE0003F80
FFF0003F80
FFF0003F80
FFF8003F80
FFF8003F80
FFFC003F80
FEFC003F80
FEFE003F80
FE7F003F80
FE7F003F80
FE3F803F80
FE3F803F80
FE1FC03F80
FE1FE03F80
FE0FE03F80
FE0FF03F80
FE07F03F80
FE03F83F80
FE03FC3F80
FE01FC3F80
FE01FE3F80
FE00FE3F80
FE007F3F80
FE007F3F80
FE003FBF80
FE003FBF80
FE001FFF80
FE000FFF80
FE000FFF80
FE0007FF80
FE0007FF80
FE0003FF80
FE0003FF80
FE0001FF80
FE0000FF80
FE0000FF80
FE00007F80
ENDCHAR
STARTCHAR 00D2
ENCODING 210
SWIDTH 716 0
DWIDTH 43 0
BBX 36 59 3 -1
BITMAP
0001000000
0003800000
000F800000
001FC00000
000FC00000
000FE00000
0007E00000
0003F00000
0003F00000
0001F80000
0000F80000
00007C0000
0000600000
0000000000
0000000000
0003FE0000
001FFFC000
007FFFF000
01FFFFF800
03FFFFFC00
07FFFFFE00
07FE03FF00
0FF800FF80
1FE0007F80
1FC0003FC0
3FC0001FC0
3F80000FE0
3F80000FE0
7F00000FE0
7F000007F0
7F000007F0
7F000007F0
7F000007F0
FF000007F0
FF000007F0
FF000007F0
FF000007F0
FF000007F0
FF000007F0
FF000007F0
FF000007F0
7F000007F0
7F000007F0
7F000007F0
7F000007F0
7F00000FE0
3F80000FE0
3F80000FE0
3FC0001FC0
1FC0003FC0
1FE0007F80
0FF800FF80
07FE03FF00
07FFFFFE00
03FFFFFC00
01FFFFF800
007FFFF000
001FFFC000
0003FE0000
ENDCHAR
STARTCHAR 00D3
ENCODING 211
SWIDTH 716 0
DWIDTH 43 0
BBX 36 59 3 -1
BITMAP
0000080000
00000E0000
00001F8000
00001FC000
00003F8000
00003F0000
00007F0000
00007E0000
0000FC0000
0000FC0000
0001F80000
0000F00000
0000200000
0000000000
0000000000
0003FE0000
001FFFC000
007FFFF000
01FFFFF800
03FFFFFC00
07FFFFFE00
07FE03FF00
0FF800FF80
1FE0007F80
1FC0003FC0
3FC0001FC0
3F80000FE0
3F80000FE0
7F00000FE0
7F000007F0
7F000007F0
7F000007F0
7F000007F0
FF000007F0
FF000007F0
FF000007F0
FF000007F0
FF000007F0
FF000007F0
FF000007F0
FF000007F0
7F000007F0
7F000007F0
7F000007F0
7F000007F0
7F00000FE0
3F80000FE0
3F80000FE0
3FC0001FC0
1FC0003FC0
1FE0007F80
0FF800FF80
07FE03FF00
07FFFFFE00
03FFFFFC00
01FFFFF800
007FFFF000
001FFFC000
0003FE0000
ENDCHAR
STARTCHAR 00D4
ENCODING 212
SWIDTH 716 0
DWIDTH 43 0
BBX 36 58 3 -1
BITMAP
0001FC0000
0003FE0000
0007FF0000
000FFF0000
000FFF8000
001FDFC000
003F8FE000
007F07E000
007E03F000
00FC01F800
007800E000
0010004000
0000000000
0000000000
0003FE0000
001FFFC000
007FFFF000
01FFFFF800
03FFFFFC00
07FFFFFE00
07FE03FF00
0FF800FF80
1FE0007F80
1FC0003FC0
3FC0001FC0
3F80000FE0
3F80000FE0
7F00000FE0
7F000007F0
7F000007F0
7F000007F0
7F000007F0
FF000007F0
FF000007F0
FF000007F0
FF000007F0
FF000007F0
FF000007F0
FF000007F0
FF000007F0
7F000007F0
7F000007F0
7F000007F0
7F000007F0
7F00000FE0
3F80000FE0
3F80000FE0
3FC0001FC0
1FC0003FC0
1FE0007F80
0FF800FF80
07FE03FF00
07FFFFFE00
03FFFFFC00
01FFFFF800
007FFFF000
001FFFC000
0003FE0000
ENDCHAR
STARTCHAR 00D5
ENCODING 213
SWIDTH 716 0
DWIDTH 43 0
BBX 36 55 3 -1
BITMAP
001F000000
003FE02000
007FF87000
00FFFFF000
00FFFFF800
0070FFF000
00203FE000
00000F8000
0000000000
0000000000
0000000000
0003FE0000
001FFFC000
007FFFF000
01FFFFF800
03FFFFFC00
07FFFFFE00
07FE03FF00
0FF800FF80
1FE0007F80
1FC0003FC0
3FC0001FC0
3F80000FE0
3F80000FE0
7F00000FE0
7F000007F0
7F000007F0
7F000007F0
7F000007F0
FF000007F0
FF000007F0
FF000007F0
FF000007F0
FF000007F0
FF000007F0
FF000007F0
FF000007F0
7F000007F0
7F000007F0
7F000007F0
7F000007F0
7F00000FE0
3F80000FE0
3F80000FE0
3FC0001FC0
1FC0003FC0
1FE0007F80
0FF800FF80
07FE03FF00
07FFFFFE00
03FFFFFC00
01FFFFF800
007FFFF000
001FFFC000
0003FE0000
ENDCHAR
STARTCHAR 00D6
ENCODING 214
SWIDTH 716 0
DWIDTH 43 0
BBX 36 56 3 -1
BITMAP
003E03E000
007F07F000
007F07F000
007F07F000
007F07F000
007F07F000
007F07F000
003E03E000
0000000000
0000000000
0000000000
0000000000
0003FE0000
001FFFC000
007FFFF000
01FFFFF800
03FFFFFC00
07FFFFFE00
07FE03FF00
0FF800FF80
1FE0007F80
1FC0003FC0
3FC0001FC0
3F80000FE0
3F80000FE0
7F00000FE0
7F000007F0
7F000007F0
7F000007F0
7F000007F0
FF000007F0
FF000007F0
FF000007F0
FF000007F0
FF000007F0
FF000007F0
FF000007F0
FF000007F0
7F000007F0
7F000007F0
7F000007F0
7F000007F0
7F00000FE0
3F80000FE0
3F80000FE0
3FC0001FC0
1FC0003FC0
1FE0007F80
0FF800FF80
07FE03FF00
07FFFFFE00
03FFFFFC00
01FFFFF800
007FFFF000
001FFFC000
0003FE0000
ENDCHAR
STARTCHAR 00D7
ENCODING 215
SWIDTH 600 0
DWIDTH 36 0
BBX 26 26 5 5
BITMAP
10000600
38000700
7C000F80
FE001FC0
7F003F80
3F807F00
1FC0FE00
0FE1FC00
07F3F800
03FFF000
01FFE000
00FFC000
007F8000
007F8000
00FFC000
01FFE000
03FFF000
07FBF800
0FF3FC00
1FE1FE00
3FC0FF00
7F807F80
FF003FC0
7E001F80
3C000F00
18000600
ENDCHAR
STARTCHAR 00D8
ENCODING 216
SWIDTH 716 0
DWIDTH 43 0
BBX 36 48 3 -3
BITMAP
0000000180
00000003C0
0003FE03F0
001FFFC7E0
007FFFFFE0
01FFFFFFC0
03FFFFFF80
07FFFFFF80
07FE03FF00
0FF800FF80
1FE000FF80
1FC000FFC0
3FC001FFC0
3F8003FFE0
3F0003FFE0
7F0007E7E0
7F000FC7F0
7F000FC7F0
7E001F87F0
7E003F07F0
FE003F07F0
FE007E07F0
FE00FC07F0
FE00FC07F0
FE01F807F0
FE03F007F0
FE03F007F0
FE07E007F0
7E0FC007F0
7E0FC007F0
7F1F8007F0
7F3F0007F0
7F3F0007E0
3F7E000FE0
3FFC000FE0
3FFC001FC0
1FF8003FC0
1FF0007F80
0FF800FF80
07FE03FF00
0FFFFFFE00
1FFFFFFC00
1FFFFFF800
3F7FFFF000
7F1FFFC000
7E03FE0000
3C00000000
0C00000000
ENDCHAR
STARTCHAR 00D9
ENCODING 217
SWIDTH 683 0
DWIDTH 41 0
BBX 31 59 5 -1
BITMAP
00040000
001C0000
007E0000
00FE0000
007F0000
003F0000
003F8000
001F8000
000FC000
000FC000
0007E000
0003C000
00010000
00000000
00000000
00000000
FE00007E
FE00007E
FE00007E
FE00007E
FE00007E
FE00007E
FE00007E
FE00007E
FE00007E
FE00007E
FE00007E
FE00007E
FE00007E
FE00007E
FE00007E
FE00007E
FE00007E
FE00007E
FE00007E
FE00007E
FE00007E
FE00007E
FE00007E
FE00007E
FE00007E
FE00007E
FE00007E
FE00007E
FE0000FE
FE0000FE
FE0000FE
FE0000FE
7F0000FE
7F0001FC
7F8003FC
3FC007FC
3FF01FF8
1FFFFFF8
1FFFFFF0
0FFFFFE0
03FFFFC0
01FFFF00
003FF800
ENDCHAR
STARTCHAR 00DA
ENCODING 218
SWIDTH 683 0
DWIDTH 41 0
BBX 31 59 5 -1
BITMAP
00004000
00007000
0000FC00
0000FE00
0001FC00
0001FC00
0003F800
0003F000
0007E000
0007E000
000FC000
00078000
00018000
00000000
00000000
00000000
FE00007E
FE00007E
FE00007E
FE00007E
FE00007E
FE00007E
FE00007E
FE00007E
FE00007E
FE00007E
FE00007E
FE00007E
FE00007E
FE00007E
FE00007E
FE00007E
FE00007E
FE00007E
FE00007E
FE00007E
FE00007E
FE00007E
FE00007E
FE00007E
FE00007E
FE00007E
FE00007E
FE00007E
FE0000FE
FE0000FE
FE0000FE
FE0000FE
7F0000FE
7F0001FC
7F8003FC
3FC007FC
3FF01FF8
1FFFFFF8
1FFFFFF0
0FFFFFE0
03FFFFC0
01FFFF00
003FF800
ENDCHAR
STARTCHAR 00DB
ENCODING 219
SWIDTH 683 0
DWIDTH 41 0
BBX 31 58 5 -1
BITMAP
000FE000
001FF000
003FF800
003FFC00
007FFC00
00FEFE00
01FC7F00
01F83F80
03F01F80
07E00FC0
01C00780
00800200
00000000
00000000
00000000
FE00007E
FE00007E
FE00007E
FE00007E
FE00007E
FE00007E
FE00007E
FE00007E
FE00007E
FE00007E
FE00007E
FE00007E
FE00007E
FE00007E
FE00007E
FE00007E
FE00007E
FE00007E
FE00007E
FE00007E
FE00007E
FE00007E
FE00007E
FE00007E
FE00007E
FE00007E
FE00007E
FE00007E
FE0000FE
FE0000FE
FE0000FE
FE0000FE
7F0000FE
7F0001FC
7F8003FC
3FC007FC
3FF01FF8
1FFFFFF8
1FFFFFF0
0FFFFFE0
03FFFFC0
01FFFF00
003FF800
ENDCHAR
STARTCHAR 00DC
ENCODING 220
SWIDTH 683 0
DWIDTH 41 0
BBX 31 56 5 -1
BITMAP
01F01F00
03F83F80
03F83F80
03F83F80
03F83F80
03F83F80
03F83F80
01F01F00
00000000
00000000
00000000
00000000
00000000
FE00007E
FE00007E
FE00007E
FE00007E
FE00007E
FE00007E
FE00007E
FE00007E
FE00007E
FE00007E
FE00007E
FE00007E
FE00007E
FE00007E
FE00007E
FE00007E
FE00007E
FE00007E
FE00007E
FE00007E
FE00007E
FE00007E
FE00007E
FE00007E
FE00007E
FE00007E
FE00007E
FE00007E
FE0000FE
FE0000FE
FE0000FE
FE0000FE
7F0000FE
7F0001FC
7F8003FC
3FC007FC
3FF01FF8
1FFFFFF8
1FFFFFF0
0FFFFFE0
03FFFFC0
01FFFF00
003FF800
ENDCHAR
STARTCHAR 00DD
ENCODING 221
SWIDTH 616 0
DWIDTH 37 0
BBX 35 58 1 0
BITMAP
0000100000
00001C0000
00003F0000
00003F8000
00007F0000
00007F0000
0000FE0000
0000FC0000
0001F80000
0001F80000
0003F00000
0001E00000
0000600000
0000000000
0000000000
0000000000
FF00000FE0
FF00001FE0
7F80001FC0
3F80003F80
3FC0003F80
1FC0007F00
1FE000FF00
0FE000FE00
0FF001FE00
07F001FC00
03F803F800
03FC03F800
01FC07F000
01FE07F000
00FE0FE000
00FF0FE000
007F1FC000
007F9F8000
003FBF8000
001FFF0000
001FFF0000
000FFE0000
000FFE0000
0007FC0000
0007F80000
0003F80000
0003F80000
0003F80000
0003F80000
0003F80000
0003F80000
0003F80000
0003F80000
0003F80000
0003F80000
0003F80000
0003F80000
0003F80000
0003F80000
0003F80000
0003F80000
0003F80000
ENDCHAR
STARTCHAR 00DE
ENCODING 222
SWIDTH 633 0
DWIDTH 38 0
BBX 30 42 5 0
BITMAP
FE000000
FE000000
FE000000
FE000000
FE000000
FE000000
FE000000
FE000000
FFFFFC00
FFFFFF80
FFFFFFC0
FFFFFFE0
FFFFFFF0
FFFFFFF8
FE000FF8
FE0003FC
FE0001FC
FE0001FC
FE0001FC
FE0001FC
FE0001FC
FE0001FC
FE0001FC
FE0001FC
FE0001FC
FE0003FC
FE000FF8
FFFFFFF8
FFFFFFF0
FFFFFFE0
FFFFFFC0
FFFFFF80
FFFFFC00
FE000000
FE000000
FE000000
FE000000
FE000000
FE000000
FE000000
FE000000
FE000000
ENDCHAR
STARTCHAR 00DF
ENCODING 223
SWIDTH 666 0
DWIDTH 40 0
BBX 36 46 2 -1
BITMAP
0003FE0000
001FFF8000
007FFFE000
00FFFFF000
01FFFFF800
03FFFFFC00
03FE03FC00
07F800FE00
07F0007E00
07F0007F00
07E0003F00
0FE0003F00
0FE0003F00
0FE001FF00
FFE007FF00
FFE01FFF00
FFE03FFF00
FFE07FFF00
FFE07F8000
FFE07E0000
0FE0FC0000
0FE0FC0000
0FE0FC0000
0FE0FE0000
0FE0FF0000
0FE07FC000
0FE07FF800
0FE03FFF00
0FE03FFF80
0FE00FFFC0
0FE003FFE0
0FE000FFF0
0FE0000FF0
0FE00007F0
0FE00003F0
0FE00003F0
0FE00003F0
0FE06003F0
0FE0F007F0
0FE1FC0FE0
0FE3FFFFE0
0FE1FFFFC0
0FE0FFFFC0
0FE07FFF80
0FE03FFE00
000007F800
ENDCHAR
STARTCHAR 00E0
ENCODING 224
SWIDTH 550 0
DWIDTH 33 0
BBX 29 49 2 -1
BITMAP
00100000
00700000
01F80000
03F80000
01FC0000
00FC0000
00FE0000
007E0000
003F0000
003F0000
001F8000
000F0000
00040000
00000000
00000000
00000000
007FC000
03FFF800
07FFFC00
0FFFFE00
1FFFFF00
3FFFFF80
3FC0FF80
1F003FC0
0E001FC0
04001FC0
00001FC0
00001FC0
00001FC0
00001FC0
007FFFC0
07FFFFC0
0FFFFFC0
3FFFFFC0
3FC01FC0
7F001FC0
7E001FC0
7E001FC0
FE001FC0
FE001FC0
FE001FC0
7F003FC0
7F80EFF8
7FFFEFF8
3FFFEFF8
3FFFC7F8
1FFF83F8
0FFF01F8
01FC0000
ENDCHAR
STARTCHAR 00E1
ENCODING 225
SWIDTH 550 0
DWIDTH 33 0
BBX 29 49 2 -1
BITMAP
00010000
0001C000
0003F000
0003F800
0007F000
0007F000
000FE000
000FC000
001F8000
001F8000
003F0000
001E0000
00060000
00000000
00000000
00000000
007FC000
03FFF800
07FFFC00
0FFFFE00
1FFFFF00
3FFFFF80
3FC0FF80
1F003FC0
0E001FC0
04001FC0
00001FC0
00001FC0
00001FC0
00001FC0
007FFFC0
07FFFFC0
0FFFFFC0
3FFFFFC0
3FC01FC0
7F001FC0
7E001FC0
7E001FC0
FE001FC0
FE001FC0
FE001FC0
7F003FC0
7F80EFF8
7FFFEFF8
3FFFEFF8
3FFFC7F8
1FFF83F8
0FFF01F8
01FC0000
ENDCHAR
STARTCHAR 00E2
ENCODING 226
SWIDTH 550 0
DWIDTH 33 0
BBX 29 48 2 -1
BITMAP
003F8000
007FC000
00FFE000
00FFF000
01FFF000
03FBF800
07F1FC00
0FE0FE00
0FC07E00
1F803F00
07001E00
02000800
00000000
00000000
00000000
007FC000
03FFF800
07FFFC00
0FFFFE00
1FFFFF00
3FFFFF80
3FC0FF80
1F003FC0
0E001FC0
04001FC0
00001FC0
00001FC0
00001FC0
00001FC0
007FFFC0
07FFFFC0
0FFFFFC0
3FFFFFC0
3FC01FC0
7F001FC0
7E001FC0
7E001FC0
FE001FC0
FE001FC0
FE001FC0
7F003FC0
7F80EFF8
7FFFEFF8
3FFFEFF8
3FFFC7F8
1FFF83F8
0FFF01F8
01FC0000
ENDCHAR
STARTCHAR 00E3
ENCODING 227
SWIDTH 550 0
DWIDTH 33 0
BBX 29 45 2 -1
BITMAP
01F00000
07FC0400
0FFF0E00
1FFFFF00
0FFFFF00
0E1FFE00
0407FC00
0001F800
00000000
00000000
00000000
00000000
007FC000
03FFF800
07FFFC00
0FFFFE00
1FFFFF00
3FFFFF80
3FC0FF80
1F003FC0
0E001FC0
04001FC0
00001FC0
00001FC0
00001FC0
00001FC0
007FFFC0
07FFFFC0
0FFFFFC0
3FFFFFC0
3FC01FC0
7F001FC0
7E001FC0
7E001FC0
FE001FC0
FE001FC0
FE001FC0
7F003FC0
7F80EFF8
7FFFEFF8
3FFFEFF8
3FFFC7F8
1FFF83F8
0FFF01F8
01FC0000
ENDCHAR
STARTCHAR 00E4
ENCODING 228
SWIDTH 550 0
DWIDTH 33 0
BBX 29 45 2 -1
BITMAP
07C07C00
0FE0FE00
0FE0FE00
0FE0FE00
0FE0FE00
0FE0FE00
07C07C00
00000000
00000000
00000000
00000000
00000000
007FC000
03FFF800
07FFFC00
0FFFFE00
1FFFFF00
3FFFFF80
3FC0FF80
1F003FC0
0E001FC0
04001FC0
00001FC0
00001FC0
00001FC0
00001FC0
007FFFC0
07FFFFC0
0FFFFFC0
3FFFFFC0
3FC01FC0
7F001FC0
7E001FC0
7E001FC0
FE001FC0
FE001FC0
FE001FC0
7F003FC0
7F80EFF8
7FFFEFF8
3FFFEFF8
3FFFC7F8
1FFF83F8
0FFF01F8
01FC0000
ENDCHAR
STARTCHAR 00E5
ENCODING 229
SWIDTH 550 0
DWIDTH 33 0
BBX 29 51 2 -1
BITMAP
001F0000
007FC000
00FFE000
01FFF000
01E0F800
03E07800
03C07800
03C07800
03C07800
03C07800
03E07800
01F0F800
01FFF000
00FFE000
007FC000
001F0000
00000000
00000000
007FC000
03FFF800
07FFFC00
0FFFFE00
1FFFFF00
3FFFFF80
3FC0FF80
1F003FC0
0E001FC0
04001FC0
00001FC0
00001FC0
00001FC0
00001FC0
007FFFC0
07FFFFC0
0FFFFFC0
3FFFFFC0
3FC01FC0
7F001FC0
7E001FC0
7E001FC0
FE001FC0
FE001FC0
FE001FC0
7F003FC0
7F80EFF8
7FFFEFF8
3FFFEFF8
3FFFC7F8
1FFF83F8
0FFF01F8
01FC0000
ENDCHAR
STARTCHAR 00E6
ENCODING 230
SWIDTH 866 0
DWIDTH 52 0
BBX 47 33 2 -1
BITMAP
007F8003FC00
03FFE00FFF00
07FFF03FFFC0
0FFFF87FFFE0
1FFFFCFFFFF0
3FFFFCFFFFF8
3FC0FFFE0FF8
1F003FF803FC
0E001FF001FC
04001FE000FC
00001FC000FE
00001FC000FE
00001FC000FE
00001FC000FE
007FFFFFFFFE
03FFFFFFFFFE
0FFFFFFFFFFE
1FFFFFFFFFFE
3FC01FC00000
7F001FC00000
7E001FC00000
7E001FC00000
FE001FE00040
FE001FE00020
FE001FF00070
7F003FF800F8
7F80F9FE03FC
7FFFF9FFFFFC
3FFFF0FFFFF8
3FFFE07FFFF0
1FFFC03FFFC0
0FFF800FFF80
01FC0003FC00
ENDCHAR
STARTCHAR 00E7
ENCODING 231
SWIDTH 516 0
DWIDTH 31 0
BBX 26 45 3 -13
BITMAP
003FC000
01FFF000
07FFFC00
0FFFFE00
1FFFFF00
1FFFFF00
3FE07F80
7F803F80
7F001FC0
7E000E00
FE000800
FE000000
FE000000
FC000000
FC000000
FC000000
FC000000
FC000000
FC000000
FC000000
FE000000
FE000000
FE000400
7E000F00
7F001FC0
7F803FC0
3FE07F80
3FFFFF00
1FFFFF00
0FFFFE00
07FFFC00
01FFF000
007FC000
001E0000
001E0000
001C0000
001FE000
0003F000
0000F800
0040F800
0060F800
00FFF800
01FFF000
007FE000
001F8000
ENDCHAR
STARTCHAR 00E8
ENCODING 232
SWIDTH 550 0
DWIDTH 33 0
BBX 28 49 3 -1
BITMAP
00100000
00780000
01F80000
03FC0000
01FC0000
00FE0000
007E0000
007F0000
003F0000
001F8000
000F8000
000F0000
00040000
00000000
00000000
00000000
003FC000
01FFF800
03FFFC00
0FFFFE00
1FFFFF00
1FFFFF80
3FE07FC0
7F803FC0
7F001FE0
7E000FE0
FE000FE0
FE0007E0
FC0007F0
FC0007F0
FFFFFFF0
FFFFFFF0
FFFFFFF0
FFFFFFF0
FC000000
FC000000
FC000000
FE000000
FE000200
7F000300
7F000780
7F800FC0
3FE03FE0
1FFFFFC0
1FFFFF80
0FFFFF00
03FFFE00
01FFF800
003FC000
ENDCHAR
STARTCHAR 00E9
ENCODING 233
SWIDTH 550 0
DWIDTH 33 0
BBX 28 49 3 -1
BITMAP
00008000
0001E000
0001F800
0003FC00
0003F800
0007F000
0007E000
000FE000
000FC000
001F8000
001F0000
000F0000
00020000
00000000
00000000
00000000
003FC000
01FFF800
03FFFC00
0FFFFE00
1FFFFF00
1FFFFF80
3FE07FC0
7F803FC0
7F001FE0
7E000FE0
FE000FE0
FE0007E0
FC0007F0
FC0007F0
FFFFFFF0
FFFFFFF0
FFFFFFF0
FFFFFFF0
FC000000
FC000000
FC000000
FE000000
FE000200
7F000300
7F000780
7F800FC0
3FE03FE0
1FFFFFC0
1FFFFF80
0FFFFF00
03FFFE00
01FFF800
003FC000
ENDCHAR
STARTCHAR 00EA
ENCODING 234
SWIDTH 550 0
DWIDTH 33 0
BBX 28 48 3 -1
BITMAP
003FC000
003FE000
007FE000
00FFF000
01FFF800
03FDFC00
03F8FC00
07F07E00
0FC03F00
0F801F80
07000E00
02000400
00000000
00000000
00000000
003FC000
01FFF800
03FFFC00
0FFFFE00
1FFFFF00
1FFFFF80
3FE07FC0
7F803FC0
7F001FE0
7E000FE0
FE000FE0
FE0007E0
FC0007F0
FC0007F0
FFFFFFF0
FFFFFFF0
FFFFFFF0
FFFFFFF0
FC000000
FC000000
FC000000
FE000000
FE000200
7F000300
7F000780
7F800FC0
3FE03FE0
1FFFFFC0
1FFFFF80
0FFFFF00
03FFFE00
01FFF800
003FC000
ENDCHAR
STARTCHAR 00EB
ENCODING 235
SWIDTH 550 0
DWIDTH 33 0
BBX 28 45 3 -1
BITMAP
03C03C00
07E07E00
0FF0FF00
0FF0FF00
0FF0FF00
07E07E00
03C03C00
00000000
00000000
00000000
00000000
00000000
003FC000
01FFF800
03FFFC00
0FFFFE00
1FFFFF00
1FFFFF80
3FE07FC0
7F803FC0
7F001FE0
7E000FE0
FE000FE0
FE0007E0
FC0007F0
FC0007F0
FFFFFFF0
FFFFFFF0
FFFFFFF0
FFFFFFF0
FC000000
FC000000
FC000000
FE000000
FE000200
7F000300
7F000780
7F800FC0
3FE03FE0
1FFFFFC0
1FFFFF80
0FFFFF00
03FFFE00
01FFF800
003FC000
ENDCHAR
STARTCHAR 00EC
ENCODING 236
SWIDTH 266 0
DWIDTH 16 0
BBX 11 48 0 0
BITMAP
0400
1E00
7E00
FF00
7F00
3F80
1F80
1FC0
0FC0
07E0
03E0
03C0
0100
0000
0000
0000
0000
07E0
07E0
07E0
07E0
07E0
07E0
07E0
07E0
07E0
07E0
07E0
07E0
07E0
07E0
07E0
07E0
07E0
07E0
07E0
07E0
07E0
07E0
07E0
07E0
07E0
07E0
07E0
07E0
07E0
07E0
07E0
ENDCHAR
STARTCHAR 00ED
ENCODING 237
SWIDTH 266 0
DWIDTH 16 0
BBX 11 48 5 0
BITMAP
0400
0F00
0FC0
1FE0
1FC0
3F80
3F00
7F00
7E00
FC00
F800
7800
1000
0000
0000
0000
0000
FC00
FC00
FC00
FC00
FC00
FC00
FC00
FC00
FC00
FC00
FC00
FC00
FC00
FC00
FC00
FC00
FC00
FC00
FC00
FC00
FC00
FC00
FC00
FC00
FC00
FC00
FC00
FC00
FC00
FC00
FC00
ENDCHAR
STARTCHAR 00EE
ENCODING 238
SWIDTH 266 0
DWIDTH 16 0
BBX 21 47 -2 0
BITMAP
03FC00
03FE00
07FE00
0FFF00
1FFF80
3FDFC0
3F8FC0
7F07E0
FC03F0
F801F8
7000E0
200040
000000
000000
000000
000000
01F800
01F800
01F800
01F800
01F800
01F800
01F800
01F800
01F800
01F800
01F800
01F800
01F800
01F800
01F800
01F800
01F800
01F800
01F800
01F800
01F800
01F800
01F800
01F800
01F800
01F800
01F800
01F800
01F800
01F800
01F800
ENDCHAR
STARTCHAR 00EF
ENCODING 239
SWIDTH 266 0
DWIDTH 16 0
BBX 20 44 -2 0
BITMAP
3C03C0
7E07E0
FF0FF0
FF0FF0
FF0FF0
7E07E0
3C03C0
000000
000000
000000
000000
000000
000000
01F800
01F800
01F800
01F800
01F800
01F800
01F800
01F800
01F800
01F800
01F800
01F800
01F800
01F800
01F800
01F800
01F800
01F800
01F800
01F800
01F800
01F800
01F800
01F800
01F800
01F800
01F800
01F800
01F800
01F800
01F800
ENDCHAR
STARTCHAR 00F0
ENCODING 240
SWIDTH 566 0
DWIDTH 34 0
BBX 29 46 3 -1
BITMAP
00000C00
1FF81C00
07FE7E00
01FFFF00
00FFF800
003FF000
001FF000
003FF000
00FFF800
01FFFC00
00F1FE00
00C0FE00
00007F00
00003F80
00003F80
007F1FC0
03FF8FC0
07FFEFC0
0FFFEFE0
1FFFF7E0
3FFFFFE0
3FE07FF0
7F801FF0
7F000FF0
FE0007F0
FE0007F0
FE0007F0
FE0003F0
FE0003F0
FE0003F8
FE0003F0
FE0003F0
FE0003F0
FE0003F0
FE0007F0
FE0007F0
7F0007E0
7F000FE0
7F801FE0
3FE07FC0
1FFFFF80
1FFFFF80
0FFFFF00
03FFFE00
01FFF800
003FC000
ENDCHAR
STARTCHAR 00F1
ENCODING 241
SWIDTH 583 0
DWIDTH 35 0
BBX 25 44 5 0
BITMAP
03E00000
0FF80800
1FFE1C00
3FFFFE00
1FFFFE00
1C3FFC00
080FF800
0003F000
00000000
00000000
00000000
00000000
000FE000
FC3FF800
FC7FFC00
FCFFFE00
FDFFFF00
FDFFFF00
FFC0FF80
FF007F80
FE003F80
FE003F80
FC001F80
FC001F80
FC001F80
FC001F80
FC001F80
FC001F80
FC001F80
FC001F80
FC001F80
FC001F80
FC001F80
FC001F80
FC001F80
FC001F80
FC001F80
FC001F80
FC001F80
FC001F80
FC001F80
FC001F80
FC001F80
FC001F80
ENDCHAR
STARTCHAR 00F2
ENCODING 242
SWIDTH 566 0
DWIDTH 34 0
BBX 28 49 3 -1
BITMAP
00100000
00780000
01F80000
03FC0000
01FC0000
00FE0000
007E0000
007F0000
003F0000
001F8000
001F8000
000F0000
00040000
00000000
00000000
00000000
003FC000
01FFF800
03FFFC00
0FFFFE00
1FFFFF00
1FFFFF80
3FE07FC0
7F801FC0
7F000FE0
7E000FE0
FE0007E0
FE0007F0
FE0007F0
FC0007F0
FC0007F0
FC0007F0
FC0007F0
FC0007F0
FC0007F0
FC0007F0
FE0007F0
FE0007F0
FE0007E0
7E000FE0
7F000FE0
7F801FC0
3FE07FC0
1FFFFF80
1FFFFF00
0FFFFE00
03FFFC00
01FFF800
003FC000
ENDCHAR
STARTCHAR 00F3
ENCODING 243
SWIDTH 566 0
DWIDTH 34 0
BBX 28 49 3 -1
BITMAP
00008000
0001E000
0001F800
0003FC00
0003F800
0007F000
0007E000
000FC000
000FC000
001F8000
001F0000
003F0000
00020000
00000000
00000000
00000000
003FC000
01FFF800
03FFFC00
0FFFFE00
1FFFFF00
1FFFFF80
3FE07FC0
7F801FC0
7F000FE0
7E000FE0
FE0007E0
FE0007F0
FE0007F0
FC0007F0
FC0007F0
FC0007F0
FC0007F0
FC0007F0
FC0007F0
FC0007F0
FE0007F0
FE0007F0
FE0007E0
7E000FE0
7F000FE0
7F801FC0
3FE07FC0
1FFFFF80
1FFFFF00
0FFFFE00
03FFFC00
01FFF800
003FC000
ENDCHAR
STARTCHAR 00F4
ENCODING 244
SWIDTH 566 0
DWIDTH 34 0
BBX 28 48 3 -1
BITMAP
003FC000
007FC000
007FE000
00FFF000
01FFF800
03FBF800
03F1FC00
07E0FE00
0FC07F00
1F803F00
07000E00
02000400
00000000
00000000
00000000
003FC000
01FFF800
03FFFC00
0FFFFE00
1FFFFF00
1FFFFF80
3FE07FC0
7F801FC0
7F000FE0
7E000FE0
FE0007E0
FE0007F0
FE0007F0
FC0007F0
FC0007F0
FC0007F0
FC0007F0
FC0007F0
FC0007F0
FC0007F0
FE0007F0
FE0007F0
FE0007E0
7E000FE0
7F000FE0
7F801FC0
3FE07FC0
1FFFFF80
1FFFFF00
0FFFFE00
03FFFC00
01FFF800
003FC000
ENDCHAR
STARTCHAR 00F5
ENCODING 245
SWIDTH 566 0
DWIDTH 34 0
BBX 28 45 3 -1
BITMAP
01F00000
07FC0400
0FFF0E00
1FFFFF00
0FFFFF80
061FFF00
0403FE00
0000F800
00000000
00000000
00000000
00000000
003FC000
01FFF800
03FFFC00
0FFFFE00
1FFFFF00
1FFFFF80
3FE07FC0
7F801FC0
7F000FE0
7E000FE0
FE0007E0
FE0007F0
FE0007F0
FC0007F0
FC0007F0
FC0007F0
FC0007F0
FC0007F0
FC0007F0
FC0007F0
FE0007F0
FE0007F0
FE0007E0
7E000FE0
7F000FE0
7F801FC0
3FE07FC0
1FFFFF80
1FFFFF00
0FFFFE00
03FFFC00
01FFF800
003FC000
ENDCHAR
STARTCHAR 00F6
ENCODING 246
SWIDTH 566 0
DWIDTH 34 0
BBX 28 45 3 -1
BITMAP
07C07C00
07E07E00
0FF0FF00
0FF0FF00
0FF0FF00
07E07E00
07C07C00
00000000
00000000
00000000
00000000
00000000
003FC000
01FFF800
03FFFC00
0FFFFE00
1FFFFF00
1FFFFF80
3FE07FC0
7F801FC0
7F000FE0
7E000FE0
FE0007E0
FE0007F0
FE0007F0
FC0007F0
FC0007F0
FC0007F0
FC0007F0
FC0007F0
FC0007F0
FC0007F0
FE0007F0
FE0007F0
FE0007E0
7E000FE0
7F000FE0
7F801FC0
3FE07FC0
1FFFFF80
1FFFFF00
0FFFFE00
03FFFC00
01FFF800
003FC000
ENDCHAR
STARTCHAR 00F7
ENCODING 247
SWIDTH 600 0
DWIDTH 36 0
BBX 28 32 4 2
BITMAP
001F8000
003FC000
003FC000
003FC000
003FC000
003FC000
003FC000
001F8000
00000000
00000000
00000000
00000000
00000000
FFFFFFF0
FFFFFFF0
FFFFFFF0
FFFFFFF0
FFFFFFF0
FFFFFFF0
00000000
00000000
00000000
00000000
00000000
001F8000
003FC000
003FC000
003FC000
003FC000
003FC000
003FC000
001F8000
ENDCHAR
STARTCHAR 00F8
ENCODING 248
SWIDTH 566 0
DWIDTH 34 0
BBX 31 37 2 -3
BITMAP
00000010
00000038
001FE07C
00FFFCFE
01FFFFF8
03FFFFF8
07FFFFF0
0FFFFFE0
1FF03FE0
1FC00FE0
3F801FF0
3F803FF0
7F007FF8
7F00FFF8
7F00FBF8
7F01F9F8
7F03F1F8
7F07E1F8
7F0FC1F8
7F1F81F8
7F3F01F8
7F3E01F8
7F7E01F8
7FFC03F8
3FF803F8
3FF003F0
3FE007F0
1FC00FF0
1FF03FE0
1FFFFFC0
3FFFFFC0
3FFFFF80
7FFFFE00
FCFFFC00
F81FE000
70000000
10000000
ENDCHAR
STARTCHAR 00F9
ENCODING 249
SWIDTH 583 0
DWIDTH 35 0
BBX 26 49 4 -1
BITMAP
00200000
00700000
01F00000
03F80000
01F80000
01FC0000
00FC0000
007E0000
007E0000
003F0000
001F8000
000F0000
000C0000
00000000
00000000
00000000
00000000
FE000FC0
FE000FC0
FE000FC0
FE000FC0
FE000FC0
FE000FC0
FE000FC0
FE000FC0
FE000FC0
FE000FC0
FE000FC0
FE000FC0
FE000FC0
FE000FC0
FE000FC0
FE000FC0
FE000FC0
FE000FC0
FE000FC0
FE000FC0
FE000FC0
FE001FC0
7F001FC0
7F001FC0
7F803FC0
7FC0FFC0
3FFFEFC0
3FFFEFC0
1FFFCFC0
0FFF8FC0
07FF0FC0
01FC0000
ENDCHAR
STARTCHAR 00FA
ENCODING 250
SWIDTH 583 0
DWIDTH 35 0
BBX 26 49 4 -1
BITMAP
00010000
0001C000
0003F000
0003F800
0007F000
0007E000
000FE000
000FC000
001F8000
001F0000
003F0000
001E0000
00040000
00000000
00000000
00000000
00000000
FE000FC0
FE000FC0
FE000FC0
FE000FC0
FE000FC0
FE000FC0
FE000FC0
FE000FC0
FE000FC0
FE000FC0
FE000FC0
FE000FC0
FE000FC0
FE000FC0
FE000FC0
FE000FC0
FE000FC0
FE000FC0
FE000FC0
FE000FC0
FE000FC0
FE001FC0
7F001FC0
7F001FC0
7F803FC0
7FC0FFC0
3FFFEFC0
3FFFEFC0
1FFFCFC0
0FFF8FC0
07FF0FC0
01FC0000
ENDCHAR
STARTCHAR 00FB
ENCODING 251
SWIDTH 583 0
DWIDTH 35 0
BBX 26 48 4 -1
BITMAP
003F8000
007FC000
00FFE000
01FFE000
01FFF000
03FBF800
07F1FC00
0FE0FC00
1FC07E00
1F803F00
0F001C00
02000800
00000000
00000000
00000000
00000000
FE000FC0
FE000FC0
FE000FC0
FE000FC0
FE000FC0
FE000FC0
FE000FC0
FE000FC0
FE000FC0
FE000FC0
FE000FC0
FE000FC0
FE000FC0
FE000FC0
FE000FC0
FE000FC0
FE000FC0
FE000FC0
FE000FC0
FE000FC0
FE000FC0
FE001FC0
7F001FC0
7F001FC0
7F803FC0
7FC0FFC0
3FFFEFC0
3FFFEFC0
1FFFCFC0
0FFF8FC0
07FF0FC0
01FC0000
ENDCHAR
STARTCHAR 00FC
ENCODING 252
SWIDTH 583 0
DWIDTH 35 0
BBX 26 45 4 -1
BITMAP
07C07C00
0FE0FE00
0FE0FE00
0FE0FE00
0FE0FE00
0FE0FE00
07C07C00
00000000
00000000
00000000
00000000
00000000
00000000
FE000FC0
FE000FC0
FE000FC0
FE000FC0
FE000FC0
FE000FC0
FE000FC0
FE000FC0
FE000FC0
FE000FC0
FE000FC0
FE000FC0
FE000FC0
FE000FC0
FE000FC0
FE000FC0
FE000FC0
FE000FC0
FE000FC0
FE000FC0
FE000FC0
FE001FC0
7F001FC0
7F001FC0
7F803FC0
7FC0FFC0
3FFFEFC0
3FFFEFC0
1FFFCFC0
0FFF8FC0
07FF0FC0
01FC0000
ENDCHAR
STARTCHAR 00FD
ENCODING 253
SWIDTH 516 0
DWIDTH 31 0
BBX 29 60 1 -12
BITMAP
00008000
0000E000
0001F800
0001FC00
0003F800
0003F800
0007F000
0007E000
000FC000
000FC000
001F8000
000F0000
00030000
00000000
00000000
00000000
00000000
FC0001F8
FE0003F8
7E0003F0
7E0003F0
7F0007F0
3F0007E0
3F8007E0
3F800FC0
1F800FC0
1FC01FC0
1FC01F80
0FC01F80
0FE03F80
07E03F00
07E03F00
07F07F00
03F07E00
03F07E00
03F8FE00
01F8FC00
01F8FC00
01FDFC00
00FDF800
00FDF800
00FFF000
007FF000
007FF000
003FE000
003FE000
003FE000
001FC000
001FC000
001FC000
003F8000
003F8000
003F8000
007F0000
0FFF0000
0FFE0000
0FFE0000
0FFC0000
0FF80000
0FF00000
ENDCHAR
STARTCHAR 00FE
ENCODING 254
SWIDTH 600 0
DWIDTH 36 0
BBX 28 56 5 -12
BITMAP
FC000000
FC000000
FC000000
FC000000
FC000000
FC000000
FC000000
FC000000
FC000000
FC000000
FC000000
FC000000
FC0FE000
FC3FF800
FC7FFE00
FCFFFF00
FDFFFF80
FDFFFF80
FFC0FFC0
FF003FC0
FE001FE0
FE000FE0
FC000FE0
FC0007E0
FC0007E0
FC0007F0
FC0007F0
FC0007F0
FC0007F0
FC0007F0
FC0007F0
FC0007F0
FC0007E0
FC0007E0
FC000FE0
FE000FE0
FE001FE0
FF003FC0
FFC0FFC0
FDFFFF80
FDFFFF80
FCFFFF00
FC7FFE00
FC3FF800
FC0FE000
FC000000
FC000000
FC000000
FC000000
FC000000
FC000000
FC000000
FC000000
FC000000
FC000000
FC000000
ENDCHAR
STARTCHAR 00FF
ENCODING 255
SWIDTH 516 0
DWIDTH 31 0
BBX 29 56 1 -12
BITMAP
03E03E00
07F07F00
07F07F00
07F07F00
07F07F00
07F07F00
03E03E00
00000000
00000000
00000000
00000000
00000000
00000000
FC0001F8
FE0003F8
7E0003F0
7E0003F0
7F0007F0
3F0007E0
3F8007E0
3F800FC0
1F800FC0
1FC01FC0
1FC01F80
0FC01F80
0FE03F80
07E03F00
07E03F00
07F07F00
03F07E00
03F07E00
03F8FE00
01F8FC00
01F8FC00
01FDFC00
00FDF800
00FDF800
00FFF000
007FF000
007FF000
003FE000
003FE000
003FE000
001FC000
001FC000
001FC000
003F8000
003F8000
003F8000
007F0000
0FFF0000
0FFE0000
0FFE0000
0FFC0000
0FF80000
0FF00000
ENDCHAR
STARTCHAR 0100
ENCODING 256
SWIDTH 666 0
DWIDTH 40 0
BBX 37 53 1 0
BITMAP
003FFFF000
003FFFF000
003FFFF000
003FFFF000
003FFFF000
0000000000
0000000000
0000000000
0000000000
0000000000
0000000000
0003FE0000
0003FF0000
0003FF0000
0007FF0000
0007FF8000
0007FF8000
000FDF8000
000FDFC000
000FCFC000
001FCFC000
001F8FE000
001F87E000
003F87E000
003F07F000
003F07F000
007F03F000
007E03F800
007E03F800
00FE01F800
00FC01FC00
00FC01FC00
01FC00FC00
01F800FE00
01F800FE00
03F8007E00
03FFFFFF00
03FFFFFF00
07FFFFFF00
07FFFFFF80
07FFFFFF80
0FFFFFFF80
0FE0001FC0
0FC0001FC0
1FC0001FE0
1FC0000FE0
1F80000FE0
3F80000FF0
3F800007F0
7F000007F0
7F000007F8
7F000003F8
FE000003F8
ENDCHAR
STARTCHAR 0101
ENCODING 257
SWIDTH 550 0
DWIDTH 33 0
BBX 29 44 2 -1
BITMAP
07FFFC00
07FFFC00
07FFFC00
07FFFC00
07FFFC00
00000000
00000000
00000000
00000000
00000000
00000000
007FC000
03FFF800
07FFFC00
0FFFFE00
1FFFFF00
3FFFFF80
3FC0FF80
1F003FC0
0E001FC0
04001FC0
00001FC0
00001FC0
00001FC0
00001FC0
007FFFC0
07FFFFC0
0FFFFFC0
3FFFFFC0
3FC01FC0
7F001FC0
7E001FC0
7E001FC0
FE001FC0
FE001FC0
FE001FC0
7F003FC0
7F80EFF8
7FFFEFF8
3FFFEFF8
3FFFC7F8
1FFF83F8
0FFF01F8
01FC0000
ENDCHAR
STARTCHAR 0102
ENCODING 258
SWIDTH 666 0
DWIDTH 40 0
BBX 37 56 1 0
BITMAP
0018004000
007800F000
007C00F800
007C01F000
003E03F000
003F07E000
001FFFE000
001FFFC000
000FFF8000
0007FF0000
0001FC0000
0000000000
0000000000
0000000000
0003FE0000
0003FF0000
0003FF0000
0007FF0000
0007FF8000
0007FF8000
000FDF8000
000FDFC000
000FCFC000
001FCFC000
001F8FE000
001F87E000
003F87E000
003F07F000
003F07F000
007F03F000
007E03F800
007E03F800
00FE01F800
00FC01FC00
00FC01FC00
01FC00FC00
01F800FE00
01F800FE00
03F8007E00
03FFFFFF00
03FFFFFF00
07FFFFFF00
07FFFFFF80
07FFFFFF80
0FFFFFFF80
0FE0001FC0
0FC0001FC0
1FC0001FE0
1FC0000FE0
1F80000FE0
3F80000FF0
3F800007F0
7F000007F0
7F000007F8
7F000003F8
FE000003F8
ENDCHAR
STARTCHAR 0103
ENCODING 259
SWIDTH 550 0
DWIDTH 33 0
BBX 29 47 2 -1
BITMAP
02000800
0F001E00
1F801F00
0F803E00
0FC07E00
07E0FC00
07FFFC00
03FFF800
01FFF000
00FFE000
003F8000
00000000
00000000
00000000
007FC000
03FFF800
07FFFC00
0FFFFE00
1FFFFF00
3FFFFF80
3FC0FF80
1F003FC0
0E001FC0
04001FC0
00001FC0
00001FC0
00001FC0
00001FC0
007FFFC0
07FFFFC0
0FFFFFC0
3FFFFFC0
3FC01FC0
7F001FC0
7E001FC0
7E001FC0
FE001FC0
FE001FC0
FE001FC0
7F003FC0
7F80EFF8
7FFFEFF8
3FFFEFF8
3FFFC7F8
1FFF83F8
0FFF01F8
01FC0000
ENDCHAR
STARTCHAR 0104
ENCODING 260
SWIDTH 666 0
DWIDTH 40 0
BBX 39 55 1 -13
BITMAP
0003FE0000
0003FF0000
0003FF0000
0007FF0000
0007FF8000
0007FF8000
000FDF8000
000FDFC000
000FCFC000
001FCFC000
001F8FE000
001F87E000
003F87E000
003F07F000
003F07F000
007F03F000
007E03F800
007E03F800
00FE01F800
00FC01FC00
00FC01FC00
01FC00FC00
01F800FE00
01F800FE00
03F8007E00
03FFFFFF00
03FFFFFF00
07FFFFFF00
07FFFFFF80
07FFFFFF80
0FFFFFFF80
0FE0001FC0
0FC0001FC0
1FC0001FE0
1FC0000FE0
1F80000FE0
3F80000FF0
3F800007F0
7F000007F0
7F000007F8
7F000003F8
FE000003F8
00000000F8
00000001E0
00000003C0
0000000F80
0000001F00
0000001E00
0000003E00
0000003E08
0000003F18
0000003FFC
0000001FFE
0000000FFC
00000003F0
ENDCHAR
STARTCHAR 0105
ENCODING 261
SWIDTH 550 0
DWIDTH 33 0
BBX 31 45 2 -13
BITMAP
007FC000
03FFF800
07FFFC00
0FFFFE00
1FFFFF00
3FFFFF80
3FC0FF80
1F003FC0
0E001FC0
04001FC0
00001FC0
00001FC0
00001FC0
00001FC0
007FFFC0
07FFFFC0
0FFFFFC0
3FFFFFC0
3FC01FC0
7F001FC0
7E001FC0
7E001FC0
FE001FC0
FE001FC0
FE001FC0
7F003FC0
7F80EFF8
7FFFEFF8
3FFFEFF8
3FFFC7F8
1FFF83F8
0FFF01F8
01FC00F8
000001E0
000007C0
00000F80
00001F00
00001E00
00003E00
00003E10
00003E38
00003FFC
00001FFE
00000FFC
000007F0
ENDCHAR
STARTCHAR 0106
ENCODING 262
SWIDTH 633 0
DWIDTH 38 0
BBX 33 59 3 -1
BITMAP
0000100000
00001C0000
00001F0000
00003F8000
00003F0000
00007F0000
00007E0000
0000FC0000
0000FC0000
0001F80000
0001F00000
0003E00000
0000600000
0000000000
0000000000
0007FE0000
003FFF8000
007FFFE000
01FFFFF800
03FFFFFC00
07FFFFFC00
0FFC07FE00
0FF001FF00
1FE0007F00
1FC0007F80
3F80003E00
3F80001800
3F00002000
7F00000000
7F00000000
7F00000000
7F00000000
7F00000000
FF00000000
FF00000000
FF00000000
FF00000000
FF00000000
FF00000000
FF00000000
FF00000000
7F00000000
7F00000000
7F00000000
7F00000000
7F00000000
7F00001000
3F80001C00
3F80003F00
1FC0003F80
1FE0007F00
0FF001FF00
0FFC07FE00
07FFFFFC00
03FFFFF800
01FFFFF000
00FFFFE000
003FFF8000
0007FC0000
ENDCHAR
STARTCHAR 0107
ENCODING 263
SWIDTH 516 0
DWIDTH 31 0
BBX 26 49 3 -1
BITMAP
00010000
0001C000
0001F000
0003F800
0007F000
0007F000
000FE000
000FC000
001F8000
001F8000
003F0000
001E0000
00060000
00000000
00000000
00000000
003FC000
01FFF000
07FFFC00
0FFFFE00
1FFFFF00
1FFFFF00
3FE07F80
7F803F80
7F001FC0
7E000E00
FE000800
FE000000
FE000000
FC000000
FC000000
FC000000
FC000000
FC000000
FC000000
FC000000
FE000000
FE000000
FE000400
7E000F00
7F001FC0
7F803FC0
3FE07F80
3FFFFF00
1FFFFF00
0FFFFE00
07FFFC00
01FFF000
003FC000
ENDCHAR
STARTCHAR 0108
ENCODING 264
SWIDTH 633 0
DWIDTH 38 0
BBX 33 58 3 -1
BITMAP
0003F80000
0007FC0000
000FFE0000
000FFF0000
001FFF0000
003FBF8000
007F1FC000
007E0FE000
00FC07F000
01F803F000
007001E000
002000C000
0000000000
0000000000
0007FE0000
003FFF8000
007FFFE000
01FFFFF800
03FFFFFC00
07FFFFFC00
0FFC07FE00
0FF001FF00
1FE0007F00
1FC0007F80
3F80003E00
3F80001800
3F00002000
7F00000000
7F00000000
7F00000000
7F00000000
7F00000000
FF00000000
FF00000000
FF00000000
FF00000000
FF00000000
FF00000000
FF00000000
FF00000000
7F00000000
7F00000000
7F00000000
7F00000000
7F00000000
7F00001000
3F80001C00
3F80003F00
1FC0003F80
1FE0007F00
0FF001FF00
0FFC07FE00
07FFFFFC00
03FFFFF800
01FFFFF000
00FFFFE000
003FFF8000
0007FC0000
ENDCHAR
STARTCHAR 0109
ENCODING 265
SWIDTH 516 0
DWIDTH 31 0
BBX 26 48 3 -1
BITMAP
003F8000
007FC000
00FFE000
00FFF000
01FFF000
03FBF800
07F1FC00
07E0FE00
0FC07E00
1F803F00
07001E00
02000800
00000000
00000000
00000000
003FC000
01FFF000
07FFFC00
0FFFFE00
1FFFFF00
1FFFFF00
3FE07F80
7F803F80
7F001FC0
7E000E00
FE000800
FE000000
FE000000
FC000000
FC000000
FC000000
FC000000
FC000000
FC000000
FC000000
FE000000
FE000000
FE000400
7E000F00
7F001FC0
7F803FC0
3FE07F80
3FFFFF00
1FFFFF00
0FFFFE00
07FFFC00
01FFF000
003FC000
ENDCHAR
STARTCHAR 010A
ENCODING 266
SWIDTH 633 0
DWIDTH 38 0
BBX 33 55 3 -1
BITMAP
0001F00000
0003F80000
0003FC0000
0007FC0000
0007FC0000
0003FC0000
0003F80000
0001F00000
0000000000
0000000000
0000000000
0007FE0000
003FFF8000
007FFFE000
01FFFFF800
03FFFFFC00
07FFFFFC00
0FFC07FE00
0FF001FF00
1FE0007F00
1FC0007F80
3F80003E00
3F80001800
3F00002000
7F00000000
7F00000000
7F00000000
7F00000000
7F00000000
FF00000000
FF00000000
FF00000000
FF00000000
FF00000000
FF00000000
FF00000000
FF00000000
7F00000000
7F00000000
7F00000000
7F00000000
7F00000000
7F00001000
3F80001C00
3F80003F00
1FC0003F80
1FE0007F00
0FF001FF00
0FFC07FE00
07FFFFFC00
03FFFFF800
01FFFFF000
00FFFFE000
003FFF8000
0007FC0000
ENDCHAR
STARTCHAR 010B
ENCODING 267
SWIDTH 516 0
DWIDTH 31 0
BBX 26 45 3 -1
BITMAP
001F0000
003F8000
003FC000
003FC000
003FC000
003FC000
003F8000
001F0000
00000000
00000000
00000000
00000000
003FC000
01FFF000
07FFFC00
0FFFFE00
1FFFFF00
1FFFFF00
3FE07F80
7F803F80
7F001FC0
7E000E00
FE000800
FE000000
FE000000
FC000000
FC000000
FC000000
FC000000
FC000000
FC000000
FC000000
FE000000
FE000000
FE000400
7E000F00
7F001FC0
7F803FC0
3FE07F80
3FFFFF00
1FFFFF00
0FFFFE00
07FFFC00
01FFF000
003FC000
ENDCHAR
STARTCHAR 010C
ENCODING 268
SWIDTH 633 0
DWIDTH 38 0
BBX 33 59 3 -1
BITMAP
0020008000
007001E000
01F803F000
00FC07F000
007E0FE000
007F1FC000
003FBF8000
001FFF0000
000FFF0000
000FFE0000
0007FC0000
0003F80000
0000000000
0000000000
0000000000
0007FE0000
003FFF8000
007FFFE000
01FFFFF800
03FFFFFC00
07FFFFFC00
0FFC07FE00
0FF001FF00
1FE0007F00
1FC0007F80
3F80003E00
3F80001800
3F00002000
7F00000000
7F00000000
7F00000000
7F00000000
7F00000000
FF00000000
FF00000000
FF00000000
FF00000000
FF00000000
FF00000000
FF00000000
FF00000000
7F00000000
7F00000000
7F00000000
7F00000000
7F00000000
7F00001000
3F80001C00
3F80003F00
1FC0003F80
1FE0007F00
0FF001FF00
0FFC07FE00
07FFFFFC00
03FFFFF800
01FFFFF000
00FFFFE000
003FFF8000
0007FC0000
ENDCHAR
STARTCHAR 010D
ENCODING 269
SWIDTH 516 0
DWIDTH 31 0
BBX 26 49 3 -1
BITMAP
02000800
07001E00
1F803F00
0FC07E00
07E0FE00
07F1FC00
03FBF800
01FFF000
00FFF000
00FFE000
007FC000
003F8000
00000000
00000000
00000000
00000000
003FC000
01FFF000
07FFFC00
0FFFFE00
1FFFFF00
1FFFFF00
3FE07F80
7F803F80
7F001FC0
7E000E00
FE000800
FE000000
FE000000
FC000000
FC000000
FC000000
FC000000
FC000000
FC000000
FC000000
FE000000
FE000000
FE000400
7E000F00
7F001FC0
7F803FC0
3FE07F80
3FFFFF00
1FFFFF00
0FFFFE00
07FFFC00
01FFF000
003FC000
ENDCHAR
STARTCHAR 010E
ENCODING 270
SWIDTH 683 0
DWIDTH 41 0
BBX 33 58 5 0
BITMAP
02000C0000
07001E0000
1F803F0000
0FC07F0000
07E0FE0000
03F1FC0000
03FBF80000
01FFF80000
00FFF00000
007FE00000
007FC00000
003FC00000
0000000000
0000000000
0000000000
0000000000
FFFFF00000
FFFFFE0000
FFFFFF8000
FFFFFFC000
FFFFFFE000
FFFFFFF000
FE003FF800
FE0007F800
FE0003FC00
FE0001FE00
FE0000FE00
FE0000FE00
FE00007F00
FE00007F00
FE00007F00
FE00007F00
FE00007F00
FE00007F00
FE00007F80
FE00007F80
FE00007F80
FE00007F80
FE00007F80
FE00007F80
FE00007F80
FE00007F00
FE00007F00
FE00007F00
FE00007F00
FE00007F00
FE0000FE00
FE0000FE00
FE0001FE00
FE0003FC00
FE0007FC00
FE003FF800
FFFFFFF000
FFFFFFE000
FFFFFFC000
FFFFFF8000
FFFFFE0000
FFFFF00000
ENDCHAR
STARTCHAR 010F
ENCODING 271
SWIDTH 633 0
DWIDTH 38 0
BBX 39 45 3 -1
BITMAP
000007F0FE
000007F0FE
000007F0FC
000007F0FC
000007F0FC
000007F0F8
000007F1F8
000007F1F8
000007F1F8
000007F1F0
000007F1F0
000007F1F0
007E07F000
03FF87F000
07FFE7F000
0FFFF7F000
1FFFF7F000
3FFFFFF000
3FE07FF000
7FC01FF000
7F000FF000
7F0007F000
FE0007F000
FE0007F000
FE0007F000
FE0007F000
FE0007F000
FE0007F000
FE0007F000
FE0007F000
FE0007F000
FE0007F000
FE0007F000
FE0007F000
FE0007F000
7F0007F000
7F000FF000
7F801FF000
3FE07FF000
3FFFFFF000
1FFFF7F000
0FFFF7F000
07FFE7F000
03FF87F000
007F000000
ENDCHAR
STARTCHAR 0110
ENCODING 272
SWIDTH 683 0
DWIDTH 41 0
BBX 37 42 1 0
BITMAP
0FFFFF0000
0FFFFFE000
0FFFFFF800
0FFFFFFC00
0FFFFFFE00
0FFFFFFF00
0FE001FF80
0FE0007FC0
0FE0003FC0
0FE0001FE0
0FE0000FE0
0FE0000FF0
0FE00007F0
0FE00007F0
0FE00007F0
0FE00003F8
0FE00003F8
FFFFE003F8
FFFFE003F8
FFFFE003F8
FFFFE003F8
FFFFE003F8
FFFFE003F8
0FE00003F8
0FE00003F8
0FE00003F8
0FE00003F8
0FE00007F0
0FE00007F0
0FE00007F0
0FE0000FF0
0FE0000FE0
0FE0001FE0
0FE0003FC0
0FE0007FC0
0FE001FF80
0FFFFFFF00
0FFFFFFE00
0FFFFFFC00
0FFFFFF800
0FFFFFE000
0FFFFF0000
ENDCHAR
STARTCHAR 0111
ENCODING 273
SWIDTH 600 0
DWIDTH 36 0
BBX 32 45 3 -1
BITMAP
000007F0
000007F0
000007F0
000007F0
0007FFFF
0007FFFF
0007FFFF
0007FFFF
000007F0
000007F0
000007F0
000007F0
007E07F0
03FF87F0
07FFE7F0
0FFFF7F0
1FFFF7F0
3FFFFFF0
3FE07FF0
7FC01FF0
7F000FF0
7F0007F0
FE0007F0
FE0007F0
FE0007F0
FE0007F0
FE0007F0
FE0007F0
FE0007F0
FE0007F0
FE0007F0
FE0007F0
FE0007F0
FE0007F0
FE0007F0
7F0007F0
7F000FF0
7F801FF0
3FE07FF0
3FFFFFF0
1FFFF7F0
0FFFF7F0
07FFE7F0
03FF87F0
007F0000
ENDCHAR
STARTCHAR 0112
ENCODING 274
SWIDTH 600 0
DWIDTH 36 0
BBX 27 53 5 0
BITMAP
07FFFC00
07FFFC00
07FFFC00
07FFFC00
07FFFC00
00000000
00000000
00000000
00000000
00000000
00000000
FFFFFFE0
FFFFFFE0
FFFFFFE0
FFFFFFE0
FFFFFFE0
FFFFFFE0
FE000000
FE000000
FE000000
FE000000
FE000000
FE000000
FE000000
FE000000
FE000000
FE000000
FE000000
FE000000
FFFFFF80
FFFFFF80
FFFFFF80
FFFFFF80
FFFFFF80
FFFFFF80
FE000000
FE000000
FE000000
FE000000
FE000000
FE000000
FE000000
FE000000
FE000000
FE000000
FE000000
FE000000
FFFFFFE0
FFFFFFE0
FFFFFFE0
FFFFFFE0
FFFFFFE0
FFFFFFE0
ENDCHAR
STARTCHAR 0113
ENCODING 275
SWIDTH 550 0
DWIDTH 33 0
BBX 28 44 3 -1
BITMAP
07FFFE00
07FFFE00
07FFFE00
07FFFE00
07FFFE00
00000000
00000000
00000000
00000000
00000000
00000000
003FC000
01FFF800
03FFFC00
0FFFFE00
1FFFFF00
1FFFFF80
3FE07FC0
7F803FC0
7F001FE0
7E000FE0
FE000FE0
FE0007E0
FC0007F0
FC0007F0
FFFFFFF0
FFFFFFF0
FFFFFFF0
FFFFFFF0
FC000000
FC000000
FC000000
FE000000
FE000200
7F000300
7F000780
7F800FC0
3FE03FE0
1FFFFFC0
1FFFFF80
0FFFFF00
03FFFE00
01FFF800
003FC000
ENDCHAR
STARTCHAR 0114
ENCODING 276
SWIDTH 600 0
DWIDTH 36 0
BBX 27 56 5 0
BITMAP
02000800
0F001E00
1F001F00
0F803E00
0FC07E00
07E0FC00
07FFFC00
03FFF800
01FFF000
00FFE000
003F8000
00000000
00000000
00000000
FFFFFFE0
FFFFFFE0
FFFFFFE0
FFFFFFE0
FFFFFFE0
FFFFFFE0
FE000000
FE000000
FE000000
FE000000
FE000000
FE000000
FE000000
FE000000
FE000000
FE000000
FE000000
FE000000
FFFFFF80
FFFFFF80
FFFFFF80
FFFFFF80
FFFFFF80
FFFFFF80
FE000000
FE000000
FE000000
FE000000
FE000000
FE000000
FE000000
FE000000
FE000000
FE000000
FE000000
FE000000
FFFFFFE0
FFFFFFE0
FFFFFFE0
FFFFFFE0
FFFFFFE0
FFFFFFE0
ENDCHAR
STARTCHAR 0115
ENCODING 277
SWIDTH 550 0
DWIDTH 33 0
BBX 28 47 3 -1
BITMAP
01000800
07000E00
0F801F00
0FC03E00
07C07E00
07F0FE00
03FFFC00
01FFF800
01FFF000
007FE000
001F8000
00000000
00000000
00000000
003FC000
01FFF800
03FFFC00
0FFFFE00
1FFFFF00
1FFFFF80
3FE07FC0
7F803FC0
7F001FE0
7E000FE0
FE000FE0
FE0007E0
FC0007F0
FC0007F0
FFFFFFF0
FFFFFFF0
FFFFFFF0
FFFFFFF0
FC000000
FC000000
FC000000
FE000000
FE000200
7F000300
7F000780
7F800FC0
3FE03FE0
1FFFFFC0
1FFFFF80
0FFFFF00
03FFFE00
01FFF800
003FC000
ENDCHAR
STARTCHAR 0116
ENCODING 278
SWIDTH 600 0
DWIDTH 36 0
BBX 27 54 5 0
BITMAP
001F0000
003F8000
007FC000
007FC000
007FC000
007FC000
003F8000
001F0000
00000000
00000000
00000000
00000000
FFFFFFE0
FFFFFFE0
FFFFFFE0
FFFFFFE0
FFFFFFE0
FFFFFFE0
FE000000
FE000000
FE000000
FE000000
FE000000
FE000000
FE000000
FE000000
FE000000
FE000000
FE000000
FE000000
FFFFFF80
FFFFFF80
FFFFFF80
FFFFFF80
FFFFFF80
FFFFFF80
FE000000
FE000000
FE000000
FE000000
FE000000
FE000000
FE000000
FE000000
FE000000
FE000000
FE000000
FE000000
FFFFFFE0
FFFFFFE0
FFFFFFE0
FFFFFFE0
FFFFFFE0
FFFFFFE0
ENDCHAR
STARTCHAR 0117
ENCODING 279
SWIDTH 550 0
DWIDTH 33 0
BBX 28 45 3 -1
BITMAP
000F8000
001FC000
003FC000
003FC000
003FC000
003FC000
001FC000
000F0000
00000000
00000000
00000000
00000000
003FC000
01FFF800
03FFFC00
0FFFFE00
1FFFFF00
1FFFFF80
3FE07FC0
7F803FC0
7F001FE0
7E000FE0
FE000FE0
FE0007E0
FC0007F0
FC0007F0
FFFFFFF0
FFFFFFF0
FFFFFFF0
FFFFFFF0
FC000000
FC000000
FC000000
FE000000
FE000200
7F000300
7F000780
7F800FC0
3FE03FE0
1FFFFFC0
1FFFFF80
0FFFFF00
03FFFE00
01FFF800
003FC000
ENDCHAR
STARTCHAR 0118
ENCODING 280
SWIDTH 600 0
DWIDTH 36 0
BBX 29 55 5 -13
BITMAP
FFFFFFE0
FFFFFFE0
FFFFFFE0
FFFFFFE0
FFFFFFE0
FFFFFFE0
FE000000
FE000000
FE000000
FE000000
FE000000
FE000000
FE000000
FE000000
FE000000
FE000000
FE000000
FE000000
FFFFFF80
FFFFFF80
FFFFFF80
FFFFFF80
FFFFFF80
FFFFFF80
FE000000
FE000000
FE000000
FE000000
FE000000
FE000000
FE000000
FE000000
FE000000
FE000000
FE000000
FE000000
FFFFFFE0
FFFFFFE0
FFFFFFE0
FFFFFFE0
FFFFFFE0
FFFFFFE0
000003C0
00000780
00001F00
00003E00
00007C00
0000F800
0000F800
0000F840
0000F8E0
0000FFF0
00007FF8
00007FE0
00001FC0
ENDCHAR
STARTCHAR 0119
ENCODING 281
SWIDTH 550 0
DWIDTH 33 0
BBX 28 45 3 -13
BITMAP
003FC000
01FFF800
03FFFC00
0FFFFE00
1FFFFF00
1FFFFF80
3FE07FC0
7F803FC0
7F001FC0
7E000FE0
FE000FE0
FE0007E0
FC0007F0
FC0007F0
FFFFFFF0
FFFFFFF0
FFFFFFF0
FFFFFFF0
FC000000
FC000000
FC000000
FE000000
FE000200
7F000300
7F000780
7F800FC0
3FE03FE0
1FFFFFC0
1FFFFF80
0FFFFF00
07FFFE00
01FFFC00
003FB800
0000F000
0001E000
0003C000
00078000
000F8000
000F0000
001F0400
001F8E00
000FFF00
000FFF00
0007FE00
0001F800
ENDCHAR
STARTCHAR 011A
ENCODING 282
SWIDTH 600 0
DWIDTH 36 0
BBX 27 58 5 0
BITMAP
02000800
0F001E00
1F803F00
0FC07E00
0FE0FE00
07F1FC00
03FBF800
01FFF000
00FFF000
00FFE000
007FC000
003F8000
00000000
00000000
00000000
00000000
FFFFFFE0
FFFFFFE0
FFFFFFE0
FFFFFFE0
FFFFFFE0
FFFFFFE0
FE000000
FE000000
FE000000
FE000000
FE000000
FE000000
FE000000
FE000000
FE000000
FE000000
FE000000
FE000000
FFFFFF80
FFFFFF80
FFFFFF80
FFFFFF80
FFFFFF80
FFFFFF80
FE000000
FE000000
FE000000
FE000000
FE000000
FE000000
FE000000
FE000000
FE000000
FE000000
FE000000
FE000000
FFFFFFE0
FFFFFFE0
FFFFFFE0
FFFFFFE0
FFFFFFE0
FFFFFFE0
ENDCHAR
STARTCHAR 011B
ENCODING 283
SWIDTH 550 0
DWIDTH 33 0
BBX 28 49 3 -1
BITMAP
02000400
07000E00
0F801F00
0FC03F80
07F07E00
03F8FC00
01FDFC00
01FFF800
00FFF000
007FE000
003FE000
003FC000
00000000
00000000
00000000
00000000
003FC000
01FFF800
03FFFC00
0FFFFE00
1FFFFF00
1FFFFF80
3FE07FC0
7F803FC0
7F001FE0
7E000FE0
FE000FE0
FE0007E0
FC0007F0
FC0007F0
FFFFFFF0
FFFFFFF0
FFFFFFF0
FFFFFFF0
FC000000
FC000000
FC000000
FE000000
FE000200
7F000300
7F000780
7F800FC0
3FE03FE0
1FFFFFC0
1FFFFF80
0FFFFF00
03FFFE00
01FFF800
003FC000
ENDCHAR
STARTCHAR 011C
ENCODING 284
SWIDTH 700 0
DWIDTH 42 0
BBX 35 58 3 -1
BITMAP
0001FC0000
0003FE0000
0007FF0000
000FFF0000
000FFF8000
001FDFC000
003F8FE000
007F07E000
007E03F000
00FC01F800
007800F000
0010004000
0000000000
0000000000
0003FE0000
001FFFC000
007FFFF000
00FFFFFC00
03FFFFFE00
07FFFFFF00
07FE03FF80
0FF800FF80
1FE0003FC0
1FC0001FC0
3FC0000F00
3F80000C00
3F80000800
7F00000000
7F00000000
7F00000000
7F00000000
7F00000000
FF00000000
FF00000000
FF000FFFE0
FF000FFFE0
FF000FFFE0
FF000FFFE0
FF000FFFE0
FF000FFFE0
7F00000FE0
7F00000FE0
7F00000FE0
7F00000FE0
7F00000FE0
3F80000FE0
3F80000FE0
3FC0000FE0
1FC0001FE0
1FE0003FE0
0FF8007FE0
0FFE03FFE0
07FFFFF7E0
03FFFFF7E0
01FFFFE7E0
007FFFC7E0
003FFF07E0
0007FC0000
ENDCHAR
STARTCHAR 011D
ENCODING 285
SWIDTH 550 0
DWIDTH 33 0
BBX 30 60 2 -13
BITMAP
001FC000
003FE000
007FE000
00FFF000
01FFF800
01FDFC00
03F8FE00
07F07E00
0FE03F00
0FC01F80
07800E00
03000400
00000000
00000000
00000000
003FC000
01FFFFF8
07FFFFF8
0FFFFFF8
1FFFFFF8
1FE07FF8
3F801F80
3F800FC0
3F000FC0
3F000FE0
3F000FE0
3F000FE0
3F000FE0
3F800FC0
3F801FC0
1FE07FC0
1FFFFF80
0FFFFF00
07FFFE00
01FFFC00
03FFE000
0F000000
1E000000
3E000000
3E000000
3F000000
3FFFFF00
3FFFFFC0
1FFFFFF0
0FFFFFF0
07FFFFF8
0FFFFFF8
3E0003FC
7C0001FC
7C0000FC
FC0000FC
FC0000FC
FC0001FC
FE0001F8
FF0007F8
7FFFFFF0
7FFFFFE0
1FFFFFC0
0FFFFF00
00FFF000
ENDCHAR
STARTCHAR 011E
ENCODING 286
SWIDTH 700 0
DWIDTH 42 0
BBX 35 57 3 -1
BITMAP
0010004000
007800F000
00F801F000
007C01F000
007E03E000
003F07E000
003FFFC000
001FFFC000
000FFF8000
0007FF0000
0001FC0000
0000000000
0000000000
0003FE0000
001FFFC000
007FFFF000
00FFFFFC00
03FFFFFE00
07FFFFFF00
07FE03FF80
0FF800FF80
1FE0003FC0
1FC0001FC0
3FC0000F00
3F80000C00
3F80000800
7F00000000
7F00000000
7F00000000
7F00000000
7F00000000
FF00000000
FF00000000
FF000FFFE0
FF000FFFE0
FF000FFFE0
FF000FFFE0
FF000FFFE0
FF000FFFE0
7F00000FE0
7F00000FE0
7F00000FE0
7F00000FE0
7F00000FE0
3F80000FE0
3F80000FE0
3FC0000FE0
1FC0001FE0
1FE0003FE0
0FF8007FE0
0FFE03FFE0
07FFFFF7E0
03FFFFF7E0
01FFFFE7E0
007FFFC7E0
003FFF07E0
0007FC0000
ENDCHAR
STARTCHAR 011F
ENCODING 287
SWIDTH 550 0
DWIDTH 33 0
BBX 30 59 2 -13
BITMAP
01000C00
07800F00
0F801F00
07C03F00
07E03E00
07F0FE00
03FFFC00
01FFFC00
00FFF800
007FE000
001FC000
00000000
00000000
00000000
003FC000
01FFFFF8
07FFFFF8
0FFFFFF8
1FFFFFF8
1FE07FF8
3F801F80
3F800FC0
3F000FC0
3F000FE0
3F000FE0
3F000FE0
3F000FE0
3F800FC0
3F801FC0
1FE07FC0
1FFFFF80
0FFFFF00
07FFFE00
01FFFC00
03FFE000
0F000000
1E000000
3E000000
3E000000
3F000000
3FFFFF00
3FFFFFC0
1FFFFFF0
0FFFFFF0
07FFFFF8
0FFFFFF8
3E0003FC
7C0001FC
7C0000FC
FC0000FC
FC0000FC
FC0001FC
FE0001F8
FF0007F8
7FFFFFF0
7FFFFFE0
1FFFFFC0
0FFFFF00
00FFF000
ENDCHAR
STARTCHAR 0120
ENCODING 288
SWIDTH 700 0
DWIDTH 42 0
BBX 35 55 3 -1
BITMAP
0000F80000
0001FC0000
0003FE0000
0003FE0000
0003FE0000
0003FE0000
0001FC0000
0000F80000
0000000000
0000000000
0000000000
0003FE0000
001FFFC000
007FFFF000
00FFFFFC00
03FFFFFE00
07FFFFFF00
07FE03FF80
0FF800FF80
1FE0003FC0
1FC0001FC0
3FC0000F00
3F80000C00
3F80000800
7F00000000
7F00000000
7F00000000
7F00000000
7F00000000
FF00000000
FF00000000
FF000FFFE0
FF000FFFE0
FF000FFFE0
FF000FFFE0
FF000FFFE0
FF000FFFE0
7F00000FE0
7F00000FE0
7F00000FE0
7F00000FE0
7F00000FE0
3F80000FE0
3F80000FE0
3FC0000FE0
1FC0001FE0
1FE0003FE0
0FF8007FE0
0FFE03FFE0
07FFFFF7E0
03FFFFF7E0
01FFFFE7E0
007FFFC7E0
003FFF07E0
0007FC0000
ENDCHAR
STARTCHAR 0121
ENCODING 289
SWIDTH 550 0
DWIDTH 33 0
BBX 30 57 2 -13
BITMAP
000F8000
001FC000
003FC000
003FC000
003FC000
003FC000
001FC000
000F8000
00000000
00000000
00000000
00000000
003FC000
01FFFFF8
07FFFFF8
0FFFFFF8
1FFFFFF8
1FE07FF8
3F801F80
3F800FC0
3F000FC0
3F000FE0
3F000FE0
3F000FE0
3F000FE0
3F800FC0
3F801FC0
1FE07FC0
1FFFFF80
0FFFFF00
07FFFE00
01FFFC00
03FFE000
0F000000
1E000000
3E000000
3E000000
3F000000
3FFFFF00
3FFFFFC0
1FFFFFF0
0FFFFFF0
07FFFFF8
0FFFFFF8
3E0003FC
7C0001FC
7C0000FC
FC0000FC
FC0000FC
FC0001FC
FE0001F8
FF0007F8
7FFFFFF0
7FFFFFE0
1FFFFFC0
0FFFFF00
00FFF000
ENDCHAR
STARTCHAR 0122
ENCODING 290
SWIDTH 700 0
DWIDTH 42 0
BBX 35 58 3 -15
BITMAP
0003FE0000
001FFFC000
007FFFF000
00FFFFFC00
03FFFFFE00
07FFFFFF00
07FE03FF80
0FF800FF80
1FE0003FC0
1FC0001FC0
3FC0000F00
3F80000C00
3F80000800
7F00000000
7F00000000
7F00000000
7F00000000
7F00000000
FF00000000
FF00000000
FF000FFFE0
FF000FFFE0
FF000FFFE0
FF000FFFE0
FF000FFFE0
FF000FFFE0
7F00000FE0
7F00000FE0
7F00000FE0
7F00000FE0
7F00000FE0
3F80000FE0
3F80000FE0
3FC0000FE0
1FC0001FE0
1FE0003FE0
0FF8007FE0
0FFE03FFE0
07FFFFF7E0
03FFFFF7E0
01FFFFE7E0
007FFFC7E0
003FFF07E0
0007FC0000
0000000000
0000000000
0000F00000
0001F80000
0003F80000
0003F80000
0003F80000
0001F80000
0001F80000
0000780000
0000F00000
0000F00000
0001E00000
0007C00000
ENDCHAR
STARTCHAR 0123
ENCODING 291
SWIDTH 550 0
DWIDTH 33 0
BBX 30 61 2 -13
BITMAP
0003E000
00078000
000F0000
000F0000
001E0000
001F8000
001F8000
001FC000
001FC000
001FC000
001F8000
000F0000
00000000
00000000
00000000
00000000
003FC000
01FFFFF8
07FFFFF8
0FFFFFF8
1FFFFFF8
1FE07FF8
3F801F80
3F800FC0
3F000FC0
3F000FE0
3F000FE0
3F000FE0
3F000FE0
3F800FC0
3F801FC0
1FE07FC0
1FFFFF80
0FFFFF00
07FFFE00
01FFFC00
03FFE000
0F000000
1E000000
3E000000
3E000000
3F000000
3FFFFF00
3FFFFFC0
1FFFFFF0
0FFFFFF0
07FFFFF8
0FFFFFF8
3E0003FC
7C0001FC
7C0000FC
FC0000FC
FC0000FC
FC0001FC
FE0001F8
FF0007F8
7FFFFFF0
7FFFFFE0
1FFFFFC0
0FFFFF00
00FFF000
ENDCHAR
STARTCHAR 0124
ENCODING 292
SWIDTH 716 0
DWIDTH 43 0
BBX 33 57 5 0
BITMAP
0007F00000
000FF80000
001FFC0000
003FFC0000
003FFE0000
007F7F0000
00FE3F8000
01FC1F8000
01F80FC000
03F007E000
01E003C000
0040010000
0000000000
0000000000
0000000000
FE00003F80
FE00003F80
FE00003F80
FE00003F80
FE00003F80
FE00003F80
FE00003F80
FE00003F80
FE00003F80
FE00003F80
FE00003F80
FE00003F80
FE00003F80
FE00003F80
FE00003F80
FE00003F80
FE00003F80
FE00003F80
FFFFFFFF80
FFFFFFFF80
FFFFFFFF80
FFFFFFFF80
FFFFFFFF80
FFFFFFFF80
FE00003F80
FE00003F80
FE00003F80
FE00003F80
FE00003F80
FE00003F80
FE00003F80
FE00003F80
FE00003F80
FE00003F80
FE00003F80
FE00003F80
FE00003F80
FE00003F80
FE00003F80
FE00003F80
FE00003F80
FE00003F80
ENDCHAR
STARTCHAR 0125
ENCODING 293
SWIDTH 583 0
DWIDTH 35 0
BBX 32 56 -2 0
BITMAP
03FC0000
03FE0000
07FE0000
0FFF0000
1FFF8000
1FDFC000
3F8FC000
7F07E000
FE03F000
FC01F800
7000E000
20004000
01F80000
01F80000
01F80000
01F80000
01F80000
01F80000
01F80000
01F80000
01F80000
01F80000
01F80000
01F80000
01F81FC0
01F87FF0
01F8FFF8
01F9FFFC
01FBFFFE
01FBFFFE
01FF81FF
01FE00FF
01FC007F
01FC007F
01F8003F
01F8003F
01F8003F
01F8003F
01F8003F
01F8003F
01F8003F
01F8003F
01F8003F
01F8003F
01F8003F
01F8003F
01F8003F
01F8003F
01F8003F
01F8003F
01F8003F
01F8003F
01F8003F
01F8003F
01F8003F
01F8003F
ENDCHAR
STARTCHAR 0126
ENCODING 294
SWIDTH 716 0
DWIDTH 43 0
BBX 41 42 1 0
BITMAP
0FE00003F800
0FE00003F800
0FE00003F800
0FE00003F800
0FE00003F800
0FE00003F800
FFFFFFFFFF80
FFFFFFFFFF80
FFFFFFFFFF80
FFFFFFFFFF80
FFFFFFFFFF80
0FE00003F800
0FE00003F800
0FE00003F800
0FE00003F800
0FE00003F800
0FE00003F800
0FE00003F800
0FFFFFFFF800
0FFFFFFFF800
0FFFFFFFF800
0FFFFFFFF800
0FFFFFFFF800
0FFFFFFFF800
0FE00003F800
0FE00003F800
0FE00003F800
0FE00003F800
0FE00003F800
0FE00003F800
0FE00003F800
0FE00003F800
0FE00003F800
0FE00003F800
0FE00003F800
0FE00003F800
0FE00003F800
0FE00003F800
0FE00003F800
0FE00003F800
0FE00003F800
0FE00003F800
ENDCHAR
STARTCHAR 0127
ENCODING 295
SWIDTH 583 0
DWIDTH 35 0
BBX 29 44 1 0
BITMAP
0FC00000
0FC00000
0FC00000
0FC00000
FFFFE000
FFFFE000
FFFFE000
FFFFE000
0FC00000
0FC00000
0FC00000
0FC00000
0FC0FE00
0FC3FF80
0FC7FFC0
0FCFFFE0
0FDFFFF0
0FDFFFF0
0FFC0FF8
0FF007F8
0FE003F8
0FE003F8
0FC001F8
0FC001F8
0FC001F8
0FC001F8
0FC001F8
0FC001F8
0FC001F8
0FC001F8
0FC001F8
0FC001F8
0FC001F8
0FC001F8
0FC001F8
0FC001F8
0FC001F8
0FC001F8
0FC001F8
0FC001F8
0FC001F8
0FC001F8
0FC001F8
0FC001F8
ENDCHAR
STARTCHAR 0128
ENCODING 296
SWIDTH 416 0
DWIDTH 25 0
BBX 21 54 2 0
BITMAP
1F8000
3FE020
7FF870
FFFFF8
FFFFF8
70FFF0
203FE0
000FC0
000000
000000
000000
000000
7FFFF0
7FFFF0
7FFFF0
7FFFF0
7FFFF0
7FFFF0
01FC00
01FC00
01FC00
01FC00
01FC00
01FC00
01FC00
01FC00
01FC00
01FC00
01FC00
01FC00
01FC00
01FC00
01FC00
01FC00
01FC00
01FC00
01FC00
01FC00
01FC00
01FC00
01FC00
01FC00
01FC00
01FC00
01FC00
01FC00
01FC00
01FC00
7FFFF0
7FFFF0
7FFFF0
7FFFF0
7FFFF0
7FFFF0
ENDCHAR
STARTCHAR 0129
ENCODING 297
SWIDTH 266 0
DWIDTH 16 0
BBX 22 44 -3 0
BITMAP
0F8000
3FE010
7FF870
7FFFF8
FFFFFC
387FF8
201FF0
0007C0
000000
000000
000000
000000
000000
00FC00
00FC00
00FC00
00FC00
00FC00
00FC00
00FC00
00FC00
00FC00
00FC00
00FC00
00FC00
00FC00
00FC00
00FC00
00FC00
00FC00
00FC00
00FC00
00FC00
00FC00
00FC00
00FC00
00FC00
00FC00
00FC00
00FC00
00FC00
00FC00
00FC00
00FC00
ENDCHAR
STARTCHAR 012A
ENCODING 298
SWIDTH 416 0
DWIDTH 25 0
BBX 19 53 3 0
BITMAP
7FFFC0
7FFFC0
7FFFC0
7FFFC0
7FFFC0
000000
000000
000000
000000
000000
000000
FFFFE0
FFFFE0
FFFFE0
FFFFE0
FFFFE0
FFFFE0
03F800
03F800
03F800
03F800
03F800
03F800
03F800
03F800
03F800
03F800
03F800
03F800
03F800
03F800
03F800
03F800
03F800
03F800
03F800
03F800
03F800
03F800
03F800
03F800
03F800
03F800
03F800
03F800
03F800
03F800
FFFFE0
FFFFE0
FFFFE0
FFFFE0
FFFFE0
FFFFE0
ENDCHAR
STARTCHAR 012B
ENCODING 299
SWIDTH 266 0
DWIDTH 16 0
BBX 18 43 -1 0
BITMAP
FFFFC0
FFFFC0
FFFFC0
FFFFC0
FFFFC0
000000
000000
000000
000000
000000
000000
000000
03F000
03F000
03F000
03F000
03F000
03F000
03F000
03F000
03F000
03F000
03F000
03F000
03F000
03F000
03F000
03F000
03F000
03F000
03F000
03F000
03F000
03F000
03F000
03F000
03F000
03F000
03F000
03F000
03F000
03F000
03F000
ENDCHAR
STARTCHAR 012C
ENCODING 300
SWIDTH 416 0
DWIDTH 25 0
BBX 21 56 2 0
BITMAP
100040
7800F0
F801F8
7C01F0
7E03F0
3F07E0
3FFFE0
1FFFC0
0FFF80
07FF00
01FC00
000000
000000
000000
7FFFF0
7FFFF0
7FFFF0
7FFFF0
7FFFF0
7FFFF0
01FC00
01FC00
01FC00
01FC00
01FC00
01FC00
01FC00
01FC00
01FC00
01FC00
01FC00
01FC00
01FC00
01FC00
01FC00
01FC00
01FC00
01FC00
01FC00
01FC00
01FC00
01FC00
01FC00
01FC00
01FC00
01FC00
01FC00
01FC00
01FC00
01FC00
7FFFF0
7FFFF0
7FFFF0
7FFFF0
7FFFF0
7FFFF0
ENDCHAR
STARTCHAR 012D
ENCODING 301
SWIDTH 266 0
DWIDTH 16 0
BBX 20 46 -2 0
BITMAP
100080
7000E0
F801F0
FC03E0
7C07E0
7F0FE0
3FFFC0
1FFF80
1FFF00
07FE00
01F800
000000
000000
000000
000000
01F800
01F800
01F800
01F800
01F800
01F800
01F800
01F800
01F800
01F800
01F800
01F800
01F800
01F800
01F800
01F800
01F800
01F800
01F800
01F800
01F800
01F800
01F800
01F800
01F800
01F800
01F800
01F800
01F800
01F800
01F800
ENDCHAR
STARTCHAR 012E
ENCODING 302
SWIDTH 416 0
DWIDTH 25 0
BBX 20 55 3 -13
BITMAP
FFFFE0
FFFFE0
FFFFE0
FFFFE0
FFFFE0
FFFFE0
03F800
03F800
03F800
03F800
03F800
03F800
03F800
03F800
03F800
03F800
03F800
03F800
03F800
03F800
03F800
03F800
03F800
03F800
03F800
03F800
03F800
03F800
03F800
03F800
03F800
03F800
03F800
03F800
03F800
03F800
FFFFE0
FFFFE0
FFFFE0
FFFFE0
FFFFE0
FFFFE0
0003C0
000F80
001F00
003E00
007C00
00F800
00F000
00F040
00F8E0
00FFF0
00FFF0
007FE0
001F80
ENDCHAR
STARTCHAR 012F
ENCODING 303
SWIDTH 266 0
DWIDTH 16 0
BBX 13 58 0 -13
BITMAP
03C0
07E0
0FF0
0FF0
0FF0
0FF0
07E0
03C0
0000
0000
0000
0000
0000
0000
07E0
07E0
07E0
07E0
07E0
07E0
07E0
07E0
07E0
07E0
07E0
07E0
07E0
07E0
07E0
07E0
07E0
07E0
07E0
07E0
07E0
07E0
07E0
07E0
07E0
07E0
07E0
07E0
07E0
07E0
07E0
03E0
0780
1F00
3E00
7C00
7800
F800
F840
F860
FFF0
7FF8
3FF0
1FC0
ENDCHAR
STARTCHAR 0130
ENCODING 304
SWIDTH 416 0
DWIDTH 25 0
BBX 19 54 3 0
BITMAP
01F000
03F800
07FC00
07FC00
07FC00
07FC00
03F800
01F000
000000
000000
000000
000000
FFFFE0
FFFFE0
FFFFE0
FFFFE0
FFFFE0
FFFFE0
03F800
03F800
03F800
03F800
03F800
03F800
03F800
03F800
03F800
03F800
03F800
03F800
03F800
03F800
03F800
03F800
03F800
03F800
03F800
03F800
03F800
03F800
03F800
03F800
03F800
03F800
03F800
03F800
03F800
03F800
FFFFE0
FFFFE0
FFFFE0
FFFFE0
FFFFE0
FFFFE0
ENDCHAR
STARTCHAR 0131
ENCODING 305
SWIDTH 266 0
DWIDTH 16 0
BBX 6 31 5 0
BITMAP
FC
FC
FC
FC
FC
FC
FC
FC
FC
FC
FC
FC
FC
FC
FC
FC
FC
FC
FC
FC
FC
FC
FC
FC
FC
FC
FC
FC
FC
FC
FC
ENDCHAR
STARTCHAR 0132
ENCODING 306
SWIDTH 650 0
DWIDTH 39 0
BBX 29 43 5 -1
BITMAP
FE01FFF8
FE01FFF8
FE01FFF8
FE01FFF8
FE01FFF8
FE01FFF8
FE0003F8
FE0003F8
FE0003F8
FE0003F8
FE0003F8
FE0003F8
FE0003F8
FE0003F8
FE0003F8
FE0003F8
FE0003F8
FE0003F8
FE0003F8
FE0003F8
FE0003F8
FE0003F8
FE0003F8
FE0003F8
000003F8
000003F8
000003F8
000003F8
000003F8
000003F8
000003F8
0E0003F8
FE0003F8
7F0007F8
7F0007F0
7F800FF0
3FE03FE0
3FFFFFE0
1FFFFFC0
0FFFFF80
07FFFF00
01FFFC00
003FE000
ENDCHAR
STARTCHAR 0133
ENCODING 307
SWIDTH 533 0
DWIDTH 32 0
BBX 23 57 4 -12
BITMAP
3C007C
7E00FE
FF00FE
FF00FE
FF00FE
FF00FE
7E00FE
3C007C
000000
000000
000000
000000
000000
000000
7E00FE
7E00FE
7E00FE
7E00FE
7E00FE
7E00FE
7E00FE
7E00FE
7E00FE
7E00FE
7E00FE
7E00FE
7E00FE
7E00FE
7E00FE
7E00FE
7E00FE
7E00FE
7E00FE
7E00FE
7E00FE
7E00FE
7E00FE
7E00FE
7E00FE
7E00FE
7E00FE
7E00FE
7E00FE
7E00FE
7E00FE
0000FE
0000FE
0000FE
0000FE
0000FE
0000FE
001FFE
001FFC
001FFC
001FF8
001FF0
001FE0
ENDCHAR
STARTCHAR 0134
ENCODING 308
SWIDTH 533 0
DWIDTH 32 0
BBX 25 58 2 -1
BITMAP
001FE000
003FE000
003FF000
007FF800
00FFFC00
01FDFC00
01F8FE00
03F07F00
07E03F80
0FC01F80
03800F00
01000600
00000000
00000000
00000000
0FFFFF80
0FFFFF80
0FFFFF80
0FFFFF80
0FFFFF80
0FFFFF80
00003F80
00003F80
00003F80
00003F80
00003F80
00003F80
00003F80
00003F80
00003F80
00003F80
00003F80
00003F80
00003F80
00003F80
00003F80
00003F80
00003F80
00003F80
00003F80
00003F80
00003F80
00003F80
00003F80
00003F80
00003F80
0C003F80
FC003F80
FE003F80
FE007F00
FF00FF00
7FC1FF00
7FFFFE00
3FFFFC00
1FFFFC00
0FFFF800
03FFE000
00FF0000
ENDCHAR
STARTCHAR 0135
ENCODING 309
SWIDTH 266 0
DWIDTH 16 0
BBX 21 59 -2 -12
BITMAP
03FC00
03FE00
07FE00
0FFF00
1FFF80
3FDFC0
3F8FC0
7F07E0
FC03F0
F801F8
7000E0
200040
000000
000000
000000
000000
01F800
01F800
01F800
01F800
01F800
01F800
01F800
01F800
01F800
01F800
01F800
01F800
01F800
01F800
01F800
01F800
01F800
01F800
01F800
01F800
01F800
01F800
01F800
01F800
01F800
01F800
01F800
01F800
01F800
01F800
01F800
01F800
01F800
01F800
01F800
01F800
01F800
3FF800
3FF800
3FF000
3FF000
3FE000
3F8000
ENDCHAR
STARTCHAR 0136
ENCODING 310
SWIDTH 666 0
DWIDTH 40 0
BBX 34 57 5 -15
BITMAP
FE0000FF00
FE0001FE00
FE0003FC00
FE0003F800
FE0007F800
FE000FF000
FE001FE000
FE003FC000
FE007F8000
FE007F0000
FE00FF0000
FE01FE0000
FE03FC0000
FE07F80000
FE07F00000
FE0FE00000
FE1FC00000
FE3FC00000
FE7FC00000
FE7FE00000
FEFFE00000
FFFFF00000
FFFFF80000
FFF7F80000
FFE3FC0000
FFC1FE0000
FF81FE0000
FF00FF0000
FE007F8000
FE007F8000
FE003FC000
FE001FE000
FE001FE000
FE000FF000
FE0007F800
FE0007F800
FE0003FC00
FE0003FE00
FE0001FE00
FE0000FF00
FE0000FF80
FE00007F80
0000000040
0000000000
0000000000
0003C00000
0007E00000
000FE00000
000FE00000
000FE00000
0007E00000
0007E00000
0001E00000
0003C00000
0003C00000
0007800000
001F000000
ENDCHAR
STARTCHAR 0137
ENCODING 311
SWIDTH 550 0
DWIDTH 33 0
BBX 27 59 5 -15
BITMAP
FC000000
FC000000
FC000000
FC000000
FC000000
FC000000
FC000000
FC000000
FC000000
FC000000
FC000000
FC000000
FC000000
FC003FC0
FC007F80
FC00FF00
FC01FE00
FC03FC00
FC07F800
FC07F000
FC0FE000
FC1FC000
FC3F8000
FC7F0000
FCFF0000
FCFE0000
FDFF0000
FFFF8000
FFFF8000
FFDFC000
FF9FE000
FF0FE000
FF07F000
FE07F800
FC03F800
FC03FC00
FC01FC00
FC00FE00
FC00FF00
FC007F00
FC007F80
FC003FC0
FC001FC0
FC001FE0
00000000
00000000
00000000
001F0000
003F0000
003F8000
003F8000
003F8000
003F8000
001F0000
000F0000
000F0000
001E0000
003C0000
007C0000
ENDCHAR
STARTCHAR 0138
ENCODING 312
SWIDTH 550 0
DWIDTH 33 0
BBX 27 31 5 0
BITMAP
FC001FE0
FC003F80
FC007F00
FC00FE00
FC01FC00
FC03F800
FC07F000
FC0FF000
FC1FE000
FC3FC000
FC7F8000
FC7F0000
FCFE0000
FDFF0000
FFFF8000
FFFF8000
FFDFC000
FFDFE000
FF8FE000
FF0FF000
FE07F800
FC03F800
FC03FC00
FC01FC00
FC00FE00
FC00FF00
FC007F00
FC007F80
FC003FC0
FC001FC0
FC001FE0
ENDCHAR
STARTCHAR 0139
ENCODING 313
SWIDTH 516 0
DWIDTH 31 0
BBX 24 58 5 0
BITMAP
040000
070000
07C000
0FE000
0FC000
1FC000
1F8000
3F0000
3F0000
7E0000
7C0000
F80000
180000
000000
000000
000000
FE0000
FE0000
FE0000
FE0000
FE0000
FE0000
FE0000
FE0000
FE0000
FE0000
FE0000
FE0000
FE0000
FE0000
FE0000
FE0000
FE0000
FE0000
FE0000
FE0000
FE0000
FE0000
FE0000
FE0000
FE0000
FE0000
FE0000
FE0000
FE0000
FE0000
FE0000
FE0000
FE0000
FE0000
FE0000
FE0000
FFFFFF
FFFFFF
FFFFFF
FFFFFF
FFFFFF
FFFFFF
ENDCHAR
STARTCHAR 013A
ENCODING 314
SWIDTH 283 0
DWIDTH 17 0
BBX 11 60 5 0
BITMAP
0400
0F00
0FC0
1FE0
1FC0
3F80
3F00
7F00
7E00
FC00
F800
7800
1000
0000
0000
0000
FC00
FC00
FC00
FC00
FC00
FC00
FC00
FC00
FC00
FC00
FC00
FC00
FC00
FC00
FC00
FC00
FC00
FC00
FC00
FC00
FC00
FC00
FC00
FC00
FC00
FC00
FC00
FC00
FC00
FC00
FC00
FC00
FC00
FC00
FC00
FC00
FC00
FC00
FFE0
FFE0
FFE0
7FE0
3FE0
1FE0
ENDCHAR
STARTCHAR 013B
ENCODING 315
SWIDTH 516 0
DWIDTH 31 0
BBX 24 57 5 -15
BITMAP
FE0000
FE0000
FE0000
FE0000
FE0000
FE0000
FE0000
FE0000
FE0000
FE0000
FE0000
FE0000
FE0000
FE0000
FE0000
FE0000
FE0000
FE0000
FE0000
FE0000
FE0000
FE0000
FE0000
FE0000
FE0000
FE0000
FE0000
FE0000
FE0000
FE0000
FE0000
FE0000
FE0000
FE0000
FE0000
FE0000
FFFFFF
FFFFFF
FFFFFF
FFFFFF
FFFFFF
FFFFFF
000000
000000
000000
003E00
007F00
007F00
007F00
007F00
007F00
003F00
001E00
001E00
003C00
003C00
00F800
ENDCHAR
STARTCHAR 013C
ENCODING 316
SWIDTH 283 0
DWIDTH 17 0
BBX 11 59 5 -15
BITMAP
FC00
FC00
FC00
FC00
FC00
FC00
FC00
FC00
FC00
FC00
FC00
FC00
FC00
FC00
FC00
FC00
FC00
FC00
FC00
FC00
FC00
FC00
FC00
FC00
FC00
FC00
FC00
FC00
FC00
FC00
FC00
FC00
FC00
FC00
FC00
FC00
FC00
FC00
FFE0
FFE0
FFE0
7FE0
3FE0
1FE0
0000
0000
0000
1E00
3F00
3F80
3F80
3F80
3F00
1F00
0F00
1E00
1E00
3C00
7800
ENDCHAR
STARTCHAR 013D
ENCODING 317
SWIDTH 516 0
DWIDTH 31 0
BBX 24 44 5 0
BITMAP
000FE0
000FE0
FE0FE0
FE0FC0
FE0FC0
FE0FC0
FE0F80
FE0F80
FE0F80
FE0F80
FE0F00
FE0F00
FE1000
FE0000
FE0000
FE0000
FE0000
FE0000
FE0000
FE0000
FE0000
FE0000
FE0000
FE0000
FE0000
FE0000
FE0000
FE0000
FE0000
FE0000
FE0000
FE0000
FE0000
FE0000
FE0000
FE0000
FE0000
FE0000
FFFFFF
FFFFFF
FFFFFF
FFFFFF
FFFFFF
FFFFFF
ENDCHAR
STARTCHAR 013E
ENCODING 318
SWIDTH 316 0
DWIDTH 19 0
BBX 17 44 5 0
BITMAP
FC3F80
FC3F80
FC3F80
FC3F00
FC3F00
FC3F00
FC3E00
FC3E00
FC3E00
FC3E00
FC3C00
FC3C00
FC0000
FC0000
FC0000
FC0000
FC0000
FC0000
FC0000
FC0000
FC0000
FC0000
FC0000
FC0000
FC0000
FC0000
FC0000
FC0000
FC0000
FC0000
FC0000
FC0000
FC0000
FC0000
FC0000
FC0000
FC0000
FC0000
FFE000
FFE000
FFE000
7FE000
3FE000
1FE000
ENDCHAR
STARTCHAR 013F
ENCODING 319
SWIDTH 516 0
DWIDTH 31 0
BBX 24 42 5 0
BITMAP
FE0000
FE0000
FE0000
FE0000
FE0000
FE0000
FE0000
FE0000
FE0000
FE0000
FE0000
FE0000
FE0000
FE0000
FE0000
FE0000
FE00F8
FE01FC
FE01FE
FE01FE
FE01FE
FE01FE
FE01FC
FE00F8
FE0000
FE0000
FE0000
FE0000
FE0000
FE0000
FE0000
FE0000
FE0000
FE0000
FE0000
FE0000
FFFFFF
FFFFFF
FFFFFF
FFFFFF
FFFFFF
FFFFFF
ENDCHAR
STARTCHAR 0140
ENCODING 320
SWIDTH 400 0
DWIDTH 24 0
BBX 19 44 5 0
BITMAP
FC0000
FC0000
FC0000
FC0000
FC0000
FC0000
FC0000
FC0000
FC0000
FC0000
FC0000
FC0000
FC0000
FC0000
FC0000
FC0000
FC0000
FC0000
FC0000
FC0000
FC0000
FC0F80
FC1FC0
FC1FE0
FC1FE0
FC1FE0
FC1FE0
FC1FC0
FC0F80
FC0000
FC0000
FC0000
FC0000
FC0000
FC0000
FC0000
FC0000
FC0000
FFE000
FFE000
FFE000
7FE000
3FE000
1FE000
ENDCHAR
STARTCHAR 0141
ENCODING 321
SWIDTH 516 0
DWIDTH 31 0
BBX 29 42 0 0
BITMAP
07F00000
07F00000
07F00000
07F00000
07F00000
07F00000
07F00000
07F00000
07F00000
07F00000
07F00000
07F00000
07F00000
07F00000
07F00000
07F00000
07F00C00
07F07C00
07F3FC00
07FFFC00
07FFFC00
0FFFF000
7FFF8000
FFFC0000
FFF00000
FFF00000
F7F00000
87F00000
07F00000
07F00000
07F00000
07F00000
07F00000
07F00000
07F00000
07F00000
07FFFFF8
07FFFFF8
07FFFFF8
07FFFFF8
07FFFFF8
07FFFFF8
ENDCHAR
STARTCHAR 0142
ENCODING 322
SWIDTH 300 0
DWIDTH 18 0
BBX 17 44 1 0
BITMAP
0FC000
0FC000
0FC000
0FC000
0FC000
0FC000
0FC000
0FC000
0FC000
0FC000
0FC000
0FC000
0FC000
0FC000
0FC000
0FC000
0FC180
0FCF80
0FFF80
0FFF80
1FFF80
FFFF00
FFF000
FFC000
FFC000
EFC000
8FC000
0FC000
0FC000
0FC000
0FC000
0FC000
0FC000
0FC000
0FC000
0FC000
0FC000
0FC000
0FFE00
0FFE00
0FFE00
07FE00
03FE00
01FE00
ENDCHAR
STARTCHAR 0143
ENCODING 323
SWIDTH 716 0
DWIDTH 43 0
BBX 33 58 5 0
BITMAP
0000200000
0000380000
00007E0000
00007F0000
0000FE0000
0000FC0000
0001FC0000
0001F80000
0003F00000
0003F00000
0007E00000
0003C00000
0000800000
0000000000
0000000000
0000000000
FF00003F80
FF80003F80
FF80003F80
FFC0003F80
FFC0003F80
FFE0003F80
FFF0003F80
FFF0003F80
FFF8003F80
FFF8003F80
FFFC003F80
FEFC003F80
FEFE003F80
FE7F003F80
FE7F003F80
FE3F803F80
FE3F803F80
FE1FC03F80
FE1FE03F80
FE0FE03F80
FE0FF03F80
FE07F03F80
FE03F83F80
FE03FC3F80
FE01FC3F80
FE01FE3F80
FE00FE3F80
FE007F3F80
FE007F3F80
FE003FBF80
FE003FBF80
FE001FFF80
FE000FFF80
FE000FFF80
FE0007FF80
FE0007FF80
FE0003FF80
FE0003FF80
FE0001FF80
FE0000FF80
FE0000FF80
FE00007F80
ENDCHAR
STARTCHAR 0144
ENCODING 324
SWIDTH 583 0
DWIDTH 35 0
BBX 25 48 5 0
BITMAP
00020000
00038000
0003E000
0007F000
0007E000
000FE000
001FC000
001F8000
003F0000
003F0000
007E0000
003C0000
000C0000
00000000
00000000
00000000
000FE000
FC3FF800
FC7FFC00
FCFFFE00
FDFFFF00
FDFFFF00
FFC0FF80
FF007F80
FE003F80
FE003F80
FC001F80
FC001F80
FC001F80
FC001F80
FC001F80
FC001F80
FC001F80
FC001F80
FC001F80
FC001F80
FC001F80
FC001F80
FC001F80
FC001F80
FC001F80
FC001F80
FC001F80
FC001F80
FC001F80
FC001F80
FC001F80
FC001F80
ENDCHAR
STARTCHAR 0145
ENCODING 325
SWIDTH 716 0
DWIDTH 43 0
BBX 33 57 5 -15
BITMAP
FF00003F80
FF80003F80
FF80003F80
FFC0003F80
FFC0003F80
FFE0003F80
FFF0003F80
FFF0003F80
FFF8003F80
FFF8003F80
FFFC003F80
FEFC003F80
FEFE003F80
FE7F003F80
FE7F003F80
FE3F803F80
FE3F803F80
FE1FC03F80
FE1FE03F80
FE0FE03F80
FE0FF03F80
FE07F03F80
FE03F83F80
FE03FC3F80
FE01FC3F80
FE01FE3F80
FE00FE3F80
FE007F3F80
FE007F3F80
FE003FBF80
FE003FBF80
FE001FFF80
FE000FFF80
FE000FFF80
FE0007FF80
FE0007FF80
FE0003FF80
FE0003FF80
FE0001FF80
FE0000FF80
FE0000FF80
FE00007F80
0000000000
0000000000
0000000000
0003E00000
0007F00000
0007F00000
0007F00000
0007F00000
0007F00000
0003F00000
0001E00000
0001E00000
0003C00000
0007C00000
000F800000
ENDCHAR
STARTCHAR 0146
ENCODING 326
SWIDTH 583 0
DWIDTH 35 0
BBX 25 47 5 -15
BITMAP
000FE000
FC3FF800
FC7FFC00
FCFFFE00
FDFFFF00
FDFFFF00
FFC0FF80
FF007F80
FE003F80
FE003F80
FC001F80
FC001F80
FC001F80
FC001F80
FC001F80
FC001F80
FC001F80
FC001F80
FC001F80
FC001F80
FC001F80
FC001F80
FC001F80
FC001F80
FC001F80
FC001F80
FC001F80
FC001F80
FC001F80
FC001F80
FC001F80
FC001F80
00000000
00000000
00000000
003E0000
007F0000
007F0000
007F0000
007F0000
007F0000
003F0000
001E0000
001E0000
003C0000
003C0000
00F80000
ENDCHAR
STARTCHAR 0147
ENCODING 327
SWIDTH 716 0
DWIDTH 43 0
BBX 33 58 5 0
BITMAP
0040010000
01E0038000
03F007E000
01F80FC000
01FC1F8000
00FE3F8000
007F7F0000
003FFE0000
003FFC0000
001FFC0000
000FF80000
0007F00000
0000000000
0000000000
0000000000
0000000000
FF00003F80
FF80003F80
FF80003F80
FFC0003F80
FFC0003F80
FFE0003F80
FFF0003F80
FFF0003F80
FFF8003F80
FFF8003F80
FFFC003F80
FEFC003F80
FEFE003F80
FE7F003F80
FE7F003F80
FE3F803F80
FE3F803F80
FE1FC03F80
FE1FE03F80
FE0FE03F80
FE0FF03F80
FE07F03F80
FE03F83F80
FE03FC3F80
FE01FC3F80
FE01FE3F80
FE00FE3F80
FE007F3F80
FE007F3F80
FE003FBF80
FE003FBF80
FE001FFF80
FE000FFF80
FE000FFF80
FE0007FF80
FE0007FF80
FE0003FF80
FE0003FF80
FE0001FF80
FE0000FF80
FE0000FF80
FE00007F80
ENDCHAR
STARTCHAR 0148
ENCODING 328
SWIDTH 583 0
DWIDTH 35 0
BBX 25 48 5 0
BITMAP
04001000
0E003C00
3F007E00
1F80FC00
0FC1FC00
0FE3F800
07F7F000
03FFE000
01FFE000
01FFC000
00FF8000
007F0000
00000000
00000000
00000000
00000000
000FE000
FC3FF800
FC7FFC00
FCFFFE00
FDFFFF00
FDFFFF00
FFC0FF80
FF007F80
FE003F80
FE003F80
FC001F80
FC001F80
FC001F80
FC001F80
FC001F80
FC001F80
FC001F80
FC001F80
FC001F80
FC001F80
FC001F80
FC001F80
FC001F80
FC001F80
FC001F80
FC001F80
FC001F80
FC001F80
FC001F80
FC001F80
FC001F80
FC001F80
ENDCHAR
STARTCHAR 0149
ENCODING 329
SWIDTH 850 0
DWIDTH 51 0
BBX 44 45 2 0
BITMAP
0F8000000000
1FC000000000
1FE000000000
3FE000000000
3FE000000000
3FE000000000
1FE000000000
1FE000000000
0FC000000000
07C000000000
07C000000000
0F8000000000
0F0000000000
1F000001FC00
3E001F87FF00
7C001F8FFF80
80001F9FFFC0
00001FBFFFE0
00001FBFFFE0
00001FF83FE0
00001FE00FF0
00001FC007F0
00001F8007F0
00001F8007F0
00001F8003F0
00001F8003F0
00001F8003F0
00001F8003F0
00001F8003F0
00001F8003F0
00001F8003F0
00001F8003F0
00001F8003F0
00001F8003F0
00001F8003F0
00001F8003F0
00001F8003F0
00001F8003F0
00001F8003F0
00001F8003F0
00001F8003F0
00001F8003F0
00001F8003F0
00001F8003F0
00001F8003F0
ENDCHAR
STARTCHAR 014A
ENCODING 330
SWIDTH 716 0
DWIDTH 43 0
BBX 33 54 5 -12
BITMAP
FF00003F80
FF80003F80
FF80003F80
FFC0003F80
FFC0003F80
FFE0003F80
FFF0003F80
FFF0003F80
FFF8003F80
FFF8003F80
FFFC003F80
FEFC003F80
FEFE003F80
FE7F003F80
FE7F003F80
FE3F803F80
FE3F803F80
FE1FC03F80
FE1FE03F80
FE0FE03F80
FE0FF03F80
FE07F03F80
FE03F83F80
FE03FC3F80
FE01FC3F80
FE01FE3F80
FE00FE3F80
FE007F3F80
FE007F3F80
FE003FBF80
FE003FBF80
FE001FFF80
FE000FFF80
FE000FFF80
FE0007FF80
FE0007FF80
FE0003FF80
FE0003FF80
FE0001FF80
FE0000FF80
FE0000FF80
FE00007F80
0000003F80
0000003F80
0000003F80
0000003F80
0000003F80
0000003F80
000007FF00
000007FF00
000007FF00
000007FE00
000007FC00
000007F000
ENDCHAR
STARTCHAR 014B
ENCODING 331
SWIDTH 583 0
DWIDTH 35 0
BBX 25 44 5 -12
BITMAP
000FE000
FC3FF800
FC7FFC00
FCFFFE00
FDFFFF00
FDFFFF00
FFC0FF80
FF007F80
FE003F80
FE003F80
FC001F80
FC001F80
FC001F80
FC001F80
FC001F80
FC001F80
FC001F80
FC001F80
FC001F80
FC001F80
FC001F80
FC001F80
FC001F80
FC001F80
FC001F80
FC001F80
FC001F80
FC001F80
FC001F80
FC001F80
FC001F80
FC001F80
00001F80
00001F80
00001F80
00001F80
00001F80
00001F80
0003FF80
0003FF80
0003FF80
0003FF00
0003FE00
0003F800
ENDCHAR
STARTCHAR 014C
ENCODING 332
SWIDTH 716 0
DWIDTH 43 0
BBX 36 54 3 -1
BITMAP
003FFFE000
003FFFE000
003FFFE000
003FFFE000
003FFFE000
0000000000
0000000000
0000000000
0000000000
0000000000
0003FE0000
001FFFC000
007FFFF000
01FFFFF800
03FFFFFC00
07FFFFFE00
07FE03FF00
0FF800FF80
1FE0007F80
1FC0003FC0
3FC0001FC0
3F80000FE0
3F80000FE0
7F00000FE0
7F000007F0
7F000007F0
7F000007F0
7F000007F0
FF000007F0
FF000007F0
FF000007F0
FF000007F0
FF000007F0
FF000007F0
FF000007F0
FF000007F0
7F000007F0
7F000007F0
7F000007F0
7F000007F0
7F00000FE0
3F80000FE0
3F80000FE0
3FC0001FC0
1FC0003FC0
1FE0007F80
0FF800FF80
07FE03FF00
07FFFFFE00
03FFFFFC00
01FFFFF800
007FFFF000
001FFFC000
0003FE0000
ENDCHAR
STARTCHAR 014D
ENCODING 333
SWIDTH 566 0
DWIDTH 34 0
BBX 28 44 3 -1
BITMAP
07FFFE00
07FFFE00
07FFFE00
07FFFE00
07FFFE00
00000000
00000000
00000000
00000000
00000000
00000000
003FC000
01FFF800
03FFFC00
0FFFFE00
1FFFFF00
1FFFFF80
3FE07FC0
7F801FC0
7F000FE0
7E000FE0
FE0007E0
FE0007F0
FE0007F0
FC0007F0
FC0007F0
FC0007F0
FC0007F0
FC0007F0
FC0007F0
FC0007F0
FE0007F0
FE0007F0
FE0007E0
7E000FE0
7F000FE0
7F801FC0
3FE07FC0
1FFFFF80
1FFFFF00
0FFFFE00
03FFFC00
01FFF800
003FC000
ENDCHAR
STARTCHAR 014E
ENCODING 334
SWIDTH 716 0
DWIDTH 43 0
BBX 36 57 3 -1
BITMAP
001000C000
007800F000
00F801F000
007C01F000
007E03E000
003F07E000
003FFFC000
001FFFC000
000FFF8000
0007FF0000
0001FC0000
0000000000
0000000000
0003FE0000
001FFFC000
007FFFF000
01FFFFF800
03FFFFFC00
07FFFFFE00
07FE03FF00
0FF800FF80
1FE0007F80
1FC0003FC0
3FC0001FC0
3F80000FE0
3F80000FE0
7F00000FE0
7F000007F0
7F000007F0
7F000007F0
7F000007F0
FF000007F0
FF000007F0
FF000007F0
FF000007F0
FF000007F0
FF000007F0
FF000007F0
FF000007F0
7F000007F0
7F000007F0
7F000007F0
7F000007F0
7F00000FE0
3F80000FE0
3F80000FE0
3FC0001FC0
1FC0003FC0
1FE0007F80
0FF800FF80
07FE03FF00
07FFFFFE00
03FFFFFC00
01FFFFF800
007FFFF000
001FFFC000
0003FE0000
ENDCHAR
STARTCHAR 014F
ENCODING 335
SWIDTH 566 0
DWIDTH 34 0
BBX 28 47 3 -1
BITMAP
03000800
07001E00
0F801F00
0FC03E00
07C07E00
07F0FE00
03FFFC00
03FFF800
01FFF000
007FE000
003F8000
00000000
00000000
00000000
003FC000
01FFF800
03FFFC00
0FFFFE00
1FFFFF00
1FFFFF80
3FE07FC0
7F801FC0
7F000FE0
7E000FE0
FE0007E0
FE0007F0
FE0007F0
FC0007F0
FC0007F0
FC0007F0
FC0007F0
FC0007F0
FC0007F0
FC0007F0
FE0007F0
FE0007F0
FE0007E0
7E000FE0
7F000FE0
7F801FC0
3FE07FC0
1FFFFF80
1FFFFF00
0FFFFE00
03FFFC00
01FFF800
003FC000
ENDCHAR
STARTCHAR 0150
ENCODING 336
SWIDTH 716 0
DWIDTH 43 0
BBX 36 59 3 -1
BITMAP
0001004000
0001C07000
0003F07C00
0003F8FE00
0007F0FC00
0007E1FC00
000FC1F800
000F83F000
001F83F000
001F07E000
003E07C000
003E078000
000C018000
0000000000
0000000000
0003FE0000
001FFFC000
007FFFF000
01FFFFF800
03FFFFFC00
07FFFFFE00
07FE03FF00
0FF800FF80
1FE0007F80
1FC0003FC0
3FC0001FC0
3F80000FE0
3F80000FE0
7F00000FE0
7F000007F0
7F000007F0
7F000007F0
7F000007F0
FF000007F0
FF000007F0
FF000007F0
FF000007F0
FF000007F0
FF000007F0
FF000007F0
FF000007F0
7F000007F0
7F000007F0
7F000007F0
7F000007F0
7F00000FE0
3F80000FE0
3F80000FE0
3FC0001FC0
1FC0003FC0
1FE0007F80
0FF800FF80
07FE03FF00
07FFFFFE00
03FFFFFC00
01FFFFF800
007FFFF000
001FFFC000
0003FE0000
ENDCHAR
STARTCHAR 0151
ENCODING 337
SWIDTH 566 0
DWIDTH 34 0
BBX 28 49 3 -1
BITMAP
00200400
00380700
003E07C0
007F0FE0
007E0FC0
00FC1F80
00FC1F00
01F83F00
01F03E00
03F07C00
03E07C00
07C0F800
00801000
00000000
00000000
00000000
003FC000
01FFF800
03FFFC00
0FFFFE00
1FFFFF00
1FFFFF80
3FE07FC0
7F801FC0
7F000FE0
7E000FE0
FE0007E0
FE0007F0
FE0007F0
FC0007F0
FC0007F0
FC0007F0
FC0007F0
FC0007F0
FC0007F0
FC0007F0
FE0007F0
FE0007F0
FE0007E0
7E000FE0
7F000FE0
7F801FC0
3FE07FC0
1FFFFF80
1FFFFF00
0FFFFE00
03FFFC00
01FFF800
003FC000
ENDCHAR
STARTCHAR 0152
ENCODING 338
SWIDTH 983 0
DWIDTH 59 0
BBX 53 44 3 -1
BITMAP
0003FF00000000
001FFFFFFFFFF8
007FFFFFFFFFF8
01FFFFFFFFFFF8
03FFFFFFFFFFF8
07FFFFFFFFFFF8
07FE00FFFFFFF8
0FF8003F800000
1FE0003F800000
1FC0003F800000
3FC0003F800000
3F80003F800000
3F80003F800000
7F00003F800000
7F00003F800000
7F00003F800000
7F00003F800000
7F00003F800000
FF00003F800000
FF00003FFFFFE0
FF00003FFFFFE0
FF00003FFFFFE0
FF00003FFFFFE0
FF00003FFFFFE0
FF00003FFFFFE0
FF00003F800000
7F00003F800000
7F00003F800000
7F00003F800000
7F00003F800000
7F00003F800000
3F80003F800000
3F80003F800000
3FC0003F800000
1FC0003F800000
1FE0003F800000
0FF8003F800000
07FE00FFFFFFF8
07FFFFFFFFFFF8
03FFFFFFFFFFF8
01FFFFFFFFFFF8
007FFFFFFFFFF8
001FFFFFFFFFF8
0003FF00000000
ENDCHAR
STARTCHAR 0153
ENCODING 339
SWIDTH 916 0
DWIDTH 55 0
BBX 50 33 3 -1
BITMAP
003FC000FF0000
01FFF003FFC000
03FFFC0FFFF000
0FFFFE1FFFF800
1FFFFE3FFFFC00
1FFFFF7FFFFE00
3FE07FFF81FF00
7F801FFE00FF00
7F000FFC007F80
7E000FF8003F80
FE0007F8003F80
FE0007F8001F80
FE0007F0001F80
FC0007F0001FC0
FC0007FFFFFFC0
FC0007FFFFFFC0
FC0007FFFFFFC0
FC0007FFFFFFC0
FC0007F0000000
FC0007F0000000
FE0007F0000000
FE0007F8000000
FE0007F8000800
7E000FF8000C00
7F000FFC001E00
7F801FFE003F00
3FE07FFF80FF80
1FFFFF7FFFFF00
1FFFFF3FFFFE00
0FFFFE1FFFFC00
03FFFC0FFFF800
01FFF003FFE000
003FC000FF8000
ENDCHAR
STARTCHAR 0154
ENCODING 340
SWIDTH 650 0
DWIDTH 39 0
BBX 31 58 5 0
BITMAP
00010000
0001C000
0001F800
0003FC00
0003F800
0007F000
0007E000
000FC000
000FC000
001F8000
001F0000
003F0000
00060000
00000000
00000000
00000000
FFFFFC00
FFFFFF80
FFFFFFC0
FFFFFFE0
FFFFFFF0
FFFFFFF8
FE000FF8
FE0003FC
FE0001FC
FE0001FC
FE0001FC
FE0001FC
FE0001FC
FE0001FC
FE0001FC
FE0001FC
FE0001FC
FE0003FC
FE000FF8
FFFFFFF8
FFFFFFF0
FFFFFFE0
FFFFFFC0
FFFFFF00
FFFFFC00
FE00FE00
FE00FE00
FE007F00
FE007F00
FE007F80
FE003F80
FE003FC0
FE001FC0
FE001FE0
FE000FE0
FE000FF0
FE0007F0
FE0007F8
FE0003F8
FE0003FC
FE0001FC
FE0001FE
ENDCHAR
STARTCHAR 0155
ENCODING 341
SWIDTH 383 0
DWIDTH 23 0
BBX 17 48 5 0
BITMAP
002000
003800
007E00
007F00
00FE00
00FC00
01FC00
01F800
03F000
03E000
07E000
03C000
008000
000000
000000
000000
000000
FC0F80
FC3F80
FCFF80
FCFF80
FDFF80
FDFF80
FFC000
FF0000
FE0000
FC0000
FC0000
FC0000
FC0000
FC0000
FC0000
FC0000
FC0000
FC0000
FC0000
FC0000
FC0000
FC0000
FC0000
FC0000
FC0000
FC0000
FC0000
FC0000
FC0000
FC0000
FC0000
ENDCHAR
STARTCHAR 0156
ENCODING 342
SWIDTH 650 0
DWIDTH 39 0
BBX 31 57 5 -15
BITMAP
FFFFFC00
FFFFFF80
FFFFFFC0
FFFFFFE0
FFFFFFF0
FFFFFFF8
FE000FF8
FE0003FC
FE0001FC
FE0001FC
FE0001FC
FE0001FC
FE0001FC
FE0001FC
FE0001FC
FE0001FC
FE0001FC
FE0003FC
FE000FF8
FFFFFFF8
FFFFFFF0
FFFFFFE0
FFFFFFC0
FFFFFF00
FFFFFC00
FE00FE00
FE00FE00
FE007F00
FE007F00
FE007F80
FE003F80
FE003FC0
FE001FC0
FE001FE0
FE000FE0
FE000FF0
FE0007F0
FE0007F8
FE0003F8
FE0003FC
FE0001FC
FE0001FE
00000000
00000000
00000000
00078000
000FC000
000FE000
000FE000
000FE000
000FE000
0007C000
0003C000
0003C000
00078000
000F0000
001E0000
ENDCHAR
STARTCHAR 0157
ENCODING 343
SWIDTH 383 0
DWIDTH 23 0
BBX 18 46 4 -15
BITMAP
7E07C0
7E1FC0
7E7FC0
7E7FC0
7EFFC0
7EFFC0
7FE000
7F8000
7F0000
7E0000
7E0000
7E0000
7E0000
7E0000
7E0000
7E0000
7E0000
7E0000
7E0000
7E0000
7E0000
7E0000
7E0000
7E0000
7E0000
7E0000
7E0000
7E0000
7E0000
7E0000
7E0000
000000
000000
000000
3C0000
7E0000
FE0000
FF0000
FF0000
7E0000
3E0000
1E0000
3C0000
3C0000
780000
F00000
ENDCHAR
STARTCHAR 0158
ENCODING 344
SWIDTH 650 0
DWIDTH 39 0
BBX 31 58 5 0
BITMAP
02000C00
07001E00
1F803F00
0FC07F00
07E0FE00
03F1FC00
03FBF800
01FFF800
00FFF000
007FE000
007FC000
003FC000
00000000
00000000
00000000
00000000
FFFFFC00
FFFFFF80
FFFFFFC0
FFFFFFE0
FFFFFFF0
FFFFFFF8
FE000FF8
FE0003FC
FE0001FC
FE0001FC
FE0001FC
FE0001FC
FE0001FC
FE0001FC
FE0001FC
FE0001FC
FE0001FC
FE0003FC
FE000FF8
FFFFFFF8
FFFFFFF0
FFFFFFE0
FFFFFFC0
FFFFFF00
FFFFFC00
FE00FE00
FE00FE00
FE007F00
FE007F00
FE007F80
FE003F80
FE003FC0
FE001FC0
FE001FE0
FE000FE0
FE000FF0
FE0007F0
FE0007F8
FE0003F8
FE0003FC
FE0001FC
FE0001FE
ENDCHAR
STARTCHAR 0159
ENCODING 345
SWIDTH 383 0
DWIDTH 23 0
BBX 21 48 3 0
BITMAP
100040
7800E0
FC01F8
FE03F0
7F07E0
3F8FE0
1FDFC0
0FFF80
0FFF00
07FF00
03FE00
01FC00
000000
000000
000000
000000
000000
3F03E0
3F0FE0
3F3FE0
3F3FE0
3F7FE0
3F7FE0
3FF000
3FC000
3F8000
3F0000
3F0000
3F0000
3F0000
3F0000
3F0000
3F0000
3F0000
3F0000
3F0000
3F0000
3F0000
3F0000
3F0000
3F0000
3F0000
3F0000
3F0000
3F0000
3F0000
3F0000
3F0000
ENDCHAR
STARTCHAR 015A
ENCODING 346
SWIDTH 600 0
DWIDTH 36 0
BBX 31 59 2 -1
BITMAP
00004000
00007000
00007C00
0000FF00
0000FC00
0001FC00
0001F800
0003F000
0003F000
0007E000
0007C000
000FC000
00018000
00000000
00000000
000FF800
007FFF00
01FFFFC0
07FFFFE0
0FFFFFF8
0FFFFFFC
1FF00FFC
1FC003F8
3F8000F0
3F800060
3F000040
3F000000
3F000000
3F800000
3F800000
3FC00000
3FE00000
1FFC0000
1FFFC000
0FFFFC00
07FFFF80
03FFFFC0
00FFFFF0
001FFFF8
0001FFF8
00000FFC
000003FC
000001FE
000000FE
000000FE
000000FE
000000FE
080000FE
0C0000FE
1E0001FC
3F0001FC
7FC003FC
FFF00FF8
3FFFFFF8
1FFFFFF0
0FFFFFE0
03FFFF80
00FFFF00
001FF000
ENDCHAR
STARTCHAR 015B
ENCODING 347
SWIDTH 500 0
DWIDTH 30 0
BBX 25 49 2 -1
BITMAP
00020000
00038000
0003E000
0007F000
0007E000
000FE000
001FC000
001F8000
003F0000
003F0000
007E0000
003C0000
000C0000
00000000
00000000
00000000
007F8000
03FFF000
0FFFF800
1FFFFE00
1FFFFF00
3FFFFF00
3FC0FE00
7F003C00
7F000800
7E000000
7F000000
7F000000
7FC00000
3FFF0000
3FFFE000
1FFFF800
0FFFFE00
07FFFE00
01FFFF00
000FFF00
00007F80
00003F80
00001F80
08001F80
1C003F80
7E003F80
FF80FF00
FFFFFF00
7FFFFE00
3FFFFC00
0FFFF800
07FFF000
00FF8000
ENDCHAR
STARTCHAR 015C
ENCODING 348
SWIDTH 600 0
DWIDTH 36 0
BBX 31 58 2 -1
BITMAP
000FE000
001FF000
001FF800
003FFC00
007FFE00
00FEFE00
01FC7F00
01F83F80
03F01FC0
07E00FC0
01C00780
00800300
00000000
00000000
000FF800
007FFF00
01FFFFC0
07FFFFE0
0FFFFFF8
0FFFFFFC
1FF00FFC
1FC003F8
3F8000F0
3F800060
3F000040
3F000000
3F000000
3F800000
3F800000
3FC00000
3FE00000
1FFC0000
1FFFC000
0FFFFC00
07FFFF80
03FFFFC0
00FFFFF0
001FFFF8
0001FFF8
00000FFC
000003FC
000001FE
000000FE
000000FE
000000FE
000000FE
080000FE
0C0000FE
1E0001FC
3F0001FC
7FC003FC
FFF00FF8
3FFFFFF8
1FFFFFF0
0FFFFFE0
03FFFF80
00FFFF00
001FF000
ENDCHAR
STARTCHAR 015D
ENCODING 349
SWIDTH 500 0
DWIDTH 30 0
BBX 25 48 2 -1
BITMAP
007F0000
00FF8000
01FFC000
01FFE000
03FFE000
07F7F000
0FE3F800
0FC1FC00
1F80FE00
3F007E00
0E003C00
04001000
00000000
00000000
00000000
007F8000
03FFF000
0FFFF800
1FFFFE00
1FFFFF00
3FFFFF00
3FC0FE00
7F003C00
7F000800
7E000000
7F000000
7F000000
7FC00000
3FFF0000
3FFFE000
1FFFF800
0FFFFE00
07FFFE00
01FFFF00
000FFF00
00007F80
00003F80
00001F80
08001F80
1C003F80
7E003F80
FF80FF00
FFFFFF00
7FFFFE00
3FFFFC00
0FFFF800
07FFF000
00FF8000
ENDCHAR
STARTCHAR 015E
ENCODING 350
SWIDTH 600 0
DWIDTH 36 0
BBX 31 56 2 -13
BITMAP
000FF800
007FFF00
01FFFFC0
07FFFFF0
0FFFFFF8
0FFFFFFC
1FF00FFC
1FC003F8
3F8000F0
3F800060
3F000040
3F000000
3F000000
3F800000
3F800000
3FC00000
3FE00000
1FFC0000
1FFFC000
0FFFFC00
07FFFF80
03FFFFC0
00FFFFF0
001FFFF8
0001FFF8
00000FFC
000003FC
000001FE
000000FE
000000FE
000000FE
000000FE
000000FE
0C0000FE
1E0001FC
3F0001FC
7FC003FC
FFF00FF8
3FFFFFF8
1FFFFFF0
0FFFFFE0
07FFFFC0
01FFFF00
003FF800
00038000
00078000
00078000
0007FC00
00007E00
00003E00
00081F00
001C3F00
003FFE00
003FFE00
001FFC00
0007F000
ENDCHAR
STARTCHAR 015F
ENCODING 351
SWIDTH 500 0
DWIDTH 30 0
BBX 25 45 2 -13
BITMAP
007F8000
03FFF000
0FFFF800
1FFFFE00
1FFFFF00
3FFFFF00
3FC0FE00
7F003C00
7F000800
7E000000
7F000000
7F000000
7FC00000
3FFF0000
3FFFE000
1FFFF800
0FFFFE00
07FFFE00
01FFFF00
001FFF00
00007F80
00003F80
00001F80
08001F80
1C003F80
3E003F80
FF80FF00
FFFFFF00
7FFFFE00
3FFFFC00
0FFFF800
07FFF000
00FF8000
001C0000
003C0000
003C0000
003FE000
0003F000
0001F000
0080F800
00E1F800
01FFF000
01FFF000
00FFE000
003F8000
ENDCHAR
STARTCHAR 0160
ENCODING 352
SWIDTH 600 0
DWIDTH 36 0
BBX 31 59 2 -1
BITMAP
00800300
01C00780
07E00FC0
03F01FC0
01F83F80
01FC7F00
00FEFE00
007FFE00
003FFC00
001FF800
001FF000
000FE000
00000000
00000000
00000000
000FF800
007FFF00
01FFFFC0
07FFFFE0
0FFFFFF8
0FFFFFFC
1FF00FFC
1FC003F8
3F8000F0
3F800060
3F000040
3F000000
3F000000
3F800000
3F800000
3FC00000
3FE00000
1FFC0000
1FFFC000
0FFFFC00
07FFFF80
03FFFFC0
00FFFFF0
001FFFF8
0001FFF8
00000FFC
000003FC
000001FE
000000FE
000000FE
000000FE
000000FE
080000FE
0C0000FE
1E0001FC
3F0001FC
7FC003FC
FFF00FF8
3FFFFFF8
1FFFFFF0
0FFFFFE0
03FFFF80
00FFFF00
001FF000
ENDCHAR
STARTCHAR 0161
ENCODING 353
SWIDTH 500 0
DWIDTH 30 0
BBX 25 49 2 -1
BITMAP
04001000
0E003C00
3F007E00
1F80FC00
0FC1FC00
0FE3F800
07F7F000
03FFE000
01FFE000
01FFC000
00FF8000
007F0000
00000000
00000000
00000000
00000000
007F8000
03FFF000
0FFFF800
1FFFFE00
1FFFFF00
3FFFFF00
3FC0FE00
7F003C00
7F000800
7E000000
7F000000
7F000000
7FC00000
3FFF0000
3FFFE000
1FFFF800
0FFFFE00
07FFFE00
01FFFF00
000FFF00
00007F80
00003F80
00001F80
08001F80
1C003F80
7E003F80
FF80FF00
FFFFFF00
7FFFFE00
3FFFFC00
0FFFF800
07FFF000
00FF8000
ENDCHAR
STARTCHAR 0162
ENCODING 354
SWIDTH 583 0
DWIDTH 35 0
BBX 32 54 1 -12
BITMAP
FFFFFFFF
FFFFFFFF
FFFFFFFF
FFFFFFFF
FFFFFFFF
FFFFFFFF
0007F000
0007F000
0007F000
0007F000
0007F000
0007F000
0007F000
0007F000
0007F000
0007F000
0007F000
0007F000
0007F000
0007F000
0007F000
0007F000
0007F000
0007F000
0007F000
0007F000
0007F000
0007F000
0007F000
0007F000
0007F000
0007F000
0007F000
0007F000
0007F000
0007F000
0007F000
0007F000
0007F000
0007F000
0007F000
0007F000
0003C000
0003C000
00038000
0003FC00
00003F00
00001F00
00081F00
000E1F00
001FFF00
001FFF00
000FFE00
0003F800
ENDCHAR
STARTCHAR 0163
ENCODING 355
SWIDTH 366 0
DWIDTH 22 0
BBX 19 52 2 -12
BITMAP
07E000
07E000
07E000
07E000
07E000
07E000
07E000
07E000
0FE000
FFFFC0
FFFFC0
FFFFC0
FFFFC0
FFFFC0
FFFFC0
0FE000
0FE000
0FE000
0FE000
0FE000
0FE000
0FE000
0FE000
0FE000
0FE000
0FE000
0FE000
0FE000
0FE000
0FE000
0FE000
0FE000
0FE000
0FE000
0FFF80
07FF80
07FF80
07FF80
03FF80
00FF80
007800
007800
007000
007F80
000FC0
0003E0
0103E0
0183E0
03FFE0
07FFC0
01FF80
00FE00
ENDCHAR
STARTCHAR 0164
ENCODING 356
SWIDTH 583 0
DWIDTH 35 0
BBX 32 58 1 0
BITMAP
00400100
01E00380
03F007E0
01F80FC0
01FC1F80
00FE3F80
007F7F00
003FFE00
003FFC00
001FFC00
000FF800
0007F000
00000000
00000000
00000000
00000000
FFFFFFFF
FFFFFFFF
FFFFFFFF
FFFFFFFF
FFFFFFFF
FFFFFFFF
0007F000
0007F000
0007F000
0007F000
0007F000
0007F000
0007F000
0007F000
0007F000
0007F000
0007F000
0007F000
0007F000
0007F000
0007F000
0007F000
0007F000
0007F000
0007F000
0007F000
0007F000
0007F000
0007F000
0007F000
0007F000
0007F000
0007F000
0007F000
0007F000
0007F000
0007F000
0007F000
0007F000
0007F000
0007F000
0007F000
ENDCHAR
STARTCHAR 0165
ENCODING 357
SWIDTH 366 0
DWIDTH 22 0
BBX 23 46 2 0
BITMAP
0001FE
0001FC
0001FC
0001FC
0001F8
0001F8
07E1F8
07E1F8
07E1F0
07E1F0
07E1F0
07E1E0
07E000
07E000
0FE000
FFFFC0
FFFFC0
FFFFC0
FFFFC0
FFFFC0
FFFFC0
0FE000
0FE000
0FE000
0FE000
0FE000
0FE000
0FE000
0FE000
0FE000
0FE000
0FE000
0FE000
0FE000
0FE000
0FE000
0FE000
0FE000
0FE000
0FE000
0FFF80
07FF80
07FF80
07FF80
03FF80
00FF80
ENDCHAR
STARTCHAR 0166
ENCODING 358
SWIDTH 583 0
DWIDTH 35 0
BBX 32 42 2 0
BITMAP
FFFFFFFF
FFFFFFFF
FFFFFFFF
FFFFFFFF
FFFFFFFF
FFFFFFFF
000FE000
000FE000
000FE000
000FE000
000FE000
000FE000
000FE000
000FE000
000FE000
000FE000
000FE000
1FFFFFF0
1FFFFFF0
1FFFFFF0
1FFFFFF0
1FFFFFF0
1FFFFFF0
000FE000
000FE000
000FE000
000FE000
000FE000
000FE000
000FE000
000FE000
000FE000
000FE000
000FE000
000FE000
000FE000
000FE000
000FE000
000FE000
000FE000
000FE000
000FE000
ENDCHAR
STARTCHAR 0167
ENCODING 359
SWIDTH 366 0
DWIDTH 22 0
BBX 18 40 2 0
BITMAP
07E000
07E000
07E000
07E000
07E000
07E000
07E000
07E000
0FE000
FFFFC0
FFFFC0
FFFFC0
FFFFC0
FFFFC0
FFFFC0
07E000
07E000
07E000
07E000
07E000
07E000
7FFF00
7FFF00
7FFF00
7FFF00
07E000
07E000
07E000
07E000
07E000
07E000
07E000
07E000
07E000
07FF80
07FF80
07FF80
03FF80
01FF80
00FF80
ENDCHAR
STARTCHAR 0168
ENCODING 360
SWIDTH 683 0
DWIDTH 41 0
BBX 31 55 5 -1
BITMAP
007C0000
01FF0100
03FFC380
07FFFFC0
03FFFFC0
0387FF80
0101FF00
00007E00
00000000
00000000
00000000
00000000
FE00007E
FE00007E
FE00007E
FE00007E
FE00007E
FE00007E
FE00007E
FE00007E
FE00007E
FE00007E
FE00007E
FE00007E
FE00007E
FE00007E
FE00007E
FE00007E
FE00007E
FE00007E
FE00007E
FE00007E
FE00007E
FE00007E
FE00007E
FE00007E
FE00007E
FE00007E
FE00007E
FE00007E
FE0000FE
FE0000FE
FE0000FE
FE0000FE
7F0000FE
7F0001FC
7F8003FC
3FC007FC
3FF01FF8
1FFFFFF8
1FFFFFF0
0FFFFFE0
03FFFFC0
01FFFF00
003FF800
ENDCHAR
STARTCHAR 0169
ENCODING 361
SWIDTH 583 0
DWIDTH 35 0
BBX 26 45 4 -1
BITMAP
03F00000
07FC0400
0FFF0E00
1FFFFE00
1FFFFF00
0E1FFE00
0407FC00
0001F000
00000000
00000000
00000000
00000000
00000000
FE000FC0
FE000FC0
FE000FC0
FE000FC0
FE000FC0
FE000FC0
FE000FC0
FE000FC0
FE000FC0
FE000FC0
FE000FC0
FE000FC0
FE000FC0
FE000FC0
FE000FC0
FE000FC0
FE000FC0
FE000FC0
FE000FC0
FE000FC0
FE000FC0
FE001FC0
7F001FC0
7F001FC0
7F803FC0
7FC0FFC0
3FFFEFC0
3FFFEFC0
1FFFCFC0
0FFF8FC0
07FF0FC0
01FC0000
ENDCHAR
STARTCHAR 016A
ENCODING 362
SWIDTH 683 0
DWIDTH 41 0
BBX 31 54 5 -1
BITMAP
01FFFF00
01FFFF00
01FFFF00
01FFFF00
01FFFF00
00000000
00000000
00000000
00000000
00000000
00000000
FE00007E
FE00007E
FE00007E
FE00007E
FE00007E
FE00007E
FE00007E
FE00007E
FE00007E
FE00007E
FE00007E
FE00007E
FE00007E
FE00007E
FE00007E
FE00007E
FE00007E
FE00007E
FE00007E
FE00007E
FE00007E
FE00007E
FE00007E
FE00007E
FE00007E
FE00007E
FE00007E
FE00007E
FE0000FE
FE0000FE
FE0000FE
FE0000FE
7F0000FE
7F0001FC
7F8003FC
3FC007FC
3FF01FF8
1FFFFFF8
1FFFFFF0
0FFFFFE0
03FFFFC0
01FFFF00
003FF800
ENDCHAR
STARTCHAR 016B
ENCODING 363
SWIDTH 583 0
DWIDTH 35 0
BBX 26 44 4 -1
BITMAP
07FFFC00
07FFFC00
07FFFC00
07FFFC00
07FFFC00
00000000
00000000
00000000
00000000
00000000
00000000
00000000
FE000FC0
FE000FC0
FE000FC0
FE000FC0
FE000FC0
FE000FC0
FE000FC0
FE000FC0
FE000FC0
FE000FC0
FE000FC0
FE000FC0
FE000FC0
FE000FC0
FE000FC0
FE000FC0
FE000FC0
FE000FC0
FE000FC0
FE000FC0
FE000FC0
FE001FC0
7F001FC0
7F001FC0
7F803FC0
7FC0FFC0
3FFFEFC0
3FFFEFC0
1FFFCFC0
0FFF8FC0
07FF0FC0
01FC0000
ENDCHAR
STARTCHAR 016C
ENCODING 364
SWIDTH 683 0
DWIDTH 41 0
BBX 31 57 5 -1
BITMAP
00800200
03C00780
07C007C0
03E00F80
03F01F80
01F83F00
01FFFF00
00FFFE00
007FFC00
003FF800
000FE000
00000000
00000000
00000000
FE00007E
FE00007E
FE00007E
FE00007E
FE00007E
FE00007E
FE00007E
FE00007E
FE00007E
FE00007E
FE00007E
FE00007E
FE00007E
FE00007E
FE00007E
FE00007E
FE00007E
FE00007E
FE00007E
FE00007E
FE00007E
FE00007E
FE00007E
FE00007E
FE00007E
FE00007E
FE00007E
FE00007E
FE0000FE
FE0000FE
FE0000FE
FE0000FE
7F0000FE
7F0001FC
7F8003FC
3FC007FC
3FF01FF8
1FFFFFF8
1FFFFFF0
0FFFFFE0
03FFFFC0
01FFFF00
003FF800
ENDCHAR
STARTCHAR 016D
ENCODING 365
SWIDTH 583 0
DWIDTH 35 0
BBX 26 47 4 -1
BITMAP
02001800
0F001E00
1F003E00
0F803E00
0FC07C00
07E0FC00
07FFF800
03FFF800
01FFF000
00FFE000
003F8000
00000000
00000000
00000000
00000000
FE000FC0
FE000FC0
FE000FC0
FE000FC0
FE000FC0
FE000FC0
FE000FC0
FE000FC0
FE000FC0
FE000FC0
FE000FC0
FE000FC0
FE000FC0
FE000FC0
FE000FC0
FE000FC0
FE000FC0
FE000FC0
FE000FC0
FE000FC0
FE000FC0
FE001FC0
7F001FC0
7F001FC0
7F803FC0
7FC0FFC0
3FFFEFC0
3FFFEFC0
1FFFCFC0
0FFF8FC0
07FF0FC0
01FC0000
ENDCHAR
STARTCHAR 016E
ENCODING 366
SWIDTH 683 0
DWIDTH 41 0
BBX 31 61 5 -1
BITMAP
0007C000
001FF000
003FF800
007FFC00
00FC3E00
00F83E00
00F01E00
00F01E00
00F01E00
00F01E00
00F83E00
00FC3E00
007FFC00
003FF800
001FF000
0007C000
00000000
00000000
FE00007E
FE00007E
FE00007E
FE00007E
FE00007E
FE00007E
FE00007E
FE00007E
FE00007E
FE00007E
FE00007E
FE00007E
FE00007E
FE00007E
FE00007E
FE00007E
FE00007E
FE00007E
FE00007E
FE00007E
FE00007E
FE00007E
FE00007E
FE00007E
FE00007E
FE00007E
FE00007E
FE00007E
FE0000FE
FE0000FE
FE0000FE
FE0000FE
7F0000FE
7F0001FC
7F8003FC
3FC007FC
3FF01FF8
1FFFFFF8
1FFFFFF0
0FFFFFE0
03FFFFC0
01FFFF00
003FF800
ENDCHAR
STARTCHAR 016F
ENCODING 367
SWIDTH 583 0
DWIDTH 35 0
BBX 26 51 4 -1
BITMAP
001F0000
007FC000
00FFE000
01FFF000
03E1F000
03C0F800
03C07800
03C07800
03C07800
03C07800
03C0F800
03E1F000
01FFF000
00FFE000
007FC000
003F0000
00000000
00000000
00000000
FE000FC0
FE000FC0
FE000FC0
FE000FC0
FE000FC0
FE000FC0
FE000FC0
FE000FC0
FE000FC0
FE000FC0
FE000FC0
FE000FC0
FE000FC0
FE000FC0
FE000FC0
FE000FC0
FE000FC0
FE000FC0
FE000FC0
FE000FC0
FE000FC0
FE001FC0
7F001FC0
7F001FC0
7F803FC0
7FC0FFC0
3FFFEFC0
3FFFEFC0
1FFFCFC0
0FFF8FC0
07FF0FC0
01FC0000
ENDCHAR
STARTCHAR 0170
ENCODING 368
SWIDTH 683 0
DWIDTH 41 0
BBX 31 59 5 -1
BITMAP
00080300
000E01C0
001F83F0
001FC3F8
003F87F0
003F07E0
007E0FC0
007E0F80
00FC1F80
00F81F00
01F83E00
00F03E00
00200C00
00000000
00000000
00000000
FE00007E
FE00007E
FE00007E
FE00007E
FE00007E
FE00007E
FE00007E
FE00007E
FE00007E
FE00007E
FE00007E
FE00007E
FE00007E
FE00007E
FE00007E
FE00007E
FE00007E
FE00007E
FE00007E
FE00007E
FE00007E
FE00007E
FE00007E
FE00007E
FE00007E
FE00007E
FE00007E
FE00007E
FE0000FE
FE0000FE
FE0000FE
FE0000FE
7F0000FE
7F0001FC
7F8003FC
3FC007FC
3FF01FF8
1FFFFFF8
1FFFFFF0
0FFFFFE0
03FFFFC0
01FFFF00
003FF800
ENDCHAR
STARTCHAR 0171
ENCODING 369
SWIDTH 583 0
DWIDTH 35 0
BBX 26 49 4 -1
BITMAP
00400800
00380E00
007E0F80
007F1FC0
00FE1F80
00FC3F80
01F83F00
01F07E00
03F07C00
03E0FC00
07C0F800
07C0F000
01803000
00000000
00000000
00000000
00000000
FE000FC0
FE000FC0
FE000FC0
FE000FC0
FE000FC0
FE000FC0
FE000FC0
FE000FC0
FE000FC0
FE000FC0
FE000FC0
FE000FC0
FE000FC0
FE000FC0
FE000FC0
FE000FC0
FE000FC0
FE000FC0
FE000FC0
FE000FC0
FE000FC0
FE001FC0
7F001FC0
7F001FC0
7F803FC0
7FC0FFC0
3FFFEFC0
3FFFEFC0
1FFFCFC0
0FFF8FC0
07FF0FC0
01FC0000
ENDCHAR
STARTCHAR 0172
ENCODING 370
SWIDTH 683 0
DWIDTH 41 0
BBX 31 55 5 -13
BITMAP
FE00007E
FE00007E
FE00007E
FE00007E
FE00007E
FE00007E
FE00007E
FE00007E
FE00007E
FE00007E
FE00007E
FE00007E
FE00007E
FE00007E
FE00007E
FE00007E
FE00007E
FE00007E
FE00007E
FE00007E
FE00007E
FE00007E
FE00007E
FE00007E
FE00007E
FE00007E
FE00007E
FE00007E
FE0000FE
FE0000FE
FE0000FE
FE0000FE
7F0000FE
7F0001FC
7F8003FC
3FC007FC
3FF01FF8
1FFFFFF8
1FFFFFF0
0FFFFFE0
07FFFFC0
01FFFF80
003FF700
00001E00
00003C00
0000F800
0001F000
0001E000
0003E000
0003E100
0003E380
0003FFC0
0003FFC0
0001FF80
00007F00
ENDCHAR
STARTCHAR 0173
ENCODING 371
SWIDTH 583 0
DWIDTH 35 0
BBX 28 44 4 -13
BITMAP
FE000FC0
FE000FC0
FE000FC0
FE000FC0
FE000FC0
FE000FC0
FE000FC0
FE000FC0
FE000FC0
FE000FC0
FE000FC0
FE000FC0
FE000FC0
FE000FC0
FE000FC0
FE000FC0
FE000FC0
FE000FC0
FE000FC0
FE000FC0
FE000FC0
FE001FC0
7F001FC0
7F001FC0
7F803FC0
7FC0FFC0
3FFFEFC0
3FFFEFC0
1FFFCFC0
0FFF8FC0
07FF0FC0
01FC07C0
00000F00
00003E00
00007C00
0000F800
0000F000
0001F000
0001F080
0001F1C0
0001FFE0
0000FFF0
0000FFC0
00003F80
ENDCHAR
STARTCHAR 0174
ENCODING 372
SWIDTH 933 0
DWIDTH 56 0
BBX 53 57 1 0
BITMAP
000001FE000000
000003FE000000
000003FF000000
000007FF800000
00000FFFC00000
00001FDFC00000
00001F8FE00000
00003F07F00000
00007E03F80000
0000FC01F80000
00003800F00000
00001000600000
00000000000000
00000000000000
00000000000000
FE0001FE0003F8
7F0001FE0003F8
7F0003FE0003F8
7F0003FE0003F0
7F0003FF0007F0
3F8003FF0007F0
3F8007FF0007F0
3F8007FF0007E0
3F8007DF8007E0
1F8007DF800FE0
1FC00FDF800FE0
1FC00FCF800FC0
1FC00F8FC00FC0
0FC00F8FC00FC0
0FC01F8FC01FC0
0FE01F87C01F80
0FE01F07E01F80
07E01F07E01F80
07E03F07E03F80
07E03F03E03F00
07F03E03F03F00
03F03E03F03F00
03F03E03F03F00
03F07E01F07E00
03F87C01F87E00
03F87C01F87E00
01F87C01F87E00
01F8FC00F8FC00
01F8F800FCFC00
01FCF800FCFC00
00FCF800FCFC00
00FDF8007CF800
00FDF0007DF800
00FDF0007FF800
007FF0007FF800
007FF0003FF000
007FE0003FF000
007FE0003FF000
003FE0003FF000
003FE0001FE000
003FC0001FE000
003FC0001FE000
ENDCHAR
STARTCHAR 0175
ENCODING 373
SWIDTH 800 0
DWIDTH 48 0
BBX 44 47 2 0
BITMAP
00003FC00000
00003FC00000
00007FE00000
0000FFF00000
0001FFF80000
0003FBFC0000
0003F0FC0000
0007E07E0000
000FC03F0000
001F801F8000
0007000E0000
000200040000
000000000000
000000000000
000000000000
000000000000
FC001F8003F0
FC001F8003F0
FE003FC003F0
7E003FC007E0
7E003FC007E0
7E003FE007E0
7F007FE007E0
3F007FE00FC0
3F007FF00FC0
3F00FFF00FC0
3F00F9F00FC0
1F80F9F01F80
1F81F9F81F80
1F81F0F81F80
0F81F0F81F00
0FC1F0FC3F00
0FC3F0FC3F00
0FC3E07C3F00
07C3E07C3E00
07E3E07E3E00
07E7C03E7E00
07E7C03E7E00
03E7C03F7C00
03FFC03F7C00
03FF801FFC00
01FF801FF800
01FF801FF800
01FF000FF800
01FF000FF800
00FF000FF000
00FE000FF000
ENDCHAR
STARTCHAR 0176
ENCODING 374
SWIDTH 616 0
DWIDTH 37 0
BBX 35 57 1 0
BITMAP
0003F80000
0007FC0000
000FFE0000
000FFF0000
001FFF0000
003FBF8000
007F1FC000
00FE0FE000
00FC07E000
01F803F000
00F001E000
0020008000
0000000000
0000000000
0000000000
FF00000FE0
FF00001FE0
7F80001FC0
3F80003F80
3FC0003F80
1FC0007F00
1FE000FF00
0FE000FE00
0FF001FE00
07F001FC00
03F803F800
03FC03F800
01FC07F000
01FE07F000
00FE0FE000
00FF0FE000
007F1FC000
007F9F8000
003FBF8000
001FFF0000
001FFF0000
000FFE0000
000FFE0000
0007FC0000
0007F80000
0003F80000
0003F80000
0003F80000
0003F80000
0003F80000
0003F80000
0003F80000
0003F80000
0003F80000
0003F80000
0003F80000
0003F80000
0003F80000
0003F80000
0003F80000
0003F80000
0003F80000
ENDCHAR
STARTCHAR 0177
ENCODING 375
SWIDTH 516 0
DWIDTH 31 0
BBX 29 59 1 -12
BITMAP
001FC000
003FE000
007FF000
007FF800
00FFF800
01FDFC00
03F8FE00
07F07F00
07E03F00
0FC01F80
03800F00
01000400
00000000
00000000
00000000
00000000
FC0001F8
FE0003F8
7E0003F0
7E0003F0
7F0007F0
3F0007E0
3F8007E0
3F800FC0
1F800FC0
1FC01FC0
1FC01F80
0FC01F80
0FE03F80
07E03F00
07E03F00
07F07F00
03F07E00
03F07E00
03F8FE00
01F8FC00
01F8FC00
01FDFC00
00FDF800
00FDF800
00FFF000
007FF000
007FF000
003FE000
003FE000
003FE000
001FC000
001FC000
001FC000
003F8000
003F8000
003F8000
007F0000
0FFF0000
0FFE0000
0FFE0000
0FFC0000
0FF80000
0FF00000
ENDCHAR
STARTCHAR 0178
ENCODING 376
SWIDTH 616 0
DWIDTH 37 0
BBX 35 55 1 0
BITMAP
007C07C000
00FE0FE000
00FE0FE000
00FE0FE000
00FE0FE000
00FE0FE000
00FE0FE000
007C07C000
0000000000
0000000000
0000000000
0000000000
0000000000
FF00000FE0
FF00001FE0
7F80001FC0
3F80003F80
3FC0003F80
1FC0007F00
1FE000FF00
0FE000FE00
0FF001FE00
07F001FC00
03F803F800
03FC03F800
01FC07F000
01FE07F000
00FE0FE000
00FF0FE000
007F1FC000
007F9F8000
003FBF8000
001FFF0000
001FFF0000
000FFE0000
000FFE0000
0007FC0000
0007F80000
0003F80000
0003F80000
0003F80000
0003F80000
0003F80000
0003F80000
0003F80000
0003F80000
0003F80000
0003F80000
0003F80000
0003F80000
0003F80000
0003F80000
0003F80000
0003F80000
0003F80000
ENDCHAR
STARTCHAR 0179
ENCODING 377
SWIDTH 583 0
DWIDTH 35 0
BBX 31 58 2 0
BITMAP
00002000
00007800
00007E00
0000FF00
0000FE00
0001FC00
0001F800
0003F800
0003F000
0007E000
0007C000
0007C000
00008000
00000000
00000000
00000000
7FFFFFFE
7FFFFFFE
7FFFFFFE
7FFFFFFE
7FFFFFFE
7FFFFFFE
000001FC
000003FC
000007F8
00000FF0
00000FE0
00001FC0
00003FC0
00007F80
0000FF00
0000FE00
0001FE00
0003FC00
0007F800
0007F000
000FF000
001FE000
003FC000
003F8000
007F8000
00FF0000
01FE0000
01FC0000
03FC0000
07F80000
0FF00000
0FE00000
1FE00000
3FC00000
7F800000
7F000000
FFFFFFFE
FFFFFFFE
FFFFFFFE
FFFFFFFE
FFFFFFFE
FFFFFFFE
ENDCHAR
STARTCHAR 017A
ENCODING 378
SWIDTH 483 0
DWIDTH 29 0
BBX 25 48 2 0
BITMAP
00020000
00038000
0003E000
0007F000
0007E000
000FE000
000FC000
001F8000
001F8000
003F0000
003E0000
007C0000
000C0000
00000000
00000000
00000000
00000000
7FFFFF80
7FFFFF80
7FFFFF80
7FFFFF80
7FFFFF80
7FFFFF80
0000FF00
0000FE00
0001FC00
0003F800
0007F000
000FF000
001FE000
003FC000
007F8000
007F0000
00FE0000
01FC0000
03F80000
07F80000
0FF00000
1FE00000
3FC00000
3F800000
7F000000
FFFFFF80
FFFFFF80
FFFFFF80
FFFFFF80
FFFFFF80
FFFFFF80
ENDCHAR
STARTCHAR 017B
ENCODING 379
SWIDTH 583 0
DWIDTH 35 0
BBX 31 54 2 0
BITMAP
0007E000
000FF000
000FF000
000FF000
000FF000
000FF000
000FF000
0007E000
00000000
00000000
00000000
00000000
7FFFFFFE
7FFFFFFE
7FFFFFFE
7FFFFFFE
7FFFFFFE
7FFFFFFE
000001FC
000003FC
000007F8
00000FF0
00000FE0
00001FC0
00003FC0
00007F80
0000FF00
0000FE00
0001FE00
0003FC00
0007F800
0007F000
000FF000
001FE000
003FC000
003F8000
007F8000
00FF0000
01FE0000
01FC0000
03FC0000
07F80000
0FF00000
0FE00000
1FE00000
3FC00000
7F800000
7F000000
FFFFFFFE
FFFFFFFE
FFFFFFFE
FFFFFFFE
FFFFFFFE
FFFFFFFE
ENDCHAR
STARTCHAR 017C
ENCODING 380
SWIDTH 483 0
DWIDTH 29 0
BBX 25 44 2 0
BITMAP
003E0000
007F0000
007F8000
007F8000
007F8000
007F8000
007F0000
003E0000
00000000
00000000
00000000
00000000
00000000
7FFFFF80
7FFFFF80
7FFFFF80
7FFFFF80
7FFFFF80
7FFFFF80
0000FF00
0000FE00
0001FC00
0003F800
0007F000
000FF000
001FE000
003FC000
007F8000
007F0000
00FE0000
01FC0000
03F80000
07F80000
0FF00000
1FE00000
3FC00000
3F800000
7F000000
FFFFFF80
FFFFFF80
FFFFFF80
FFFFFF80
FFFFFF80
FFFFFF80
ENDCHAR
STARTCHAR 017D
ENCODING 381
SWIDTH 583 0
DWIDTH 35 0
BBX 31 58 2 0
BITMAP
00800100
01C00380
03E007C0
07F00FE0
01F81F80
00FC3F00
00FF7F00
007FFE00
003FFC00
001FF800
000FF000
000FF000
00000000
00000000
00000000
00000000
7FFFFFFE
7FFFFFFE
7FFFFFFE
7FFFFFFE
7FFFFFFE
7FFFFFFE
000001FC
000003FC
000007F8
00000FF0
00000FE0
00001FC0
00003FC0
00007F80
0000FF00
0000FE00
0001FE00
0003FC00
0007F800
0007F000
000FF000
001FE000
003FC000
003F8000
007F8000
00FF0000
01FE0000
01FC0000
03FC0000
07F80000
0FF00000
0FE00000
1FE00000
3FC00000
7F800000
7F000000
FFFFFFFE
FFFFFFFE
FFFFFFFE
FFFFFFFE
FFFFFFFE
FFFFFFFE
ENDCHAR
STARTCHAR 017E
ENCODING 382
SWIDTH 483 0
DWIDTH 29 0
BBX 25 48 2 0
BITMAP
04001000
0E003C00
3F007E00
1F80FE00
0FC1FC00
0FE3F800
07F7F000
03FFE000
01FFE000
01FFC000
00FF8000
007F0000
00000000
00000000
00000000
00000000
00000000
7FFFFF80
7FFFFF80
7FFFFF80
7FFFFF80
7FFFFF80
7FFFFF80
0000FF00
0000FE00
0001FC00
0003F800
0007F000
000FF000
001FE000
003FC000
007F8000
007F0000
00FE0000
01FC0000
03F80000
07F80000
0FF00000
1FE00000
3FC00000
3F800000
7F000000
FFFFFF80
FFFFFF80
FFFFFF80
FFFFFF80
FFFFFF80
FFFFFF80
ENDCHAR
STARTCHAR 017F
ENCODING 383
SWIDTH 300 0
DWIDTH 18 0
BBX 17 44 2 0
BITMAP
007F80
01FF80
03FF80
07FF80
07FF80
07FF80
0FE000
0FE000
0FE000
0FE000
0FE000
0FE000
0FE000
FFE000
FFE000
FFE000
FFE000
FFE000
FFE000
0FE000
0FE000
0FE000
0FE000
0FE000
0FE000
0FE000
0FE000
0FE000
0FE000
0FE000
0FE000
0FE000
0FE000
0FE000
0FE000
0FE000
0FE000
0FE000
0FE000
0FE000
0FE000
0FE000
0FE000
0FE000
ENDCHAR
STARTCHAR 018F
ENCODING 399
SWIDTH 716 0
DWIDTH 43 0
BBX 36 44 3 -1
BITMAP
0003FE0000
001FFFC000
007FFFF000
00FFFFF800
03FFFFFC00
07FFFFFE00
07FE03FF00
0FF000FF80
1FE0007F80
1FC0003FC0
3FC0001FC0
3F80000FE0
0700000FE0
0100000FE0
00000007F0
00000007F0
00000007F0
00000007F0
00000007F0
00000007F0
FFFFFFFFF0
FFFFFFFFF0
FFFFFFFFF0
FFFFFFFFF0
FFFFFFFFF0
FFFFFFFFF0
7E000007F0
7F000007F0
7F000007F0
7F000007F0
7F00000FE0
3F80000FE0
3F80000FE0
3FC0001FC0
1FC0003FC0
1FE0007F80
0FF800FF80
0FFE03FF00
07FFFFFE00
03FFFFFC00
01FFFFF800
007FFFF000
001FFFC000
0003FE0000
ENDCHAR
STARTCHAR 0192
ENCODING 402
SWIDTH 483 0
DWIDTH 29 0
BBX 28 50 0 -8
BITMAP
00007FF0
0001FFF0
0003FFF0
0003FFF0
0007FFE0
0007FFE0
000FE000
000FE000
000FE000
000FE000
000FE000
000FC000
000FC000
000FC000
001FC000
001FC000
001FC000
001FC000
001FC000
1FFFFFE0
1FFFFFC0
1FFFFFC0
1FFFFFC0
1FFFFFC0
1FFFFFC0
003F8000
003F8000
003F8000
003F8000
003F8000
003F0000
003F0000
003F0000
003F0000
007F0000
007F0000
007F0000
007F0000
007F0000
007F0000
007E0000
007E0000
007E0000
00FE0000
FFFE0000
FFFC0000
FFFC0000
FFF80000
FFF00000
FFC00000
ENDCHAR
STARTCHAR 01A0
ENCODING 416
SWIDTH 716 0
DWIDTH 43 0
BBX 37 50 3 -1
BITMAP
00000001F8
00000001F8
00000001F8
00000001F8
00000001F8
00000001F8
0003FC01F8
001FFFFFF8
007FFFFFF8
01FFFFFFF0
03FFFFFFE0
07FFFFFE00
07FE03FF00
0FF800FF80
1FE0007F80
1FC0003FC0
3FC0001FC0
3F80000FE0
3F80000FE0
7F00000FE0
7F000007F0
7F000007F0
7F000007F0
7F000007F0
FF000007F0
FF000007F0
FF000007F0
FF000007F0
FF000007F0
FF000007F0
FF000007F0
FF000007F0
7F000007F0
7F000007F0
7F000007F0
7F000007F0
7F00000FE0
3F80000FE0
3F80000FE0
3FC0001FC0
1FC0003FC0
1FE0007F80
0FF800FF80
07FE03FF00
07FFFFFE00
03FFFFFC00
01FFFFF800
007FFFF000
001FFFC000
0003FE0000
ENDCHAR
STARTCHAR 01A1
ENCODING 417
SWIDTH 566 0
DWIDTH 34 0
BBX 29 39 3 -1
BITMAP
000001F8
000001F8
000001F8
000001F8
000001F8
000001F8
003F81F8
01FFFFF8
03FFFFF8
0FFFFFF0
1FFFFFE0
1FFFFF80
3FE07FC0
7F801FC0
7F000FE0
7E000FE0
FE0007E0
FE0007F0
FE0007F0
FC0007F0
FC0007F0
FC0007F0
FC0007F0
FC0007F0
FC0007F0
FC0007F0
FE0007F0
FE0007F0
FE0007E0
7E000FE0
7F000FE0
7F801FC0
3FE07FC0
1FFFFF80
1FFFFF00
0FFFFE00
03FFFC00
01FFF800
003FC000
ENDCHAR
STARTCHAR 01AF
ENCODING 431
SWIDTH 683 0
DWIDTH 41 0
BBX 35 50 5 -1
BITMAP
00000003E0
00000003E0
00000003E0
00000003E0
00000003E0
00000003E0
00000003E0
FE00007FE0
FE00007FE0
FE00007FE0
FE00007F80
FE00007E00
FE00007E00
FE00007E00
FE00007E00
FE00007E00
FE00007E00
FE00007E00
FE00007E00
FE00007E00
FE00007E00
FE00007E00
FE00007E00
FE00007E00
FE00007E00
FE00007E00
FE00007E00
FE00007E00
FE00007E00
FE00007E00
FE00007E00
FE00007E00
FE00007E00
FE00007E00
FE00007E00
FE0000FE00
FE0000FE00
FE0000FE00
FE0000FE00
7F0000FE00
7F0001FC00
7F8003FC00
3FC007FC00
3FF01FF800
1FFFFFF800
1FFFFFF000
0FFFFFE000
03FFFFC000
01FFFF0000
003FF80000
ENDCHAR
STARTCHAR 01B0
ENCODING 432
SWIDTH 583 0
DWIDTH 35 0
BBX 31 39 4 -1
BITMAP
0000007E
0000007E
0000007E
0000007E
0000007E
0000007E
0000007E
FE000FFE
FE000FFC
FE000FFC
FE000FF8
FE000FC0
FE000FC0
FE000FC0
FE000FC0
FE000FC0
FE000FC0
FE000FC0
FE000FC0
FE000FC0
FE000FC0
FE000FC0
FE000FC0
FE000FC0
FE000FC0
FE000FC0
FE000FC0
FE000FC0
FE001FC0
7F001FC0
7F001FC0
7F803FC0
7FC0FFC0
3FFFEFC0
3FFFEFC0
1FFFCFC0
0FFF8FC0
07FF0FC0
01FC0000
ENDCHAR
STARTCHAR 01CD
ENCODING 461
SWIDTH 666 0
DWIDTH 40 0
BBX 37 58 1 0
BITMAP
0010006000
003800F000
00FC01F800
007E03F800
003F07F000
003F8FE000
001FDFC000
000FFFC000
0007FF8000
0003FF0000
0003FE0000
0001FC0000
0000000000
0000000000
0000000000
0000000000
0003FE0000
0003FF0000
0003FF0000
0007FF0000
0007FF8000
0007FF8000
000FDF8000
000FDFC000
000FCFC000
001FCFC000
001F8FE000
001F87E000
003F87E000
003F07F000
003F07F000
007F03F000
007E03F800
007E03F800
00FE01F800
00FC01FC00
00FC01FC00
01FC00FC00
01F800FE00
01F800FE00
03F8007E00
03FFFFFF00
03FFFFFF00
07FFFFFF00
07FFFFFF80
07FFFFFF80
0FFFFFFF80
0FE0001FC0
0FC0001FC0
1FC0001FE0
1FC0000FE0
1F80000FE0
3F80000FF0
3F800007F0
7F000007F0
7F000007F8
7F000003F8
FE000003F8
ENDCHAR
STARTCHAR 01CE
ENCODING 462
SWIDTH 550 0
DWIDTH 33 0
BBX 29 49 2 -1
BITMAP
02000800
07001E00
1F803F00
0FC07E00
07E0FE00
07F1FC00
03FBF800
01FFF000
00FFF000
00FFE000
007FC000
003F8000
00000000
00000000
00000000
00000000
007FC000
03FFF800
07FFFC00
0FFFFE00
1FFFFF00
3FFFFF80
3FC0FF80
1F003FC0
0E001FC0
04001FC0
00001FC0
00001FC0
00001FC0
00001FC0
007FFFC0
07FFFFC0
0FFFFFC0
3FFFFFC0
3FC01FC0
7F001FC0
7E001FC0
7E001FC0
FE001FC0
FE001FC0
FE001FC0
7F003FC0
7F80EFF8
7FFFEFF8
3FFFEFF8
3FFFC7F8
1FFF83F8
0FFF01F8
01FC0000
ENDCHAR
STARTCHAR 01CF
ENCODING 463
SWIDTH 416 0
DWIDTH 25 0
BBX 21 58 2 0
BITMAP
100040
7800F0
FC01F8
7E03F0
7F07F0
3F8FE0
1FDFC0
0FFF80
0FFF00
07FF00
03FE00
01FC00
000000
000000
000000
000000
7FFFF0
7FFFF0
7FFFF0
7FFFF0
7FFFF0
7FFFF0
01FC00
01FC00
01FC00
01FC00
01FC00
01FC00
01FC00
01FC00
01FC00
01FC00
01FC00
01FC00
01FC00
01FC00
01FC00
01FC00
01FC00
01FC00
01FC00
01FC00
01FC00
01FC00
01FC00
01FC00
01FC00
01FC00
01FC00
01FC00
01FC00
01FC00
7FFFF0
7FFFF0
7FFFF0
7FFFF0
7FFFF0
7FFFF0
ENDCHAR
STARTCHAR 01D0
ENCODING 464
SWIDTH 266 0
DWIDTH 16 0
BBX 21 48 -2 0
BITMAP
200040
7000E0
F801F0
FC03F8
7F07E0
3F8FC0
1FDFC0
1FFF80
0FFF00
07FE00
03FE00
03FC00
000000
000000
000000
000000
000000
01F800
01F800
01F800
01F800
01F800
01F800
01F800
01F800
01F800
01F800
01F800
01F800
01F800
01F800
01F800
01F800
01F800
01F800
01F800
01F800
01F800
01F800
01F800
01F800
01F800
01F800
01F800
01F800
01F800
01F800
01F800
ENDCHAR
STARTCHAR 01D1
ENCODING 465
SWIDTH 716 0
DWIDTH 43 0
BBX 36 59 3 -1
BITMAP
0030004000
007800E000
00FC01F800
00FE03F000
007F07E000
003F8FE000
001FDFC000
000FFF8000
000FFF0000
0007FF0000
0003FE0000
0001FC0000
0000000000
0000000000
0000000000
0003FE0000
001FFFC000
007FFFF000
01FFFFF800
03FFFFFC00
07FFFFFE00
07FE03FF00
0FF800FF80
1FE0007F80
1FC0003FC0
3FC0001FC0
3F80000FE0
3F80000FE0
7F00000FE0
7F000007F0
7F000007F0
7F000007F0
7F000007F0
FF000007F0
FF000007F0
FF000007F0
FF000007F0
FF000007F0
FF000007F0
FF000007F0
FF000007F0
7F000007F0
7F000007F0
7F000007F0
7F000007F0
7F00000FE0
3F80000FE0
3F80000FE0
3FC0001FC0
1FC0003FC0
1FE0007F80
0FF800FF80
07FE03FF00
07FFFFFE00
03FFFFFC00
01FFFFF800
007FFFF000
001FFFC000
0003FE0000
ENDCHAR
STARTCHAR 01D2
ENCODING 466
SWIDTH 566 0
DWIDTH 34 0
BBX 28 49 3 -1
BITMAP
02000C00
07001E00
0F803F00
1FC07F00
07E0FE00
03F1FC00
03FBF800
01FFF800
00FFF000
007FE000
007FC000
003FC000
00000000
00000000
00000000
00000000
003FC000
01FFF800
03FFFC00
0FFFFE00
1FFFFF00
1FFFFF80
3FE07FC0
7F801FC0
7F000FE0
7E000FE0
FE0007E0
FE0007F0
FE0007F0
FC0007F0
FC0007F0
FC0007F0
FC0007F0
FC0007F0
FC0007F0
FC0007F0
FE0007F0
FE0007F0
FE0007E0
7E000FE0
7F000FE0
7F801FC0
3FE07FC0
1FFFFF80
1FFFFF00
0FFFFE00
03FFFC00
01FFF800
003FC000
ENDCHAR
STARTCHAR 01D3
ENCODING 467
SWIDTH 683 0
DWIDTH 41 0
BBX 31 59 5 -1
BITMAP
00800200
03C00780
07E00FC0
03F01F80
03F83F80
01FC7F00
00FEFE00
007FFC00
007FF800
003FF800
001FF000
000FE000
00000000
00000000
00000000
00000000
FE00007E
FE00007E
FE00007E
FE00007E
FE00007E
FE00007E
FE00007E
FE00007E
FE00007E
FE00007E
FE00007E
FE00007E
FE00007E
FE00007E
FE00007E
FE00007E
FE00007E
FE00007E
FE00007E
FE00007E
FE00007E
FE00007E
FE00007E
FE00007E
FE00007E
FE00007E
FE00007E
FE00007E
FE0000FE
FE0000FE
FE0000FE
FE0000FE
7F0000FE
7F0001FC
7F8003FC
3FC007FC
3FF01FF8
1FFFFFF8
1FFFFFF0
0FFFFFE0
03FFFFC0
01FFFF00
003FF800
ENDCHAR
STARTCHAR 01D4
ENCODING 468
SWIDTH 583 0
DWIDTH 35 0
BBX 26 49 4 -1
BITMAP
02000800
0F001C00
1F803F00
0FC07E00
0FE0FC00
07F1FC00
03FBF800
01FFF000
01FFE000
00FFE000
007FC000
003F8000
00000000
00000000
00000000
00000000
00000000
FE000FC0
FE000FC0
FE000FC0
FE000FC0
FE000FC0
FE000FC0
FE000FC0
FE000FC0
FE000FC0
FE000FC0
FE000FC0
FE000FC0
FE000FC0
FE000FC0
FE000FC0
FE000FC0
FE000FC0
FE000FC0
FE000FC0
FE000FC0
FE000FC0
FE001FC0
7F001FC0
7F001FC0
7F803FC0
7FC0FFC0
3FFFEFC0
3FFFEFC0
1FFFCFC0
0FFF8FC0
07FF0FC0
01FC0000
ENDCHAR
STARTCHAR 01D5
ENCODING 469
SWIDTH 683 0
DWIDTH 41 0
BBX 31 63 5 -1
BITMAP
01FFFF00
01FFFF00
01FFFF00
01FFFF00
01FFFF00
00000000
00000000
00000000
01F01F00
03F03F80
03F83F80
07F83F80
07F83F80
03F83F80
03F83F80
01E01F00
00000000
00000000
00000000
00000000
FE00007E
FE00007E
FE00007E
FE00007E
FE00007E
FE00007E
FE00007E
FE00007E
FE00007E
FE00007E
FE00007E
FE00007E
FE00007E
FE00007E
FE00007E
FE00007E
FE00007E
FE00007E
FE00007E
FE00007E
FE00007E
FE00007E
FE00007E
FE00007E
FE00007E
FE00007E
FE00007E
FE00007E
FE0000FE
FE0000FE
FE0000FE
FE0000FE
7F0000FE
7F0001FC
7F8003FC
3FC007FC
3FF01FF8
1FFFFFF8
1FFFFFF0
0FFFFFE0
03FFFFC0
01FFFF00
003FF800
ENDCHAR
STARTCHAR 01D6
ENCODING 470
SWIDTH 583 0
DWIDTH 35 0
BBX 26 52 4 -1
BITMAP
07FFFC00
07FFFC00
07FFFC00
07FFFC00
07FFFC00
00000000
00000000
00000000
07807C00
0FC0FE00
1FE0FE00
1FE0FE00
1FE0FE00
0FC0FE00
07807C00
00000000
00000000
00000000
00000000
00000000
FE000FC0
FE000FC0
FE000FC0
FE000FC0
FE000FC0
FE000FC0
FE000FC0
FE000FC0
FE000FC0
FE000FC0
FE000FC0
FE000FC0
FE000FC0
FE000FC0
FE000FC0
FE000FC0
FE000FC0
FE000FC0
FE000FC0
FE000FC0
FE000FC0
FE001FC0
7F001FC0
7F001FC0
7F803FC0
7FC0FFC0
3FFFEFC0
3FFFEFC0
1FFFCFC0
0FFF8FC0
07FF0FC0
01FC0000
ENDCHAR
STARTCHAR 01D7
ENCODING 471
SWIDTH 683 0
DWIDTH 41 0
BBX 31 68 5 -1
BITMAP
00004000
00007800
00007C00
0000FE00
0000FC00
0001F800
0001F800
0003F000
0003E000
0007C000
0007C000
000F8000
00010000
01F01F00
03F03F80
03F83F80
07F83F80
07F83F80
03F83F80
03F83F80
01E01F00
00000000
00000000
00000000
00000000
FE00007E
FE00007E
FE00007E
FE00007E
FE00007E
FE00007E
FE00007E
FE00007E
FE00007E
FE00007E
FE00007E
FE00007E
FE00007E
FE00007E
FE00007E
FE00007E
FE00007E
FE00007E
FE00007E
FE00007E
FE00007E
FE00007E
FE00007E
FE00007E
FE00007E
FE00007E
FE00007E
FE00007E
FE0000FE
FE0000FE
FE0000FE
FE0000FE
7F0000FE
7F0001FC
7F8003FC
3FC007FC
3FF01FF8
1FFFFFF8
1FFFFFF0
0FFFFFE0
03FFFFC0
01FFFF00
003FF800
ENDCHAR
STARTCHAR 01D8
ENCODING 472
SWIDTH 583 0
DWIDTH 35 0
BBX 26 57 4 -1
BITMAP
00010000
0001C000
0001F000
0003F800
0007F000
0007E000
000FC000
000FC000
001F8000
001F0000
003F0000
001E0000
00040000
07807C00
0FC0FE00
1FE0FE00
1FE0FE00
1FE0FE00
0FC0FE00
07807C00
00000000
00000000
00000000
00000000
00000000
FE000FC0
FE000FC0
FE000FC0
FE000FC0
FE000FC0
FE000FC0
FE000FC0
FE000FC0
FE000FC0
FE000FC0
FE000FC0
FE000FC0
FE000FC0
FE000FC0
FE000FC0
FE000FC0
FE000FC0
FE000FC0
FE000FC0
FE000FC0
FE000FC0
FE001FC0
7F001FC0
7F001FC0
7F803FC0
7FC0FFC0
3FFFEFC0
3FFFEFC0
1FFFCFC0
0FFF8FC0
07FF0FC0
01FC0000
ENDCHAR
STARTCHAR 01D9
ENCODING 473
SWIDTH 683 0
DWIDTH 41 0
BBX 31 68 5 -1
BITMAP
00800200
01C00700
07E00F80
07F01FC0
03F83F80
01FC7F00
00FEFE00
007FFC00
003FF800
003FF000
001FF000
000FE000
00000000
01F01F00
03F03F80
03F83F80
07F83F80
07F83F80
03F83F80
03F83F80
01E01F00
00000000
00000000
00000000
00000000
FE00007E
FE00007E
FE00007E
FE00007E
FE00007E
FE00007E
FE00007E
FE00007E
FE00007E
FE00007E
FE00007E
FE00007E
FE00007E
FE00007E
FE00007E
FE00007E
FE00007E
FE00007E
FE00007E
FE00007E
FE00007E
FE00007E
FE00007E
FE00007E
FE00007E
FE00007E
FE00007E
FE00007E
FE0000FE
FE0000FE
FE0000FE
FE0000FE
7F0000FE
7F0001FC
7F8003FC
3FC007FC
3FF01FF8
1FFFFFF8
1FFFFFF0
0FFFFFE0
03FFFFC0
01FFFF00
003FF800
ENDCHAR
STARTCHAR 01DA
ENCODING 474
SWIDTH 583 0
DWIDTH 35 0
BBX 26 57 4 -1
BITMAP
06000800
0F001C00
1F803E00
1FC07F00
0FE0FC00
07F1FC00
03FBF800
01FFF000
01FFE000
00FFC000
007F8000
003F8000
00000000
07807C00
0FC0FE00
1FE0FE00
1FE0FE00
1FE0FE00
0FC0FE00
07807C00
00000000
00000000
00000000
00000000
00000000
FE000FC0
FE000FC0
FE000FC0
FE000FC0
FE000FC0
FE000FC0
FE000FC0
FE000FC0
FE000FC0
FE000FC0
FE000FC0
FE000FC0
FE000FC0
FE000FC0
FE000FC0
FE000FC0
FE000FC0
FE000FC0
FE000FC0
FE000FC0
FE000FC0
FE001FC0
7F001FC0
7F001FC0
7F803FC0
7FC0FFC0
3FFFEFC0
3FFFEFC0
1FFFCFC0
0FFF8FC0
07FF0FC0
01FC0000
ENDCHAR
STARTCHAR 01DB
ENCODING 475
SWIDTH 683 0
DWIDTH 41 0
BBX 31 68 5 -1
BITMAP
00080000
003C0000
00FC0000
00FE0000
007E0000
003F0000
003F0000
001F8000
000F8000
000FC000
0007C000
0003A000
00020000
01F01F00
03F03F80
03F83F80
07F83F80
07F83F80
03F83F80
03F83F80
01E01F00
00000000
00000000
00000000
00000000
FE00007E
FE00007E
FE00007E
FE00007E
FE00007E
FE00007E
FE00007E
FE00007E
FE00007E
FE00007E
FE00007E
FE00007E
FE00007E
FE00007E
FE00007E
FE00007E
FE00007E
FE00007E
FE00007E
FE00007E
FE00007E
FE00007E
FE00007E
FE00007E
FE00007E
FE00007E
FE00007E
FE00007E
FE0000FE
FE0000FE
FE0000FE
FE0000FE
7F0000FE
7F0001FC
7F8003FC
3FC007FC
3FF01FF8
1FFFFFF8
1FFFFFF0
0FFFFFE0
03FFFFC0
01FFFF00
003FF800
ENDCHAR
STARTCHAR 01DC
ENCODING 476
SWIDTH 583 0
DWIDTH 35 0
BBX 26 57 4 -1
BITMAP
00200000
00F00000
03F00000
03F80000
01F80000
01FC0000
00FC0000
007E0000
003E0000
003F0000
001F0000
000E0000
00080000
07807C00
0FC0FE00
1FE0FE00
1FE0FE00
1FE0FE00
0FC0FE00
07807C00
00000000
00000000
00000000
00000000
00000000
FE000FC0
FE000FC0
FE000FC0
FE000FC0
FE000FC0
FE000FC0
FE000FC0
FE000FC0
FE000FC0
FE000FC0
FE000FC0
FE000FC0
FE000FC0
FE000FC0
FE000FC0
FE000FC0
FE000FC0
FE000FC0
FE000FC0
FE000FC0
FE000FC0
FE001FC0
7F001FC0
7F001FC0
7F803FC0
7FC0FFC0
3FFFEFC0
3FFFEFC0
1FFFCFC0
0FFF8FC0
07FF0FC0
01FC0000
ENDCHAR
STARTCHAR 01FA
ENCODING 506
SWIDTH 666 0
DWIDTH 40 0
BBX 37 69 1 0
BITMAP
0000060000
0000070000
00000FC000
00001FC000
00003F0000
00007E0000
0000FC0000
0000780000
0000300000
0000000000
0000FC0000
0003FF0000
0007FF8000
000FFFC000
001F87C000
001F03C000
001E03E000
001E03E000
001E03E000
001F03C000
001F87C000
000FFFC000
0007FF8000
0003FF0000
0000FC0000
0000000000
0000000000
0003FE0000
0003FF0000
0003FF0000
0007FF0000
0007FF8000
0007FF8000
000FDF8000
000FDFC000
000FCFC000
001FCFC000
001F8FE000
001F87E000
003F87E000
003F07F000
003F07F000
007F03F000
007E03F800
007E03F800
00FE01F800
00FC01FC00
00FC01FC00
01FC00FC00
01F800FE00
01F800FE00
03F8007E00
03FFFFFF00
03FFFFFF00
07FFFFFF00
07FFFFFF80
07FFFFFF80
0FFFFFFF80
0FE0001FC0
0FC0001FC0
1FC0001FE0
1FC0000FE0
1F80000FE0
3F80000FF0
3F800007F0
7F000007F0
7F000007F8
7F000003F8
FE000003F8
ENDCHAR
STARTCHAR 01FB
ENCODING 507
SWIDTH 550 0
DWIDTH 33 0
BBX 29 59 2 -1
BITMAP
0000C000
0001E000
0003F000
0003F800
0007E000
000FC000
001F8000
000F0000
00040000
00000000
001F8000
007FE000
01FFF000
01FFF000
03E0F800
03E07800
03C07800
03C07800
03C07800
03C07800
03E0F800
01FFF000
01FFF000
007FE000
003F8000
00000000
007FC000
03FFF800
07FFFC00
0FFFFE00
1FFFFF00
3FFFFF80
3FC0FF80
1F003FC0
0E001FC0
04001FC0
00001FC0
00001FC0
00001FC0
00001FC0
007FFFC0
07FFFFC0
0FFFFFC0
3FFFFFC0
3FC01FC0
7F001FC0
7E001FC0
7E001FC0
FE001FC0
FE001FC0
FE001FC0
7F003FC0
7F80EFF8
7FFFEFF8
3FFFEFF8
3FFFC7F8
1FFF83F8
0FFF01F8
01FC0000
ENDCHAR
STARTCHAR 01FC
ENCODING 508
SWIDTH 933 0
DWIDTH 56 0
BBX 52 58 0 0
BITMAP
00000000020000
00000000038000
0000000007E000
0000000007F000
000000000FE000
000000000FC000
000000001FC000
000000001F8000
000000003F0000
000000003E0000
000000007E0000
000000003C0000
00000000080000
00000000000000
00000000000000
00000000000000
000007FFFFFFF0
00000FFFFFFFF0
00000FFFFFFFF0
00001FFFFFFFF0
00001FFFFFFFF0
00003FFFFFFFF0
00003F3F000000
00007F3F000000
00007E3F000000
0000FE3F000000
0000FC3F000000
0001FC3F000000
0001F83F000000
0003F83F000000
0003F03F000000
0007F03F000000
0007E03F000000
000FE03F000000
000FC03FFFFFE0
001FC03FFFFFE0
001F803FFFFFE0
003F803FFFFFE0
003F003FFFFFE0
007F003FFFFFE0
007E003F000000
00FFFFFF000000
00FFFFFF000000
01FFFFFF000000
01FFFFFF000000
03FFFFFF000000
03FFFFFF000000
07F0003F000000
07F0003F000000
0FE0003F000000
0FE0003F000000
1FC0003F000000
1FC0003FFFFFF0
3F80003FFFFFF0
3F80003FFFFFF0
7F00003FFFFFF0
7F00003FFFFFF0
FE00003FFFFFF0
ENDCHAR
STARTCHAR 01FD
ENCODING 509
SWIDTH 866 0
DWIDTH 52 0
BBX 47 49 2 -1
BITMAP
000000400000
000000700000
000000FC0000
000000FE0000
000001FC0000
000001F80000
000003F80000
000003F00000
000007E00000
000007C00000
00000FC00000
000007800000
000001000000
000000000000
000000000000
000000000000
007F8003FC00
03FFE00FFF00
07FFF03FFFC0
0FFFF87FFFE0
1FFFFCFFFFF0
3FFFFCFFFFF8
3FC0FFFE0FF8
1F003FF803FC
0E001FF001FC
04001FE000FC
00001FC000FE
00001FC000FE
00001FC000FE
00001FC000FE
007FFFFFFFFE
03FFFFFFFFFE
0FFFFFFFFFFE
1FFFFFFFFFFE
3FC01FC00000
7F001FC00000
7E001FC00000
7E001FC00000
FE001FE00040
FE001FE00020
FE001FF00070
7F003FF800F8
7F80F9FE03FC
7FFFF9FFFFFC
3FFFF0FFFFF8
3FFFE07FFFF0
1FFFC03FFFC0
0FFF800FFF80
01FC0003FC00
ENDCHAR
STARTCHAR 01FE
ENCODING 510
SWIDTH 716 0
DWIDTH 43 0
BBX 36 61 3 -3
BITMAP
0000080000
00000E0000
00001F8000
00001FC000
00003F8000
00003F0000
00007F0000
00007E0000
0000FC0000
0000FC0000
0001F80000
0000F00000
0000200000
0000000180
00000003C0
0003FE03F0
001FFFC7E0
007FFFFFE0
01FFFFFFC0
03FFFFFF80
07FFFFFF80
07FE03FF00
0FF800FF80
1FE000FF80
1FC000FFC0
3FC001FFC0
3F8003FFE0
3F0003FFE0
7F0007E7E0
7F000FC7F0
7F000FC7F0
7E001F87F0
7E003F07F0
FE003F07F0
FE007E07F0
FE00FC07F0
FE00FC07F0
FE01F807F0
FE03F007F0
FE03F007F0
FE07E007F0
7E0FC007F0
7E0FC007F0
7F1F8007F0
7F3F0007F0
7F3F0007E0
3F7E000FE0
3FFC000FE0
3FFC001FC0
1FF8003FC0
1FF0007F80
0FF800FF80
07FE03FF00
0FFFFFFE00
1FFFFFFC00
1FFFFFF800
3F7FFFF000
7F1FFFC000
7E03FE0000
3C00000000
0C00000000
ENDCHAR
STARTCHAR 01FF
ENCODING 511
SWIDTH 566 0
DWIDTH 34 0
BBX 31 51 2 -3
BITMAP
00004000
0000F000
0000FC00
0001FE00
0001FC00
0003F800
0003F000
0007E000
0007E000
000FC000
000F8000
001F8000
00010000
00000000
00000010
00000038
001FE07C
00FFFCFE
01FFFFF8
03FFFFF8
07FFFFF0
0FFFFFE0
1FF03FE0
1FC00FE0
3F801FF0
3F803FF0
7F007FF8
7F00FFF8
7F00FBF8
7F01F9F8
7F03F1F8
7F07E1F8
7F0FC1F8
7F1F81F8
7F3F01F8
7F3E01F8
7F7E01F8
7FFC03F8
3FF803F8
3FF003F0
3FE007F0
1FC00FF0
1FF03FE0
1FFFFFC0
3FFFFFC0
3FFFFF80
7FFFFE00
FCFFFC00
F81FE000
70000000
10000000
ENDCHAR
STARTCHAR 0218
ENCODING 536
SWIDTH 600 0
DWIDTH 36 0
BBX 31 58 2 -15
BITMAP
000FF800
007FFF00
01FFFFC0
07FFFFE0
0FFFFFF8
0FFFFFFC
1FF00FFC
1FC003F8
3F8000F0
3F800060
3F000040
3F000000
3F000000
3F800000
3F800000
3FC00000
3FE00000
1FFC0000
1FFFC000
0FFFFC00
07FFFF80
03FFFFC0
00FFFFF0
001FFFF8
0001FFF8
00000FFC
000003FC
000001FE
000000FE
000000FE
000000FE
000000FE
080000FE
0C0000FE
1E0001FC
3F0001FC
7FC003FC
FFF00FF8
3FFFFFF8
1FFFFFF0
0FFFFFE0
03FFFF80
00FFFF00
001FF000
00000000
00000000
0007C000
000FE000
000FE000
000FE000
000FE000
000FE000
0007E000
0003C000
0003C000
0007C000
00078000
001F0000
ENDCHAR
STARTCHAR 0219
ENCODING 537
SWIDTH 500 0
DWIDTH 30 0
BBX 25 47 2 -15
BITMAP
007F8000
03FFF000
0FFFF800
1FFFFE00
1FFFFF00
3FFFFF00
3FC0FE00
7F003C00
7F000800
7E000000
7F000000
7F000000
7FC00000
3FFF0000
3FFFE000
1FFFF800
0FFFFE00
07FFFE00
01FFFF00
000FFF00
00007F80
00003F80
00001F80
08001F80
1C003F80
7E003F80
FF80FF00
FFFFFF00
7FFFFE00
3FFFFC00
0FFFF800
07FFF000
00FF8000
00000000
00000000
003E0000
007F0000
007F0000
007F0000
007F0000
007F0000
003F0000
001E0000
001E0000
003C0000
003C0000
00F80000
ENDCHAR
STARTCHAR 021A
ENCODING 538
SWIDTH 583 0
DWIDTH 35 0
BBX 32 57 1 -15
BITMAP
FFFFFFFF
FFFFFFFF
FFFFFFFF
FFFFFFFF
FFFFFFFF
FFFFFFFF
0007F000
0007F000
0007F000
0007F000
0007F000
0007F000
0007F000
0007F000
0007F000
0007F000
0007F000
0007F000
0007F000
0007F000
0007F000
0007F000
0007F000
0007F000
0007F000
0007F000
0007F000
0007F000
0007F000
0007F000
0007F000
0007F000
0007F000
0007F000
0007F000
0007F000
0007F000
0007F000
0007F000
0007F000
0007F000
0007F000
00000000
00000000
00000000
0003C000
0007E000
0007F000
0007F000
0007F000
0007F000
0003E000
0001E000
0001E000
0003C000
00078000
000F8000
ENDCHAR
STARTCHAR 021B
ENCODING 539
SWIDTH 366 0
DWIDTH 22 0
BBX 18 55 2 -15
BITMAP
07E000
07E000
07E000
07E000
07E000
07E000
07E000
07E000
0FE000
FFFFC0
FFFFC0
FFFFC0
FFFFC0
FFFFC0
FFFFC0
0FE000
0FE000
0FE000
0FE000
0FE000
0FE000
0FE000
0FE000
0FE000
0FE000
0FE000
0FE000
0FE000
0FE000
0FE000
0FE000
0FE000
0FE000
0FE000
0FFF80
07FF80
07FF80
07FF80
03FF80
00FF80
000000
000000
000000
007800
00FC00
00FE00
00FE00
00FE00
00FE00
007C00
003C00
007C00
007800
00F000
01E000
ENDCHAR
STARTCHAR 0237
ENCODING 567
SWIDTH 266 0
DWIDTH 16 0
BBX 11 43 0 -12
BITMAP
07E0
07E0
07E0
07E0
07E0
07E0
07E0
07E0
07E0
07E0
07E0
07E0
07E0
07E0
07E0
07E0
07E0
07E0
07E0
07E0
07E0
07E0
07E0
07E0
07E0
07E0
07E0
07E0
07E0
07E0
07E0
07E0
07E0
07E0
07E0
07E0
07E0
FFE0
FFE0
FFC0
FFC0
FF80
FE00
ENDCHAR
STARTCHAR 0259
ENCODING 601
SWIDTH 550 0
DWIDTH 33 0
BBX 28 33 3 -1
BITMAP
007FC000
03FFF000
07FFFC00
1FFFFE00
3FFFFF00
3FFFFF80
7FC0FF80
3F003FC0
1C001FC0
0C000FE0
08000FE0
000007E0
000007E0
000007F0
000007F0
FFFFFFF0
FFFFFFF0
FFFFFFF0
FFFFFFF0
FC0007F0
FC0007E0
FE0007E0
FE000FE0
FE000FE0
7F001FC0
7F803FC0
3FE0FF80
3FFFFF80
1FFFFF00
0FFFFE00
07FFFC00
01FFF000
007F8000
ENDCHAR
STARTCHAR 02BB
ENCODING 699
SWIDTH 600 0
DWIDTH 36 0
BBX 7 12 15 36
BITMAP
1E
3C
78
78
F0
F8
FC
FE
FE
FE
FC
78
ENDCHAR
STARTCHAR 02BC
ENCODING 700
SWIDTH 600 0
DWIDTH 36 0
BBX 8 12 14 32
BITMAP
FF
FE
FE
FE
FC
FC
FC
F8
F8
F8
F8
F0
ENDCHAR
STARTCHAR 02C6
ENCODING 710
SWIDTH 600 0
DWIDTH 36 0
BBX 22 12 7 35
BITMAP
01FE00
01FE00
03FF00
07FF80
0FFFC0
1FDFE0
1F87E0
3F03F0
7E01F8
FC00FC
380070
100020
ENDCHAR
STARTCHAR 02C7
ENCODING 711
SWIDTH 600 0
DWIDTH 36 0
BBX 22 12 7 36
BITMAP
100020
380070
7C00F8
FE01FC
3F03F0
1F87E0
1FEFE0
0FFFC0
07FF80
03FF00
01FE00
01FE00
ENDCHAR
STARTCHAR 02D8
ENCODING 728
SWIDTH 600 0
DWIDTH 36 0
BBX 20 11 8 35
BITMAP
100080
7000E0
F801F0
FC03F0
7C03E0
7F0FE0
3FFFC0
1FFF80
1FFF00
07FE00
01F800
ENDCHAR
STARTCHAR 02D9
ENCODING 729
SWIDTH 600 0
DWIDTH 36 0
BBX 8 8 14 36
BITMAP
3C
FE
FF
FF
FF
FF
FE
7C
ENDCHAR
STARTCHAR 02DA
ENCODING 730
SWIDTH 600 0
DWIDTH 36 0
BBX 16 16 10 34
BITMAP
07E0
1FF8
3FFC
7FFE
7C3E
781E
F81F
F81F
F81F
F81F
781E
7C3E
7FFE
3FFC
1FF8
07E0
ENDCHAR
STARTCHAR 02DB
ENCODING 731
SWIDTH 600 0
DWIDTH 36 0
BBX 13 14 8 -13
BITMAP
03E0
03C0
0F80
1F00
3E00
7C00
F800
F800
F840
F8E0
FFF0
7FF8
7FE0
1FC0
ENDCHAR
STARTCHAR 02DC
ENCODING 732
SWIDTH 600 0
DWIDTH 36 0
BBX 22 8 7 36
BITMAP
0F8000
3FE010
7FF870
FFFFF8
7FFFFC
387FF8
201FF0
0007C0
ENDCHAR
STARTCHAR 02DD
ENCODING 733
SWIDTH 600 0
DWIDTH 36 0
BBX 22 13 9 35
BITMAP
040080
0700E0
07C0F8
0FE1FC
0FC1F8
1FC3F0
1F83F0
3F07E0
3E07C0
7E0F80
7C0F80
F81F00
180200
ENDCHAR
STARTCHAR 0300
ENCODING 768
SWIDTH 0 0
DWIDTH 0 0
BBX 11 13 -8 35
BITMAP
0400
1E00
7E00
FF00
7F00
3F80
1F80
0FC0
0FC0
07E0
03E0
03E0
0100
ENDCHAR
STARTCHAR 0301
ENCODING 769
SWIDTH 0 0
DWIDTH 0 0
BBX 11 13 -3 35
BITMAP
0400
0F00
0FC0
1FE0
1FC0
3F80
3F00
7F00
7E00
FC00
FC00
7800
1000
ENDCHAR
STARTCHAR 0302
ENCODING 770
SWIDTH 0 0
DWIDTH 0 0
BBX 21 12 -10 35
BITMAP
03FC00
03FE00
07FE00
0FFF00
1FFF80
1FDFC0
3F8FC0
7F07E0
FE03F0
F801F8
7000E0
200040
ENDCHAR
STARTCHAR 0303
ENCODING 771
SWIDTH 0 0
DWIDTH 0 0
BBX 22 8 -11 36
BITMAP
0F8000
3FE010
7FFC70
7FFFF8
FFFFFC
387FF8
201FF0
0007C0
ENDCHAR
STARTCHAR 0304
ENCODING 772
SWIDTH 0 0
DWIDTH 0 0
BBX 18 5 -9 38
BITMAP
FFFFC0
FFFFC0
FFFFC0
FFFFC0
FFFFC0
ENDCHAR
STARTCHAR 0306
ENCODING 774
SWIDTH 0 0
DWIDTH 0 0
BBX 20 11 -10 35
BITMAP
100080
7000E0
F801F0
FC03F0
7C03E0
7F0FE0
3FFFC0
1FFF80
1FFF00
07FE00
01F800
ENDCHAR
STARTCHAR 0307
ENCODING 775
SWIDTH 0 0
DWIDTH 0 0
BBX 8 8 -4 36
BITMAP
3E
7F
FF
FF
FF
FF
7F
3E
ENDCHAR
STARTCHAR 0308
ENCODING 776
SWIDTH 0 0
DWIDTH 0 0
BBX 20 7 -10 37
BITMAP
3C03C0
7E07E0
FF0FF0
FF0FF0
FF0FF0
7E07E0
3C03C0
ENDCHAR
STARTCHAR 0309
ENCODING 777
SWIDTH 0 0
DWIDTH 0 0
BBX 12 13 -6 34
BITMAP
FFC0
FFF0
FFF0
FFF0
FFF0
01F0
03F0
03E0
03E0
07C0
07C0
0F80
0100
ENDCHAR
STARTCHAR 030A
ENCODING 778
SWIDTH 0 0
DWIDTH 0 0
BBX 16 16 -8 34
BITMAP
07E0
1FF8
3FFC
3FFE
7C3E
781E
F81F
F81F
F81F
F81F
781E
7C3E
3FFE
3FFC
1FF8
07E0
ENDCHAR
STARTCHAR 030B
ENCODING 779
SWIDTH 0 0
DWIDTH 0 0
BBX 21 13 -8 35
BITMAP
080100
0E01C0
0F81F0
1FC3F8
1F83F0
3F87E0
3F07E0
7E0FC0
7C0F80
FC1F00
F81F00
F03E00
300400
ENDCHAR
STARTCHAR 030C
ENCODING 780
SWIDTH 0 0
DWIDTH 0 0
BBX 21 12 -10 36
BITMAP
200040
7000E0
F801F0
FE03F8
7F07E0
3F8FC0
1FDFC0
1FFF80
0FFF00
07FE00
03FE00
03FC00
ENDCHAR
STARTCHAR 0312
ENCODING 786
SWIDTH 0 0
DWIDTH 0 0
BBX 7 12 -3 36
BITMAP
1E
3C
78
78
F0
F8
FC
FE
FE
FE
FC
78
ENDCHAR
STARTCHAR 0315
ENCODING 789
SWIDTH 0 0
DWIDTH 0 0
BBX 8 12 0 32
BITMAP
7F
7E
7E
FE
FE
FC
FC
FC
F8
F8
F8
F8
ENDCHAR
STARTCHAR 031B
ENCODING 795
SWIDTH 0 0
DWIDTH 0 0
BBX 12 11 -6 27
BITMAP
03F0
03F0
03F0
03F0
03F0
03F0
03F0
FFF0
FFE0
FFE0
FFC0
ENDCHAR
STARTCHAR 0323
ENCODING 803
SWIDTH 0 0
DWIDTH 0 0
BBX 8 7 -4 -11
BITMAP
3C
7E
FF
FF
FF
7E
3C
ENDCHAR
STARTCHAR 0326
ENCODING 806
SWIDTH 0 0
DWIDTH 0 0
BBX 7 12 -4 -15
BITMAP
3C
7E
FE
FE
FE
7E
3E
1E
3C
3C
78
F0
ENDCHAR
STARTCHAR 0327
ENCODING 807
SWIDTH 0 0
DWIDTH 0 0
BBX 14 14 -6 -13
BITMAP
0700
0F00
0F00
0E00
0E00
0FF0
11F8
007C
207C
307C
7FFC
FFF8
3FF0
1FC0
ENDCHAR
STARTCHAR 0328
ENCODING 808
SWIDTH 0 0
DWIDTH 0 0
BBX 13 14 -11 -13
BITMAP
03E0
03C0
0F80
1F00
3E00
7C00
7800
F800
F840
F8E0
FFF0
7FF8
7FE0
1FC0
ENDCHAR
STARTCHAR 037E
ENCODING 894
SWIDTH 316 0
DWIDTH 19 0
BBX 11 41 3 -9
BITMAP
0F80
1FC0
3FC0
3FE0
3FE0
3FE0
3FC0
1FC0
0F80
0000
0000
0000
0000
0000
0000
0000
0000
0000
0000
0000
0000
0000
0000
0000
0F80
1FC0
3FC0
3FE0
3FE0
3FE0
3FE0
1FC0
0FC0
07C0
0FC0
0F80
0F80
1F00
3E00
7C00
F800
ENDCHAR
STARTCHAR 0384
ENCODING 900
SWIDTH 600 0
DWIDTH 36 0
BBX 8 13 16 35
BITMAP
3C
3F
3F
3E
7E
7E
7E
7C
7C
7C
F8
F8
78
ENDCHAR
STARTCHAR 0385
ENCODING 901
SWIDTH 600 0
DWIDTH 36 0
BBX 22 13 8 35
BITMAP
003800
003E00
007C00
007C00
787C78
FC78F8
FC79FC
FC79FC
FCF9FC
FCF0F8
78F078
00F000
00E000
ENDCHAR
STARTCHAR 0386
ENCODING 902
SWIDTH 666 0
DWIDTH 40 0
BBX 37 48 1 0
BITMAP
1E00000000
1F80000000
1F80000000
1F80000000
3F00000000
3F00000000
3F03FE0000
3E03FF0000
3E03FF0000
3E07FF0000
3C07FF8000
7C07FF8000
3C0FDF8000
000FDFC000
000FCFC000
001FCFC000
001F8FE000
001F87E000
003F87E000
003F07F000
003F07F000
007F03F000
007E03F800
007E03F800
00FE01F800
00FC01FC00
00FC01FC00
01FC00FC00
01F800FE00
01F800FE00
03F8007E00
03FFFFFF00
03FFFFFF00
07FFFFFF00
07FFFFFF80
07FFFFFF80
0FFFFFFF80
0FE0001FC0
0FC0001FC0
1FC0001FE0
1FC0000FE0
1F80000FE0
3F80000FF0
3F800007F0
7F000007F0
7F000007F8
7F000003F8
FE000003F8
ENDCHAR
STARTCHAR 0387
ENCODING 903
SWIDTH 316 0
DWIDTH 19 0
BBX 9 9 5 23
BITMAP
3E00
7F00
FF00
FF80
FF80
FF80
FF00
7F00
3E00
ENDCHAR
STARTCHAR 0388
ENCODING 904
SWIDTH 650 0
DWIDTH 39 0
BBX 36 48 -1 0
BITMAP
3800000000
7F00000000
7E00000000
7E00000000
7E00000000
7E00000000
7C7FFFFFF0
7C7FFFFFF0
FC7FFFFFF0
F87FFFFFF0
F87FFFFFF0
F87FFFFFF0
707F000000
007F000000
007F000000
007F000000
007F000000
007F000000
007F000000
007F000000
007F000000
007F000000
007F000000
007F000000
007FFFFFC0
007FFFFFC0
007FFFFFC0
007FFFFFC0
007FFFFFC0
007FFFFFC0
007F000000
007F000000
007F000000
007F000000
007F000000
007F000000
007F000000
007F000000
007F000000
007F000000
007F000000
007F000000
007FFFFFF0
007FFFFFF0
007FFFFFF0
007FFFFFF0
007FFFFFF0
007FFFFFF0
ENDCHAR
STARTCHAR 0389
ENCODING 905
SWIDTH 766 0
DWIDTH 46 0
BBX 42 48 -1 0
BITMAP
380000000000
7F0000000000
7E0000000000
7E0000000000
7E0000000000
7E0000000000
7C7F00001FC0
7C7F00001FC0
FC7F00001FC0
F87F00001FC0
F87F00001FC0
F87F00001FC0
707F00001FC0
007F00001FC0
007F00001FC0
007F00001FC0
007F00001FC0
007F00001FC0
007F00001FC0
007F00001FC0
007F00001FC0
007F00001FC0
007F00001FC0
007F00001FC0
007FFFFFFFC0
007FFFFFFFC0
007FFFFFFFC0
007FFFFFFFC0
007FFFFFFFC0
007FFFFFFFC0
007F00001FC0
007F00001FC0
007F00001FC0
007F00001FC0
007F00001FC0
007F00001FC0
007F00001FC0
007F00001FC0
007F00001FC0
007F00001FC0
007F00001FC0
007F00001FC0
007F00001FC0
007F00001FC0
007F00001FC0
007F00001FC0
007F00001FC0
007F00001FC0
ENDCHAR
STARTCHAR 038A
ENCODING 906
SWIDTH 500 0
DWIDTH 30 0
BBX 28 48 -1 0
BITMAP
38000000
7F000000
7E000000
7E000000
7E000000
7E000000
7C3FFFF0
7C3FFFF0
FC3FFFF0
F83FFFF0
F83FFFF0
F83FFFF0
7001FC00
0001FC00
0001FC00
0001FC00
0001FC00
0001FC00
0001FC00
0001FC00
0001FC00
0001FC00
0001FC00
0001FC00
0001FC00
0001FC00
0001FC00
0001FC00
0001FC00
0001FC00
0001FC00
0001FC00
0001FC00
0001FC00
0001FC00
0001FC00
0001FC00
0001FC00
0001FC00
0001FC00
0001FC00
0001FC00
003FFFF0
003FFFF0
003FFFF0
003FFFF0
003FFFF0
003FFFF0
ENDCHAR
STARTCHAR 038C
ENCODING 908
SWIDTH 733 0
DWIDTH 44 0
BBX 42 49 -1 -1
BITMAP
380000000000
7F0000000000
7E0000000000
7E0000000000
7E0000000000
7E001FF00000
7C00FFFE0000
7C03FFFF8000
FC07FFFFC000
F80FFFFFF000
F81FFFFFF800
F83FF01FF800
707FC007FC00
00FF8001FE00
00FF0001FE00
01FE0000FF00
01FC00007F00
01FC00007F00
03FC00003F80
03F800003F80
03F800003F80
03F800003F80
03F800003F80
03F800003F80
03F800003FC0
03F800003FC0
07F800003FC0
07F800003FC0
03F800003FC0
03F800003FC0
03F800003F80
03F800003F80
03F800003F80
03F800003F80
03F800003F80
03F800003F80
01FC00007F00
01FC00007F00
01FE0000FF00
00FF0000FE00
00FF8001FE00
007FC007FC00
003FF01FF800
001FFFFFF800
001FFFFFF000
0007FFFFC000
0003FFFF8000
0000FFFE0000
00001FF00000
ENDCHAR
STARTCHAR 038E
ENCODING 910
SWIDTH 733 0
DWIDTH 44 0
BBX 44 48 -1 0
BITMAP
380000000000
7F0000000000
7E0000000000
7E0000000000
7E0000000000
7E0000000000
7CFF00000FF0
7C7F80000FE0
FC3F80001FE0
F83FC0001FC0
F81FC0003F80
F81FE0003F80
700FE0007F00
000FF000FF00
0007F800FE00
0003F801FE00
0003FC01FC00
0001FC03F800
0001FE03F800
0000FE07F000
0000FF07F000
00007F0FE000
00007F8FE000
00003F9FC000
00001FDF8000
00001FFF8000
00000FFF0000
00000FFF0000
000007FE0000
000007FE0000
000003FC0000
000003F80000
000001F80000
000001F80000
000001F80000
000001F80000
000001F80000
000001F80000
000001F80000
000001F80000
000001F80000
000001F80000
000001F80000
000001F80000
000001F80000
000001F80000
000001F80000
000001F80000
ENDCHAR
STARTCHAR 038F
ENCODING 911
SWIDTH 733 0
DWIDTH 44 0
BBX 42 48 -1 0
BITMAP
380000000000
7F0000000000
7E0000000000
7E0000000000
7E0000000000
7E001FF00000
7C00FFFE0000
7C03FFFF8000
FC07FFFFE000
F81FFFFFF000
F81FFFFFF800
F83FF01FFC00
707FC007FC00
00FF8001FE00
00FF0000FF00
01FE0000FF00
01FC00007F00
01FC00003F80
03F800003F80
03F800003F80
03F800003F80
03F800001FC0
03F800001FC0
03F800001FC0
03F800001FC0
03F800001FC0
03F800001FC0
03F800001FC0
03F800003F80
03F800003F80
03F800003F80
01FC00003F80
01FC00007F00
01FC00007F00
00FE0000FE00
00FF0000FE00
007F8001FC00
003FC003F800
001FE00FF800
000FF01FE000
0007F01FC000
0001F01F0000
07FFF01FFFC0
07FFF01FFFC0
07FFF01FFFC0
07FFF01FFFC0
07FFF01FFFC0
07FFF01FFFC0
ENDCHAR
STARTCHAR 0390
ENCODING 912
SWIDTH 316 0
DWIDTH 19 0
BBX 22 48 -2 0
BITMAP
003800
007E00
007C00
007C00
787C78
FC78F8
FC79FC
FC79FC
FCF1FC
FCF0F8
78F078
00F000
00E000
000000
000000
000000
000000
01F800
01F800
01F800
01F800
01F800
01F800
01F800
01F800
01F800
01F800
01F800
01F800
01F800
01F800
01F800
01F800
01F800
01F800
01F800
01F800
01F800
01F800
01F800
01F800
01F800
01FFE0
01FFE0
01FFE0
00FFE0
007FE0
003FE0
ENDCHAR
STARTCHAR 0391
ENCODING 913
SWIDTH 666 0
DWIDTH 40 0
BBX 37 42 1 0
BITMAP
0003FE0000
0003FF0000
0003FF0000
0007FF0000
0007FF8000
0007FF8000
000FDF8000
000FDFC000
000FCFC000
001FCFC000
001F8FE000
001F87E000
003F87E000
003F07F000
003F07F000
007F03F000
007E03F800
007E03F800
00FE01F800
00FC01FC00
00FC01FC00
01FC00FC00
01F800FE00
01F800FE00
03F8007E00
03FFFFFF00
03FFFFFF00
07FFFFFF00
07FFFFFF80
07FFFFFF80
0FFFFFFF80
0FE0001FC0
0FC0001FC0
1FC0001FE0
1FC0000FE0
1F80000FE0
3F80000FF0
3F800007F0
7F000007F0
7F000007F8
7F000003F8
FE000003F8
ENDCHAR
STARTCHAR 0392
ENCODING 914
SWIDTH 666 0
DWIDTH 40 0
BBX 31 42 5 0
BITMAP
FFFFFE00
FFFFFF80
FFFFFFE0
FFFFFFE0
FFFFFFF0
FFFFFFF8
FE000FF8
FE0003FC
FE0003FC
FE0001FC
FE0001FC
FE0001FC
FE0001FC
FE0001FC
FE0003F8
FE0003F8
FE000FF0
FFFFFFE0
FFFFFF80
FFFFFE00
FFFFFFC0
FFFFFFF0
FFFFFFF8
FE0007FC
FE0001FC
FE0000FE
FE0000FE
FE0000FE
FE0000FE
FE0000FE
FE0000FE
FE0000FE
FE0000FE
FE0000FE
FE0001FE
FE0007FC
FFFFFFFC
FFFFFFF8
FFFFFFF0
FFFFFFE0
FFFFFFC0
FFFFFF00
ENDCHAR
STARTCHAR 0393
ENCODING 915
SWIDTH 500 0
DWIDTH 30 0
BBX 24 42 5 0
BITMAP
FFFFFF
FFFFFF
FFFFFF
FFFFFF
FFFFFF
FFFFFF
FE0000
FE0000
FE0000
FE0000
FE0000
FE0000
FE0000
FE0000
FE0000
FE0000
FE0000
FE0000
FE0000
FE0000
FE0000
FE0000
FE0000
FE0000
FE0000
FE0000
FE0000
FE0000
FE0000
FE0000
FE0000
FE0000
FE0000
FE0000
FE0000
FE0000
FE0000
FE0000
FE0000
FE0000
FE0000
FE0000
ENDCHAR
STARTCHAR 0394
ENCODING 916
SWIDTH 666 0
DWIDTH 40 0
BBX 34 42 3 0
BITMAP
000FF80000
000FFC0000
000FFC0000
001FFC0000
001FFE0000
001FFE0000
003F7E0000
003F7F0000
003F3F0000
007E3F0000
007E3F8000
00FE1F8000
00FC1F8000
00FC1FC000
01FC0FC000
01F80FE000
01F80FE000
03F807E000
03F007F000
03F007F000
07F003F000
07E003F800
07E003F800
0FE001F800
0FC001FC00
0FC001FC00
1FC000FC00
1F8000FE00
3F8000FE00
3F80007E00
3F00007F00
7F00007F00
7F00003F80
7E00003F80
FE00003F80
FE00001FC0
FFFFFFFFC0
FFFFFFFFC0
FFFFFFFFC0
FFFFFFFFC0
FFFFFFFFC0
FFFFFFFFC0
ENDCHAR
STARTCHAR 0395
ENCODING 917
SWIDTH 600 0
DWIDTH 36 0
BBX 27 42 5 0
BITMAP
FFFFFFE0
FFFFFFE0
FFFFFFE0
FFFFFFE0
FFFFFFE0
FFFFFFE0
FE000000
FE000000
FE000000
FE000000
FE000000
FE000000
FE000000
FE000000
FE000000
FE000000
FE000000
FE000000
FFFFFF80
FFFFFF80
FFFFFF80
FFFFFF80
FFFFFF80
FFFFFF80
FE000000
FE000000
FE000000
FE000000
FE000000
FE000000
FE000000
FE000000
FE000000
FE000000
FE000000
FE000000
FFFFFFE0
FFFFFFE0
FFFFFFE0
FFFFFFE0
FFFFFFE0
FFFFFFE0
ENDCHAR
STARTCHAR 0396
ENCODING 918
SWIDTH 583 0
DWIDTH 35 0
BBX 31 42 2 0
BITMAP
7FFFFFFE
7FFFFFFE
7FFFFFFE
7FFFFFFE
7FFFFFFE
7FFFFFFE
000001FC
000003FC
000007F8
00000FF0
00000FE0
00001FC0
00003FC0
00007F80
0000FF00
0000FE00
0001FE00
0003FC00
0007F800
0007F000
000FF000
001FE000
003FC000
003F8000
007F8000
00FF0000
01FE0000
01FC0000
03FC0000
07F80000
0FF00000
0FE00000
1FE00000
3FC00000
7F800000
7F000000
FFFFFFFE
FFFFFFFE
FFFFFFFE
FFFFFFFE
FFFFFFFE
FFFFFFFE
ENDCHAR
STARTCHAR 0397
ENCODING 919
SWIDTH 716 0
DWIDTH 43 0
BBX 33 42 5 0
BITMAP
FE00003F80
FE00003F80
FE00003F80
FE00003F80
FE00003F80
FE00003F80
FE00003F80
FE00003F80
FE00003F80
FE00003F80
FE00003F80
FE00003F80
FE00003F80
FE00003F80
FE00003F80
FE00003F80
FE00003F80
FE00003F80
FFFFFFFF80
FFFFFFFF80
FFFFFFFF80
FFFFFFFF80
FFFFFFFF80
FFFFFFFF80
FE00003F80
FE00003F80
FE00003F80
FE00003F80
FE00003F80
FE00003F80
FE00003F80
FE00003F80
FE00003F80
FE00003F80
FE00003F80
FE00003F80
FE00003F80
FE00003F80
FE00003F80
FE00003F80
FE00003F80
FE00003F80
ENDCHAR
STARTCHAR 0398
ENCODING 920
SWIDTH 716 0
DWIDTH 43 0
BBX 37 44 3 -1
BITMAP
0003FE0000
001FFFC000
007FFFF000
01FFFFF800
03FFFFFE00
07FFFFFF00
07FE03FF00
0FF800FF80
1FE0003FC0
1FC0003FC0
3FC0001FE0
3F80000FE0
3F80000FE0
7F000007F0
7F000007F0
7F000007F0
7F000007F0
7F000007F0
FF000007F0
FF1FFFC7F8
FF1FFFC7F8
FF1FFFC7F8
FF1FFFC7F8
FF1FFFC7F8
FF1FFFC7F8
FF000007F0
7F000007F0
7F000007F0
7F000007F0
7F000007F0
7F000007F0
3F80000FE0
3F80000FE0
3FC0001FE0
1FC0001FC0
1FE0003FC0
0FF800FF80
07FE03FF00
07FFFFFF00
03FFFFFE00
01FFFFF800
007FFFF000
001FFFC000
0003FE0000
ENDCHAR
STARTCHAR 0399
ENCODING 921
SWIDTH 416 0
DWIDTH 25 0
BBX 19 42 3 0
BITMAP
FFFFE0
FFFFE0
FFFFE0
FFFFE0
FFFFE0
FFFFE0
03F800
03F800
03F800
03F800
03F800
03F800
03F800
03F800
03F800
03F800
03F800
03F800
03F800
03F800
03F800
03F800
03F800
03F800
03F800
03F800
03F800
03F800
03F800
03F800
03F800
03F800
03F800
03F800
03F800
03F800
FFFFE0
FFFFE0
FFFFE0
FFFFE0
FFFFE0
FFFFE0
ENDCHAR
STARTCHAR 039A
ENCODING 922
SWIDTH 666 0
DWIDTH 40 0
BBX 34 42 5 0
BITMAP
FE0000FF00
FE0001FE00
FE0003FC00
FE0003F800
FE0007F800
FE000FF000
FE001FE000
FE003FC000
FE007F8000
FE007F0000
FE00FF0000
FE01FE0000
FE03FC0000
FE07F80000
FE07F00000
FE0FE00000
FE1FC00000
FE3FC00000
FE7FC00000
FE7FE00000
FEFFE00000
FFFFF00000
FFFFF80000
FFF7F80000
FFE3FC0000
FFC1FE0000
FF81FE0000
FF00FF0000
FE007F8000
FE007F8000
FE003FC000
FE001FE000
FE001FE000
FE000FF000
FE0007F800
FE0007F800
FE0003FC00
FE0003FE00
FE0001FE00
FE0000FF00
FE0000FF80
FE00007FC0
ENDCHAR
STARTCHAR 039B
ENCODING 923
SWIDTH 650 0
DWIDTH 39 0
BBX 37 42 1 0
BITMAP
0003FE0000
0003FE0000
0007FE0000
0007FF0000
0007FF0000
000FFF0000
000FFF8000
000FDF8000
001FDF8000
001F9FC000
001F8FC000
003F8FC000
003F0FE000
003F07E000
007F07E000
007E07F000
007E07F000
00FE03F000
00FE03F800
00FC03F800
01FC01F800
01FC01FC00
01F801FC00
03F800FC00
03F800FE00
03F000FE00
07F000FE00
07F0007F00
07E0007F00
0FE0007F00
0FE0003F80
0FE0003F80
1FC0003F80
1FC0001FC0
1FC0001FC0
3F80001FC0
3F80000FE0
3F80000FE0
7F00000FE0
7F000007F0
7F000007F0
FE000007F8
ENDCHAR
STARTCHAR 039C
ENCODING 924
SWIDTH 816 0
DWIDTH 49 0
BBX 39 42 5 0
BITMAP
FF000001FE
FF800003FE
FFC00003FE
FFC00007FE
FFE00007FE
FFE0000FFE
FFF0000FFE
FFF0001FFE
FFF8003FFE
FFF8003FFE
FFFC007FFE
FEFC007EFE
FEFE00FEFE
FE7E00FCFE
FE7F01FCFE
FE3F81F8FE
FE3F83F8FE
FE1FC3F0FE
FE1FC7F0FE
FE0FE7E0FE
FE0FEFC0FE
FE07FFC0FE
FE03FF80FE
FE03FF80FE
FE01FF00FE
FE01FF00FE
FE00FE00FE
FE00FC00FE
FE007C00FE
FE007800FE
FE003800FE
FE001000FE
FE001000FE
FE000000FE
FE000000FE
FE000000FE
FE000000FE
FE000000FE
FE000000FE
FE000000FE
FE000000FE
FE000000FE
ENDCHAR
STARTCHAR 039D
ENCODING 925
SWIDTH 716 0
DWIDTH 43 0
BBX 33 42 5 0
BITMAP
FF00003F80
FF80003F80
FF80003F80
FFC0003F80
FFC0003F80
FFE0003F80
FFF0003F80
FFF0003F80
FFF8003F80
FFF8003F80
FFFC003F80
FEFC003F80
FEFE003F80
FE7F003F80
FE7F003F80
FE3F803F80
FE3F803F80
FE1FC03F80
FE1FE03F80
FE0FE03F80
FE0FF03F80
FE07F03F80
FE03F83F80
FE03FC3F80
FE01FC3F80
FE01FE3F80
FE00FE3F80
FE007F3F80
FE007F3F80
FE003FBF80
FE003FBF80
FE001FFF80
FE000FFF80
FE000FFF80
FE0007FF80
FE0007FF80
FE0003FF80
FE0003FF80
FE0001FF80
FE0000FF80
FE0000FF80
FE00007F80
ENDCHAR
STARTCHAR 039E
ENCODING 926
SWIDTH 600 0
DWIDTH 36 0
BBX 28 42 4 0
BITMAP
FFFFFFF0
FFFFFFF0
FFFFFFF0
FFFFFFF0
FFFFFFF0
FFFFFFF0
00000000
00000000
00000000
00000000
00000000
00000000
00000000
00000000
00000000
00000000
00000000
00000000
1FFFFF80
1FFFFF80
1FFFFF80
1FFFFF80
1FFFFF80
1FFFFF80
00000000
00000000
00000000
00000000
00000000
00000000
00000000
00000000
00000000
00000000
00000000
00000000
FFFFFFF0
FFFFFFF0
FFFFFFF0
FFFFFFF0
FFFFFFF0
FFFFFFF0
ENDCHAR
STARTCHAR 039F
ENCODING 927
SWIDTH 716 0
DWIDTH 43 0
BBX 36 44 3 -1
BITMAP
0003FE0000
001FFFC000
007FFFF000
01FFFFF800
03FFFFFC00
07FFFFFE00
07FE03FF00
0FF800FF80
1FE0007F80
1FC0003FC0
3FC0001FC0
3F80000FE0
3F80000FE0
7F00000FE0
7F000007F0
7F000007F0
7F000007F0
7F000007F0
FF000007F0
FF000007F0
FF000007F0
FF000007F0
FF000007F0
FF000007F0
FF000007F0
FF000007F0
7F000007F0
7F000007F0
7F000007F0
7F000007F0
7F00000FE0
3F80000FE0
3F80000FE0
3FC0001FC0
1FC0003FC0
1FE0007F80
0FF800FF80
07FE03FF00
07FFFFFE00
03FFFFFC00
01FFFFF800
007FFFF000
001FFFC000
0003FE0000
ENDCHAR
STARTCHAR 03A0
ENCODING 928
SWIDTH 700 0
DWIDTH 42 0
BBX 32 42 5 0
BITMAP
FFFFFFFF
FFFFFFFF
FFFFFFFF
FFFFFFFF
FFFFFFFF
FFFFFFFF
FE00007F
FE00007F
FE00007F
FE00007F
FE00007F
FE00007F
FE00007F
FE00007F
FE00007F
FE00007F
FE00007F
FE00007F
FE00007F
FE00007F
FE00007F
FE00007F
FE00007F
FE00007F
FE00007F
FE00007F
FE00007F
FE00007F
FE00007F
FE00007F
FE00007F
FE00007F
FE00007F
FE00007F
FE00007F
FE00007F
FE00007F
FE00007F
FE00007F
FE00007F
FE00007F
FE00007F
ENDCHAR
STARTCHAR 03A1
ENCODING 929
SWIDTH 633 0
DWIDTH 38 0
BBX 30 42 5 0
BITMAP
FFFFFC00
FFFFFF80
FFFFFFC0
FFFFFFE0
FFFFFFF0
FFFFFFF8
FE000FF8
FE0003FC
FE0001FC
FE0001FC
FE0001FC
FE0001FC
FE0001FC
FE0001FC
FE0001FC
FE0001FC
FE0001FC
FE0003FC
FE000FF8
FFFFFFF8
FFFFFFF0
FFFFFFE0
FFFFFFC0
FFFFFF80
FFFFFC00
FE000000
FE000000
FE000000
FE000000
FE000000
FE000000
FE000000
FE000000
FE000000
FE000000
FE000000
FE000000
FE000000
FE000000
FE000000
FE000000
FE000000
ENDCHAR
STARTCHAR 03A3
ENCODING 931
SWIDTH 583 0
DWIDTH 35 0
BBX 29 42 3 0
BITMAP
FFFFFFF8
FFFFFFF8
FFFFFFF8
FFFFFFF8
FFFFFFF8
FFFFFFF8
FF800000
7FC00000
3FE00000
1FF00000
0FF00000
07F80000
03FC0000
01FE0000
00FF0000
007F8000
003FC000
001FE000
000FF000
000FF800
0007FC00
0007F800
000FF000
001FE000
003FC000
007F8000
00FF0000
01FE0000
01FC0000
03FC0000
07F80000
0FF00000
1FE00000
3FC00000
7F800000
FF000000
FFFFFFF8
FFFFFFF8
FFFFFFF8
FFFFFFF8
FFFFFFF8
FFFFFFF8
ENDCHAR
STARTCHAR 03A4
ENCODING 932
SWIDTH 583 0
DWIDTH 35 0
BBX 32 42 1 0
BITMAP
FFFFFFFF
FFFFFFFF
FFFFFFFF
FFFFFFFF
FFFFFFFF
FFFFFFFF
0007F000
0007F000
0007F000
0007F000
0007F000
0007F000
0007F000
0007F000
0007F000
0007F000
0007F000
0007F000
0007F000
0007F000
0007F000
0007F000
0007F000
0007F000
0007F000
0007F000
0007F000
0007F000
0007F000
0007F000
0007F000
0007F000
0007F000
0007F000
0007F000
0007F000
0007F000
0007F000
0007F000
0007F000
0007F000
0007F000
ENDCHAR
STARTCHAR 03A5
ENCODING 933
SWIDTH 616 0
DWIDTH 37 0
BBX 35 42 1 0
BITMAP
FF00000FE0
FF00001FE0
7F80001FC0
3F80003F80
3FC0003F80
1FC0007F00
1FE000FF00
0FE000FE00
0FF001FE00
07F001FC00
03F803F800
03FC03F800
01FC07F000
01FE07F000
00FE0FE000
00FF0FE000
007F1FC000
007F9F8000
003FBF8000
001FFF0000
001FFF0000
000FFE0000
000FFE0000
0007FC0000
0007F80000
0003F80000
0003F80000
0003F80000
0003F80000
0003F80000
0003F80000
0003F80000
0003F80000
0003F80000
0003F80000
0003F80000
0003F80000
0003F80000
0003F80000
0003F80000
0003F80000
0003F80000
ENDCHAR
STARTCHAR 03A6
ENCODING 934
SWIDTH 850 0
DWIDTH 51 0
BBX 45 46 3 -2
BITMAP
00001FC00000
00001FC00000
00001FC00000
0003FFFF0000
003FFFFFE000
00FFFFFFF800
01FFFFFFFC00
03FFFFFFFE00
07FFFFFFFF00
0FFE1FC3FF80
1FF01FC07FC0
3FE01FC03FE0
3FC01FC01FE0
3F801FC00FF0
7F001FC007F0
7F001FC007F0
7F001FC007F0
FE001FC003F8
FE001FC003F8
FE001FC003F8
FE001FC003F8
FE001FC003F8
FE001FC003F8
FE001FC003F8
FE001FC003F8
FE001FC003F8
FE001FC003F8
FE001FC003F8
7F001FC007F8
7F001FC007F0
7F001FC007F0
3F801FC00FF0
3FC01FC01FE0
3FE01FC03FE0
1FF01FC07FC0
0FFE1FC3FF80
07FFFFFFFF00
03FFFFFFFE00
01FFFFFFFC00
00FFFFFFF800
003FFFFFE000
0007FFFF0000
00001FC00000
00001FC00000
00001FC00000
00001FC00000
ENDCHAR
STARTCHAR 03A7
ENCODING 935
SWIDTH 633 0
DWIDTH 38 0
BBX 36 42 1 0
BITMAP
7F80000FF0
3FC0001FE0
3FC0003FC0
1FE0003F80
0FE0007F80
0FF0007F00
07F800FE00
03F801FE00
03FC01FC00
01FE03F800
01FE03F800
00FF07F000
007F0FE000
007F8FE000
003FDFC000
001FFFC000
001FFF8000
000FFF0000
0007FF0000
0007FE0000
0003FC0000
0007FE0000
0007FF0000
000FFF0000
001FFF8000
001FFFC000
003F9FC000
007F1FE000
007F0FE000
00FE07F000
01FE07F800
01FC03F800
03F803FC00
03F801FE00
07F000FE00
0FF000FF00
0FE0007F80
1FC0007F80
3FC0003FC0
3F80001FC0
7F80001FE0
FF00000FF0
ENDCHAR
STARTCHAR 03A8
ENCODING 936
SWIDTH 816 0
DWIDTH 49 0
BBX 41 42 4 0
BITMAP
FE007F003F80
FE007F003F80
FE007F003F80
FE007F003F80
FE007F003F80
FE007F003F80
FE007F003F80
FE007F003F80
FE007F003F80
FE007F003F80
FE007F003F80
FE007F003F80
FE007F003F80
FE007F003F80
FE007F003F80
FE007F003F80
FE007F003F00
FE007F007F00
FF007F007F00
7F007F007F00
7F807F00FF00
7FC07F01FE00
3FE07F03FE00
3FF87F0FFC00
1FFFFFFFF800
0FFFFFFFF800
07FFFFFFF000
01FFFFFFC000
007FFFFF0000
000FFFF80000
00007F000000
00007F000000
00007F000000
00007F000000
00007F000000
00007F000000
00007F000000
00007F000000
00007F000000
00007F000000
00007F000000
00007F000000
ENDCHAR
STARTCHAR 03A9
ENCODING 937
SWIDTH 716 0
DWIDTH 43 0
BBX 37 43 3 0
BITMAP
0003FE0000
001FFFC000
007FFFF000
00FFFFFC00
03FFFFFE00
07FFFFFF00
07FE03FF80
0FF800FF80
1FF0003FC0
1FE0001FC0
3FC0001FE0
3F80000FE0
3F800007F0
7F000007F0
7F000007F0
7F000007F0
7F000007F0
7F000007F8
7F000007F8
7F000007F8
7F000007F8
7F000007F8
7F000007F8
7F000007F0
7F000007F0
7F000007F0
7F000007F0
3F80000FE0
3F80000FE0
1FC0001FC0
1FE0001FC0
0FE0003F80
07F0007F00
03FC01FE00
01FE03FC00
00FE03F800
003E03E000
FFFE03FFF8
FFFE03FFF8
FFFE03FFF8
FFFE03FFF8
FFFE03FFF8
FFFE03FFF8
ENDCHAR
ENDFONT
